<svg width="56" height="56" viewBox="0 0 56 56" fill="none" xmlns="http://www.w3.org/2000/svg">
<path opacity="0.4" d="M25.6665 4.6665H20.9998C9.33317 4.6665 4.6665 9.33317 4.6665 20.9998V34.9998C4.6665 46.6665 9.33317 51.3332 20.9998 51.3332H34.9998C46.6665 51.3332 51.3332 46.6665 51.3332 34.9998V30.3332" stroke="#544179" stroke-width="3" stroke-linecap="round" stroke-linejoin="round"/>
<path d="M37.4269 7.04677L19.0402 25.4334C18.3402 26.1334 17.6402 27.5101 17.5002 28.5134L16.4969 35.5368C16.1235 38.0801 17.9202 39.8534 20.4635 39.5034L27.4869 38.5001C28.4669 38.3601 29.8435 37.6601 30.5669 36.9601L48.9535 18.5734C52.1269 15.4001 53.6202 11.7134 48.9535 7.04677C44.2869 2.3801 40.6002 3.87343 37.4269 7.04677Z" stroke="#544179" stroke-width="3" stroke-miterlimit="10" stroke-linecap="round" stroke-linejoin="round"/>
<path opacity="0.4" d="M34.79 9.68311C36.3534 15.2598 40.7167 19.6231 46.3167 21.2098" stroke="#544179" stroke-width="3" stroke-miterlimit="10" stroke-linecap="round" stroke-linejoin="round"/>
</svg>
