<svg width="56" height="56" viewBox="0 0 56 56" fill="none" xmlns="http://www.w3.org/2000/svg">
<path opacity="0.4" d="M51.3332 14.5832V26.4831C51.3332 29.4464 50.3532 31.9432 48.6032 33.6698C46.8765 35.4198 44.3798 36.3998 41.4165 36.3998V40.6231C41.4165 42.2098 39.6432 43.1665 38.3365 42.2798L36.0732 40.7865C36.2832 40.0631 36.3765 39.2698 36.3765 38.4298V28.9332C36.3765 24.1732 33.2032 20.9998 28.4432 20.9998H12.5998C12.2732 20.9998 11.9698 21.0232 11.6665 21.0465V14.5832C11.6665 8.63317 15.6332 4.6665 21.5832 4.6665H41.4165C47.3665 4.6665 51.3332 8.63317 51.3332 14.5832Z" stroke="#544179" stroke-width="3" stroke-miterlimit="10" stroke-linecap="round" stroke-linejoin="round"/>
<path d="M36.3765 28.9334V38.4299C36.3765 39.2699 36.2832 40.0633 36.0732 40.7866C35.2099 44.2166 32.3632 46.3633 28.4432 46.3633H22.0965L15.0498 51.0533C13.9998 51.7767 12.5998 51.0067 12.5998 49.7467V46.3633C10.2198 46.3633 8.23651 45.57 6.85984 44.1933C5.45984 42.7933 4.6665 40.8099 4.6665 38.4299V28.9334C4.6665 24.5001 7.41984 21.4434 11.6665 21.0467C11.9698 21.0234 12.2732 21 12.5998 21H28.4432C33.2032 21 36.3765 24.1734 36.3765 28.9334Z" stroke="#544179" stroke-width="3" stroke-miterlimit="10" stroke-linecap="round" stroke-linejoin="round"/>
</svg>
