<svg width="56" height="56" viewBox="0 0 56 56" fill="none" xmlns="http://www.w3.org/2000/svg">
<path d="M23.3332 39.55H14.4898C6.6265 39.55 4.6665 37.59 4.6665 29.7267V15.7267C4.6665 7.86332 6.6265 5.90332 14.4898 5.90332H39.0598C46.9232 5.90332 48.8832 7.86332 48.8832 15.7267" stroke="#544179" stroke-width="3" stroke-linecap="round" stroke-linejoin="round"/>
<path d="M23.3335 50.0965V39.5498" stroke="#544179" stroke-width="3" stroke-linecap="round" stroke-linejoin="round"/>
<path opacity="0.4" d="M4.6665 30.2168H23.3332" stroke="#544179" stroke-width="3" stroke-linecap="round" stroke-linejoin="round"/>
<path d="M15.7266 50.0967H23.3332" stroke="#544179" stroke-width="3" stroke-linecap="round" stroke-linejoin="round"/>
<path d="M51.3335 29.8666V43.19C51.3335 48.72 49.9568 50.0966 44.4268 50.0966H36.1435C30.6135 50.0966 29.2368 48.72 29.2368 43.19V29.8666C29.2368 24.3366 30.6135 22.96 36.1435 22.96H44.4268C49.9568 22.96 51.3335 24.3366 51.3335 29.8666Z" stroke="#544179" stroke-width="3" stroke-linecap="round" stroke-linejoin="round"/>
<path opacity="0.4" d="M40.2373 42.5832H40.2583" stroke="#544179" stroke-width="3" stroke-linecap="round" stroke-linejoin="round"/>
</svg>
