<svg width="50" height="50" viewBox="0 0 50 50" fill="none" xmlns="http://www.w3.org/2000/svg">
<circle cx="25" cy="25" r="24" stroke="white" stroke-width="1.5"/>
<path d="M25 17.5864V22.0264" stroke="white" stroke-width="1.5" stroke-miterlimit="10" stroke-linecap="round"/>
<path d="M36.4532 29.2265C37.4266 30.8532 36.6532 32.9598 34.8532 33.5598C28.4799 35.6798 21.5866 35.6798 15.2132 33.5598C13.2932 32.9198 12.5599 30.9732 13.6132 29.2265L15.3066 26.3998C15.7732 25.6265 16.1466 24.2532 16.1466 23.3598V20.5598C16.1466 15.6398 20.1199 11.6665 25.0266 11.6665C29.9066 11.6665 33.9066 15.6665 33.9066 20.5465V23.3465C33.9066 23.5865 33.9332 23.8532 33.9732 24.1332" stroke="white" stroke-width="1.5" stroke-miterlimit="10" stroke-linecap="round"/>
<path d="M29.4401 34.0933C29.4401 36.5333 27.4401 38.5333 25.0001 38.5333C23.7867 38.5333 22.6667 38.0266 21.8667 37.2266C21.0667 36.4266 20.5601 35.3066 20.5601 34.0933" stroke="white" stroke-width="1.5" stroke-miterlimit="10"/>
</svg>
