<svg width="56" height="56" viewBox="0 0 56 56" fill="none" xmlns="http://www.w3.org/2000/svg">
<path opacity="0.4" d="M30.3335 26.0166H16.3335" stroke="#544179" stroke-width="3" stroke-linecap="round" stroke-linejoin="round"/>
<path opacity="0.4" d="M4.6665 26.0169V15.237C4.6665 10.477 8.51651 6.62695 13.2765 6.62695H26.3898C31.1498 6.62695 34.9998 9.59028 34.9998 14.3503" stroke="#544179" stroke-width="3" stroke-linecap="round" stroke-linejoin="round"/>
<path d="M40.7865 28.4667C39.6198 29.5867 39.0598 31.3134 39.5265 33.0867C40.1098 35.2567 42.2565 36.6334 44.4965 36.6334H46.6665V40.0168C46.6665 45.1734 42.4898 49.3501 37.3332 49.3501H13.9998C8.84317 49.3501 4.6665 45.1734 4.6665 40.0168V23.6834C4.6665 18.5268 8.84317 14.3501 13.9998 14.3501H37.3332C42.4665 14.3501 46.6665 18.5501 46.6665 23.6834V27.0666H44.1465C42.8398 27.0666 41.6498 27.5801 40.7865 28.4667Z" stroke="#544179" stroke-width="3" stroke-linecap="round" stroke-linejoin="round"/>
<path d="M51.3332 29.4465V34.2531C51.3332 35.5598 50.2598 36.6332 48.9298 36.6332H44.4265C41.9065 36.6332 39.5965 34.7898 39.3865 32.2698C39.2465 30.7998 39.8065 29.4232 40.7865 28.4665C41.6498 27.5798 42.8398 27.0664 44.1465 27.0664H48.9298C50.2598 27.0664 51.3332 28.1398 51.3332 29.4465Z" stroke="#544179" stroke-width="3" stroke-linecap="round" stroke-linejoin="round"/>
</svg>
