<svg width="100" height="100" viewBox="0 0 100 100" fill="none" xmlns="http://www.w3.org/2000/svg">
<rect width="100" height="100" fill="#F92B4E"/>
<path d="M57.1153 42.7681C56.3385 41.9862 55.4776 41.2927 54.5482 40.7003C51.6062 38.8156 48.1083 37.9931 44.6346 38.3692C41.161 38.7453 37.9202 40.2974 35.4497 42.7681L21.5343 56.6998C18.72 59.5839 17.1553 63.4605 17.1789 67.49C17.2026 71.5195 18.8128 75.3775 21.6607 78.2283C24.5086 81.079 28.365 82.6931 32.3945 82.7208C36.424 82.7485 40.3021 81.1876 43.189 78.3763L54.6785 66.8868C54.782 66.7839 54.8637 66.6611 54.9188 66.5259C54.9738 66.3907 55.001 66.2458 54.9987 66.0998C54.9987 65.8119 54.8843 65.5359 54.6808 65.3323C54.4772 65.1287 54.2011 65.0144 53.9132 65.0144H53.4736C51.074 65.0199 48.6963 64.559 46.4725 63.6576C46.2724 63.5734 46.0517 63.5512 45.8388 63.5938C45.626 63.6363 45.4308 63.7417 45.2785 63.8964L37.0073 72.1675C35.7759 73.3996 34.1055 74.0921 32.3635 74.0926C30.6216 74.0931 28.9507 73.4016 27.7186 72.1702C26.4865 70.9388 25.794 69.2684 25.7935 67.5264C25.793 65.7844 26.4845 64.1136 27.7159 62.8815L41.6911 48.9172C42.2999 48.3079 43.0229 47.8245 43.8186 47.4947C44.6144 47.1649 45.4673 46.9952 46.3286 46.9952C47.19 46.9952 48.0429 47.1649 48.8387 47.4947C49.6344 47.8245 50.3574 48.3079 50.9662 48.9172C51.798 49.701 52.8978 50.1376 54.0408 50.1376C55.1837 50.1376 56.2835 49.701 57.1153 48.9172C57.5198 48.5138 57.8407 48.0346 58.0597 47.507C58.2787 46.9795 58.3914 46.4138 58.3914 45.8426C58.3914 45.2714 58.2787 44.7058 58.0597 44.1782C57.8407 43.6506 57.5198 43.1714 57.1153 42.7681Z" fill="#020059"/>
<path d="M78.224 21.6612C76.8017 20.2381 75.1129 19.1092 73.2542 18.339C71.3954 17.5688 69.4032 17.1724 67.3912 17.1724C65.3792 17.1724 63.3869 17.5688 61.5282 18.339C59.6695 19.1092 57.9807 20.2381 56.5584 21.6612L45.0798 33.129C44.9209 33.2817 44.8123 33.4792 44.7684 33.6951C44.7245 33.9111 44.7473 34.1353 44.8339 34.338C44.9205 34.5406 45.0667 34.7121 45.2532 34.8296C45.4396 34.9472 45.6574 35.0052 45.8776 34.9959H46.2792C48.6783 34.9934 51.0548 35.4599 53.2749 36.369C53.4748 36.4513 53.6948 36.472 53.9065 36.4285C54.1183 36.385 54.3122 36.2792 54.4635 36.1248L62.7075 27.8971C63.3176 27.2874 64.0418 26.8038 64.8387 26.4739C65.6357 26.1441 66.4899 25.9744 67.3524 25.9747C68.2149 25.9749 69.069 26.1451 69.8658 26.4754C70.6626 26.8057 71.3865 27.2897 71.9962 27.8998C72.6059 28.5099 73.0895 29.2341 73.4194 30.0311C73.7492 30.8281 73.9189 31.6822 73.9186 32.5447C73.9184 33.4073 73.7482 34.2613 73.4179 35.0581C73.0876 35.8549 72.6036 36.5788 71.9935 37.1885L61.7306 47.4406L61.6437 47.5383L58.0563 51.104C56.825 52.3336 55.1561 53.0242 53.416 53.0242C51.6759 53.0242 50.007 52.3336 48.7757 51.104C47.9427 50.3225 46.8434 49.8876 45.7012 49.8876C44.559 49.8876 43.4597 50.3225 42.6267 51.104C42.2189 51.5077 41.8952 51.9883 41.6743 52.5179C41.4534 53.0474 41.3396 53.6156 41.3396 54.1894C41.3396 54.7632 41.4534 55.3313 41.6743 55.8609C41.8952 56.3905 42.2189 56.8711 42.6267 57.2748C43.8908 58.5489 45.3722 59.5873 47.001 60.3412C47.2344 60.4497 47.4623 60.5366 47.6903 60.6342C47.9182 60.7319 48.1624 60.8133 48.3904 60.9002C48.6183 60.987 48.8626 61.063 49.0905 61.1281L49.7363 61.3018C50.176 61.4158 50.6156 61.5026 51.0606 61.5786C51.6001 61.6589 52.1437 61.7096 52.6888 61.7305H53.5191L54.1813 61.6763C54.4201 61.6763 54.6751 61.6111 54.9574 61.6111H55.3318L56.0862 61.5026L56.4336 61.4375L57.0686 61.3018H57.2097C59.8999 60.6305 62.3561 59.2382 64.3139 57.2748L78.2403 43.3485C79.6649 41.9243 80.7947 40.2332 81.565 38.372C82.3353 36.5107 82.7311 34.5158 82.7295 32.5014C82.728 30.4871 82.3293 28.4928 81.5562 26.6327C80.7831 24.7726 79.6507 23.0832 78.224 21.6612Z" fill="white"/>
<path d="M57.1199 57.2371C57.9017 56.4603 58.5952 55.5994 59.1876 54.67C61.0723 51.7279 61.8948 48.2301 61.5187 44.7564C61.1426 41.2828 59.5906 38.042 57.1199 35.5715L43.1935 21.656C40.3095 18.8418 36.4329 17.2771 32.4034 17.3007C28.3739 17.3244 24.5159 18.9346 21.6651 21.7825C18.8143 24.6304 17.2003 28.4868 17.1726 32.5162C17.1449 36.5457 18.7058 40.4239 21.5171 43.3108L33.0066 54.8002C33.1581 54.9575 33.3535 55.0655 33.5673 55.1099C33.7811 55.1544 34.0034 55.1333 34.205 55.0495C34.4067 54.9657 34.5783 54.823 34.6976 54.6401C34.8169 54.4571 34.8782 54.2425 34.8736 54.0241V53.5845C34.8681 51.185 35.3289 48.8072 36.2304 46.5834C36.3133 46.384 36.3349 46.1644 36.2924 45.9527C36.2498 45.7409 36.1451 45.5467 35.9916 45.3948L27.7205 37.1291C26.5422 35.8861 25.8958 34.2323 25.9187 32.5198C25.9416 30.8073 26.6321 29.1713 27.8431 27.9603C29.0541 26.7493 30.6901 26.0588 32.4026 26.0359C34.1151 26.013 35.7689 26.6595 37.0119 27.8377L50.9708 41.8128C51.5801 42.4217 52.0634 43.1446 52.3932 43.9404C52.723 44.7361 52.8927 45.5891 52.8927 46.4504C52.8927 47.3118 52.723 48.1647 52.3932 48.9605C52.0634 49.7562 51.5801 50.4792 50.9708 51.088C50.1893 51.921 49.7544 53.0204 49.7544 54.1625C49.7544 55.3047 50.1893 56.4041 50.9708 57.2371C51.3741 57.6416 51.8533 57.9625 52.3809 58.1815C52.9085 58.4005 53.4741 58.5132 54.0453 58.5132C54.6166 58.5132 55.1822 58.4005 55.7097 58.1815C56.2373 57.9625 56.7165 57.6416 57.1199 57.2371Z" fill="#020059"/>
<path d="M78.223 78.3439C79.646 76.9216 80.7749 75.2328 81.5451 73.3741C82.3153 71.5154 82.7118 69.5231 82.7118 67.5111C82.7118 65.4991 82.3153 63.5069 81.5451 61.6481C80.7749 59.7894 79.646 58.1006 78.223 56.6783L66.7606 45.1997C66.6083 45.0388 66.4103 44.9284 66.1933 44.8833C65.9764 44.8382 65.7508 44.8606 65.547 44.9474C65.3431 45.0343 65.1707 45.1815 65.0529 45.3692C64.9352 45.5569 64.8777 45.7762 64.8882 45.9975V46.3991C64.8926 48.7979 64.428 51.1744 63.5205 53.3949C63.4376 53.5942 63.416 53.8139 63.4586 54.0256C63.5011 54.2373 63.6058 54.4315 63.7593 54.5834L71.9871 62.8274C72.5968 63.4375 73.0804 64.1617 73.4102 64.9587C73.7401 65.7557 73.9097 66.6098 73.9095 67.4723C73.9092 68.3349 73.7391 69.1889 73.4088 69.9857C73.0784 70.7825 72.5944 71.5064 71.9843 72.1161C71.3743 72.7259 70.6501 73.2095 69.8531 73.5393C69.0561 73.8692 68.202 74.0388 67.3394 74.0385C66.4769 74.0383 65.6228 73.8682 64.826 73.5378C64.0293 73.2075 63.3053 72.7235 62.6956 72.1134L52.4435 61.8505L52.3241 61.7637L48.7584 58.1763C47.5289 56.945 46.8383 55.276 46.8383 53.536C46.8383 51.7959 47.5289 50.1269 48.7584 48.8957C49.5399 48.0626 49.9748 46.9633 49.9748 45.8211C49.9748 44.6789 49.5399 43.5796 48.7584 42.7466C48.3547 42.3388 47.8742 42.0151 47.3446 41.7942C46.815 41.5733 46.2469 41.4596 45.673 41.4596C45.0992 41.4596 44.5311 41.5733 44.0015 41.7942C43.4719 42.0151 42.9914 42.3388 42.5877 42.7466C41.3136 44.0108 40.2752 45.4921 39.5213 47.121C39.4127 47.3543 39.3259 47.5823 39.2282 47.8102C39.1305 48.0382 39.0545 48.2824 38.9623 48.5103C38.87 48.7383 38.7994 48.9825 38.7343 49.2104L38.5606 49.8563C38.4521 50.2959 38.3653 50.7355 38.2839 51.1805C38.2079 51.7233 38.1536 52.266 38.1319 52.8087V53.6391L38.2133 54.3012C38.2133 54.54 38.2784 54.7951 38.2784 55.0773V55.4518L38.3924 56.2062L38.4575 56.5535L38.5878 57.1885V57.3296C39.2614 60.0189 40.6534 62.4745 42.6148 64.4339L56.5574 78.3385C59.4299 81.2119 63.3261 82.8267 67.3891 82.8278C71.452 82.8288 75.349 81.2159 78.223 78.3439Z" fill="white"/>
</svg>
