<svg width="56" height="56" viewBox="0 0 56 56" fill="none" xmlns="http://www.w3.org/2000/svg">
<path d="M35.9099 12.157L39.1999 18.737C39.6432 19.647 40.8332 20.5103 41.8365 20.697L47.7866 21.677C51.5899 22.307 52.4766 25.0603 49.7466 27.8136L45.1032 32.457C44.3332 33.227 43.8899 34.7436 44.1466 35.8403L45.4765 41.5803C46.5265 46.107 44.0999 47.8803 40.1099 45.5003L34.5332 42.187C33.5299 41.5803 31.8499 41.5803 30.8466 42.187L25.2699 45.5003C21.2799 47.857 18.8532 46.107 19.9032 41.5803L21.2332 35.8403C21.4899 34.767 21.0466 33.2503 20.2766 32.457L15.6332 27.8136C12.9032 25.0836 13.7899 22.3303 17.5932 21.677L23.5432 20.697C24.5465 20.5336 25.7366 19.647 26.1799 18.737L29.4699 12.157C31.2199 8.58699 34.1133 8.58699 35.9099 12.157Z" stroke="#544179" stroke-width="3" stroke-linecap="round" stroke-linejoin="round"/>
<path opacity="0.4" d="M18.6665 11.667H4.6665" stroke="#544179" stroke-width="3" stroke-linecap="round" stroke-linejoin="round"/>
<path opacity="0.4" d="M11.6665 44.333H4.6665" stroke="#544179" stroke-width="3" stroke-linecap="round" stroke-linejoin="round"/>
<path opacity="0.4" d="M6.99984 28H4.6665" stroke="#544179" stroke-width="3" stroke-linecap="round" stroke-linejoin="round"/>
</svg>
