<svg width="56" height="56" viewBox="0 0 56 56" fill="none" xmlns="http://www.w3.org/2000/svg">
<path d="M51.3331 40.1336C51.3331 42.2336 50.7498 44.2168 49.6998 45.8968C47.7631 49.1402 44.2164 51.3335 40.1331 51.3335C36.0498 51.3335 32.4798 49.1402 30.5664 45.8968C29.5398 44.2168 28.9331 42.2336 28.9331 40.1336C28.9331 33.9502 33.9498 28.9336 40.1331 28.9336C46.3164 28.9336 51.3331 33.9502 51.3331 40.1336Z" stroke="#544179" stroke-width="3" stroke-miterlimit="10" stroke-linecap="round" stroke-linejoin="round"/>
<path d="M35.7695 40.1332L38.5229 42.8865L44.4962 37.3799" stroke="#544179" stroke-width="3" stroke-linecap="round" stroke-linejoin="round"/>
<path opacity="0.4" d="M51.3332 20.2768C51.3332 24.8735 50.1432 28.9334 48.2765 32.4567C46.2232 30.2867 43.3298 28.9335 40.1332 28.9335C33.9498 28.9335 28.9332 33.9502 28.9332 40.1335C28.9332 43.0035 30.0298 45.6168 31.8032 47.6002C30.9398 47.9968 30.1465 48.3235 29.4465 48.5568C28.6532 48.8368 27.3465 48.8368 26.5532 48.5568C19.7865 46.2468 4.6665 36.6101 4.6665 20.2768C4.6665 13.0668 10.4765 7.2334 17.6398 7.2334C21.8632 7.2334 25.6432 9.28683 27.9998 12.4368C30.3565 9.28683 34.1365 7.2334 38.3598 7.2334C45.5232 7.2334 51.3332 13.0668 51.3332 20.2768Z" stroke="#544179" stroke-width="3" stroke-linecap="round" stroke-linejoin="round"/>
</svg>
