<svg width="56" height="56" viewBox="0 0 56 56" fill="none" xmlns="http://www.w3.org/2000/svg">
<path opacity="0.4" d="M7.81681 4.66699H28.5835C30.3102 4.66699 31.7335 6.09034 31.7335 7.81701V11.2703C31.7335 12.5303 30.9402 14.0937 30.1702 14.887L23.4036 20.8603C22.4703 21.6537 21.8402 23.217 21.8402 24.477V31.2437C21.8402 32.177 21.2102 33.437 20.4169 33.927L18.2235 35.3503C16.1702 36.6103 13.3468 35.187 13.3468 32.667V24.337C13.3468 23.2403 12.7169 21.817 12.0869 21.0237L6.11352 14.7237C5.32019 13.9303 4.69022 12.5303 4.69022 11.5736V7.957C4.66689 6.09033 6.09014 4.66699 7.81681 4.66699Z" stroke="#544179" stroke-width="3" stroke-miterlimit="10" stroke-linecap="round" stroke-linejoin="round"/>
<path d="M4.6665 27.9999V34.9999C4.6665 46.6666 9.33317 51.3333 20.9998 51.3333H34.9998C46.6665 51.3333 51.3332 46.6666 51.3332 34.9999V20.9999C51.3332 13.7199 49.5131 9.14657 45.2898 6.76657C44.0998 6.0899 41.7199 5.57656 39.5499 5.22656" stroke="#544179" stroke-width="3" stroke-linecap="round" stroke-linejoin="round"/>
<path opacity="0.4" d="M30.3335 30.333H42.0002" stroke="#544179" stroke-width="3" stroke-linecap="round" stroke-linejoin="round"/>
<path opacity="0.4" d="M25.6665 39.667H41.9998" stroke="#544179" stroke-width="3" stroke-linecap="round" stroke-linejoin="round"/>
</svg>
