<svg width="56" height="56" viewBox="0 0 56 56" fill="none" xmlns="http://www.w3.org/2000/svg">
<path d="M21.0002 44.3333C21.0002 46.0833 20.5102 47.74 19.6468 49.14C18.0368 51.8467 15.0735 53.6667 11.6668 53.6667C8.26016 53.6667 5.29683 51.8467 3.68683 49.14C2.8235 47.74 2.3335 46.0833 2.3335 44.3333C2.3335 39.1767 6.51016 35 11.6668 35C16.8235 35 21.0002 39.1767 21.0002 44.3333Z" stroke="#544179" stroke-width="3" stroke-miterlimit="10" stroke-linecap="round" stroke-linejoin="round"/>
<path d="M8.02686 44.3335L10.3369 46.6435L15.3069 42.0469" stroke="#544179" stroke-width="3" stroke-linecap="round" stroke-linejoin="round"/>
<path opacity="0.4" d="M41.4167 16.4503C40.8567 16.3569 40.2734 16.3336 39.6667 16.3336H16.3334C15.68 16.3336 15.05 16.3803 14.4434 16.4736C14.77 15.8203 15.2367 15.2137 15.7967 14.6537L23.38 7.04699C26.5767 3.87366 31.7567 3.87366 34.9534 7.04699L39.0367 11.1769C40.53 12.6469 41.3234 14.5136 41.4167 16.4503Z" stroke="#544179" stroke-width="3" stroke-linecap="round" stroke-linejoin="round"/>
<path d="M51.3332 27.9997V39.6663C51.3332 46.6663 46.6665 51.333 39.6665 51.333H17.8032C18.5265 50.7263 19.1565 49.9797 19.6465 49.1397C20.5098 47.7397 20.9998 46.083 20.9998 44.333C20.9998 39.1763 16.8232 34.9997 11.6665 34.9997C8.8665 34.9997 6.36984 36.2363 4.6665 38.173V27.9997C4.6665 21.653 8.49317 17.2197 14.4432 16.473C15.0498 16.3797 15.6798 16.333 16.3332 16.333H39.6665C40.2732 16.333 40.8565 16.3563 41.4165 16.4496C47.4365 17.1496 51.3332 21.6063 51.3332 27.9997Z" stroke="#544179" stroke-width="3" stroke-linecap="round" stroke-linejoin="round"/>
<path opacity="0.4" d="M51.3332 29.167H44.3332C41.7665 29.167 39.6665 31.267 39.6665 33.8337C39.6665 36.4003 41.7665 38.5003 44.3332 38.5003H51.3332" stroke="#544179" stroke-width="3" stroke-linecap="round" stroke-linejoin="round"/>
</svg>
