<svg width="56" height="56" viewBox="0 0 56 56" fill="none" xmlns="http://www.w3.org/2000/svg">
<path d="M51.3333 12.2503V21.3504C51.3333 24.827 49.56 27.4402 46.6667 28.4669C45.78 28.7702 44.8 28.9337 43.75 28.9337H37.6833L30.94 33.4369C29.9367 34.0902 28.5833 33.3671 28.5833 32.1771V28.9337C26.32 28.9337 24.4067 28.187 23.0767 26.857C21.7467 25.527 21 23.6137 21 21.3504V12.2503C21 11.2003 21.1633 10.2203 21.4667 9.33366C22.4933 6.44033 25.1067 4.66699 28.5833 4.66699H43.75C48.3 4.66699 51.3333 7.70033 51.3333 12.2503Z" stroke="#544179" stroke-width="3" stroke-miterlimit="10" stroke-linecap="round" stroke-linejoin="round"/>
<g opacity="0.4">
<path d="M46.6665 28.4662V32.4331C46.6665 39.7831 42.4665 42.9331 36.1665 42.9331H15.1665C8.8665 42.9331 4.6665 39.7831 4.6665 32.4331V19.833C4.6665 12.483 8.8665 9.33301 15.1665 9.33301H21.4665C21.1632 10.2197 20.9998 11.1997 20.9998 12.2497V21.3497C20.9998 23.6131 21.7465 25.5264 23.0765 26.8564C24.4065 28.1864 26.3198 28.9331 28.5832 28.9331V32.1764C28.5832 33.3664 29.9365 34.0896 30.9398 33.4362L37.6832 28.9331H43.7498C44.7998 28.9331 45.7798 28.7696 46.6665 28.4662Z" stroke="#544179" stroke-width="3" stroke-miterlimit="10" stroke-linecap="round" stroke-linejoin="round"/>
<path d="M17.2661 51.333H34.0661" stroke="#544179" stroke-width="3" stroke-miterlimit="10" stroke-linecap="round" stroke-linejoin="round"/>
<path d="M25.6665 42.9326V51.3326" stroke="#544179" stroke-width="3" stroke-miterlimit="10" stroke-linecap="round" stroke-linejoin="round"/>
</g>
<path d="M43.1562 16.9167H43.1772" stroke="#544179" stroke-width="3" stroke-linecap="round" stroke-linejoin="round"/>
<path d="M36.6235 16.9167H36.6445" stroke="#544179" stroke-width="3" stroke-linecap="round" stroke-linejoin="round"/>
<path d="M30.0893 16.9167H30.1103" stroke="#544179" stroke-width="3" stroke-linecap="round" stroke-linejoin="round"/>
</svg>
