<svg width="56" height="56" viewBox="0 0 56 56" fill="none" xmlns="http://www.w3.org/2000/svg">
<path opacity="0.4" d="M49.0234 26.1797V36.6563C49.0234 47.133 44.8466 51.3331 34.3466 51.3331H21.77C20.4167 51.3331 19.18 51.2631 18.0366 51.0998" stroke="#544179" stroke-width="3" stroke-linecap="round" stroke-linejoin="round"/>
<path opacity="0.4" d="M7.09326 36.2131V26.1797" stroke="#544179" stroke-width="3" stroke-linecap="round" stroke-linejoin="round"/>
<path d="M28.07 28.0003C32.34 28.0003 35.49 24.5238 35.07 20.2538L33.5065 4.66699H22.6099L21.0466 20.2538C20.6266 24.5238 23.8 28.0003 28.07 28.0003Z" stroke="#544179" stroke-width="3" stroke-linecap="round" stroke-linejoin="round"/>
<path d="M42.7703 28.0003C47.4836 28.0003 50.9369 24.1736 50.4702 19.4836L49.8168 13.0669C48.9768 7.00027 46.6435 4.66699 40.5302 4.66699H33.4136L35.0469 21.0237C35.4669 24.8737 38.9203 28.0003 42.7703 28.0003Z" stroke="#544179" stroke-width="3" stroke-linecap="round" stroke-linejoin="round"/>
<path d="M13.2302 28.0003C17.0802 28.0003 20.5568 24.8737 20.9301 21.0237L21.4435 15.8671L22.5635 4.66699H15.4469C9.33353 4.66699 7.00024 7.00027 6.16024 13.0669L5.50684 19.4836C5.04018 24.1736 8.51684 28.0003 13.2302 28.0003Z" stroke="#544179" stroke-width="3" stroke-linecap="round" stroke-linejoin="round"/>
<path d="M21.0002 44.3333C21.0002 46.0833 20.5101 47.7401 19.6468 49.1401C19.2035 49.8868 18.6668 50.5634 18.0368 51.1001C17.9668 51.1934 17.8968 51.2633 17.8035 51.3333C16.1702 52.8033 14.0235 53.6667 11.6668 53.6667C8.82016 53.6667 6.27676 52.3833 4.59676 50.3766C4.55009 50.3066 4.48022 50.26 4.43355 50.19C4.15355 49.8634 3.89687 49.5135 3.68687 49.1401C2.82354 47.7401 2.3335 46.0833 2.3335 44.3333C2.3335 41.3933 3.68683 38.7567 5.8335 37.0533C6.23016 36.7267 6.65011 36.4467 7.09344 36.2134C8.44678 35.4434 10.0102 35 11.6668 35C14.0002 35 16.1001 35.8399 17.7334 37.2633C18.0134 37.4733 18.2701 37.7301 18.5035 37.9867C20.0435 39.6667 21.0002 41.8833 21.0002 44.3333Z" stroke="#544179" stroke-width="3" stroke-miterlimit="10" stroke-linecap="round" stroke-linejoin="round"/>
<g opacity="0.4">
<path d="M15.1432 44.2861H8.18994" stroke="#544179" stroke-width="3" stroke-miterlimit="10" stroke-linecap="round" stroke-linejoin="round"/>
<path d="M11.667 40.8799V47.8565" stroke="#544179" stroke-width="3" stroke-miterlimit="10" stroke-linecap="round" stroke-linejoin="round"/>
</g>
</svg>
