<svg width="56" height="56" viewBox="0 0 56 56" fill="none" xmlns="http://www.w3.org/2000/svg">
<path d="M24.4998 46.4337V9.56699C24.4998 6.06699 23.0065 4.66699 19.2965 4.66699H9.86984C6.15984 4.66699 4.6665 6.06699 4.6665 9.56699V46.4337C4.6665 49.9337 6.15984 51.3337 9.86984 51.3337H19.2965C23.0065 51.3337 24.4998 49.9337 24.4998 46.4337Z" stroke="#544179" stroke-width="3" stroke-linecap="round" stroke-linejoin="round"/>
<path d="M51.3333 25.4337V9.56699C51.3333 6.06699 49.84 4.66699 46.13 4.66699H36.7033C32.9933 4.66699 31.5 6.06699 31.5 9.56699V25.4337C31.5 28.9337 32.9933 30.3337 36.7033 30.3337H46.13C49.84 30.3337 51.3333 28.9337 51.3333 25.4337Z" stroke="#544179" stroke-width="3" stroke-linecap="round" stroke-linejoin="round"/>
<path opacity="0.4" d="M51.3333 46.433V42.233C51.3333 38.733 49.84 37.333 46.13 37.333H36.7033C32.9933 37.333 31.5 38.733 31.5 42.233V46.433C31.5 49.933 32.9933 51.333 36.7033 51.333H46.13C49.84 51.333 51.3333 49.933 51.3333 46.433Z" stroke="#544179" stroke-width="3" stroke-linecap="round" stroke-linejoin="round"/>
</svg>
