<svg width="56" height="56" viewBox="0 0 56 56" fill="none" xmlns="http://www.w3.org/2000/svg">
<path d="M20.9998 51.3337H34.9998C46.6665 51.3337 51.3332 46.667 51.3332 35.0003V21.0003C51.3332 9.33366 46.6665 4.66699 34.9998 4.66699H20.9998C9.33317 4.66699 4.6665 9.33366 4.6665 21.0003V35.0003C4.6665 46.667 9.33317 51.3337 20.9998 51.3337Z" stroke="#544179" stroke-width="3" stroke-linecap="round" stroke-linejoin="round"/>
<g opacity="0.4">
<path d="M36.3306 43.1654V34.0654" stroke="#544179" stroke-width="3" stroke-miterlimit="10" stroke-linecap="round" stroke-linejoin="round"/>
<path d="M36.3306 17.383V12.833" stroke="#544179" stroke-width="3" stroke-miterlimit="10" stroke-linecap="round" stroke-linejoin="round"/>
<path d="M36.3294 29.5171C39.6799 29.5171 42.396 26.801 42.396 23.4505C42.396 20.0999 39.6799 17.3838 36.3294 17.3838C32.9788 17.3838 30.2627 20.0999 30.2627 23.4505C30.2627 26.801 32.9788 29.5171 36.3294 29.5171Z" stroke="#544179" stroke-width="3" stroke-miterlimit="10" stroke-linecap="round" stroke-linejoin="round"/>
<path d="M19.6694 43.1662V38.6162" stroke="#544179" stroke-width="3" stroke-miterlimit="10" stroke-linecap="round" stroke-linejoin="round"/>
<path d="M19.6694 21.933V12.833" stroke="#544179" stroke-width="3" stroke-miterlimit="10" stroke-linecap="round" stroke-linejoin="round"/>
<path d="M19.6702 38.6158C23.0207 38.6158 25.7368 35.8996 25.7368 32.5491C25.7368 29.1986 23.0207 26.4824 19.6702 26.4824C16.3197 26.4824 13.6035 29.1986 13.6035 32.5491C13.6035 35.8996 16.3197 38.6158 19.6702 38.6158Z" stroke="#544179" stroke-width="3" stroke-miterlimit="10" stroke-linecap="round" stroke-linejoin="round"/>
</g>
</svg>
