<svg width="56" height="56" viewBox="0 0 56 56" fill="none" xmlns="http://www.w3.org/2000/svg">
<path opacity="0.4" d="M14 14.583V19.2497" stroke="#544179" stroke-width="3" stroke-linecap="round" stroke-linejoin="round"/>
<path d="M51.3332 28.0003V21.0003C51.3332 9.33366 46.6665 4.66699 34.9998 4.66699H20.9998C9.33317 4.66699 4.6665 9.33366 4.6665 21.0003V35.0003C4.6665 46.667 9.33317 51.3337 20.9998 51.3337H27.9998" stroke="#544179" stroke-width="3" stroke-linecap="round" stroke-linejoin="round"/>
<path opacity="0.4" d="M23.3335 14.583V19.2497" stroke="#544179" stroke-width="3" stroke-linecap="round" stroke-linejoin="round"/>
<path opacity="0.4" d="M14 37.333V41.9997" stroke="#544179" stroke-width="3" stroke-linecap="round" stroke-linejoin="round"/>
<path opacity="0.4" d="M23.3335 37.333V41.9997" stroke="#544179" stroke-width="3" stroke-linecap="round" stroke-linejoin="round"/>
<path opacity="0.4" d="M32.6665 16.917H41.9998" stroke="#544179" stroke-width="3" stroke-linecap="round" stroke-linejoin="round"/>
<path d="M4.6665 28H51.3332" stroke="#544179" stroke-width="3" stroke-linecap="round" stroke-linejoin="round"/>
<path d="M50.3069 47.4363C49.0002 49.6997 46.5502 51.2163 43.7502 51.2163C39.5735 51.2163 37.0068 47.0163 37.0068 47.0163M37.1702 39.8763C38.4769 37.5897 40.9269 36.073 43.7502 36.073C48.8135 36.073 51.3335 40.273 51.3335 40.273M51.3335 35.583V40.2497H46.6669M41.6735 46.993H37.0068V51.333" stroke="#544179" stroke-width="3" stroke-linecap="round" stroke-linejoin="round"/>
</svg>
