<svg width="56" height="56" viewBox="0 0 56 56" fill="none" xmlns="http://www.w3.org/2000/svg">
<path opacity="0.4" d="M44.6598 45.4997C48.7898 41.2997 51.3332 35.513 51.3332 29.1663C51.3332 16.2863 40.8798 5.83301 27.9998 5.83301C15.1198 5.83301 4.6665 16.2863 4.6665 29.1663C4.6665 35.513 7.1865 41.253 11.2932 45.4763" stroke="#544179" stroke-width="3" stroke-miterlimit="10" stroke-linecap="round" stroke-linejoin="round"/>
<path d="M28 50.1669C32.3556 50.1669 35.8866 46.6359 35.8866 42.2802C35.8866 37.9245 32.3556 34.3936 28 34.3936C23.6443 34.3936 20.1133 37.9245 20.1133 42.2802C20.1133 46.6359 23.6443 50.1669 28 50.1669Z" stroke="#544179" stroke-width="3" stroke-miterlimit="10" stroke-linecap="round" stroke-linejoin="round"/>
<path d="M35.5835 28H37.3335C39.2468 28 40.8335 26.4367 40.8335 24.5C40.8335 22.5867 39.2468 21 37.3335 21C35.4202 21 33.8335 22.5633 33.8335 24.5V26.25C33.8335 27.2067 34.6268 28 35.5835 28Z" stroke="#544179" stroke-width="3" stroke-miterlimit="10" stroke-linecap="round" stroke-linejoin="round"/>
</svg>
