<svg width="986" height="852" viewBox="0 0 986 852" fill="none" xmlns="http://www.w3.org/2000/svg">
<path d="M0.5 51.2C0.5 42.2309 0.500389 35.5342 0.934313 30.2232C1.36776 24.918 2.2313 21.0397 3.93329 17.6993C6.95331 11.7722 11.7722 6.95331 17.6993 3.93329C21.0397 2.2313 24.918 1.36776 30.2232 0.934313C35.5342 0.500389 42.2309 0.5 51.2 0.5H934.8C943.769 0.5 950.466 0.500389 955.777 0.934313C961.082 1.36776 964.96 2.2313 968.301 3.9333C974.228 6.95331 979.047 11.7722 982.067 17.6993C983.769 21.0397 984.632 24.918 985.066 30.2232C985.5 35.5342 985.5 42.2309 985.5 51.2V851.5H0.5V51.2Z" stroke="url(#paint0_linear_761_36)"/>
<defs>
<linearGradient id="paint0_linear_761_36" x1="493" y1="0" x2="493" y2="852" gradientUnits="userSpaceOnUse">
<stop stop-color="#36E6CC"/>
<stop offset="0.693911" stop-color="#C32BF8"/>
<stop offset="1" stop-opacity="0"/>
</linearGradient>
</defs>
</svg>
