<svg width="376" height="402" viewBox="0 0 376 402" fill="none" xmlns="http://www.w3.org/2000/svg">
<path fill-rule="evenodd" clip-rule="evenodd" d="M0 402H1V16C1 7.71573 7.71573 1 16 1H360C368.284 1 375 7.71573 375 16V402H376V25.6C376 21.6138 376 18.5142 375.846 16C375.655 12.8623 375.224 10.6362 374.256 8.73615C372.722 5.72556 370.274 3.27787 367.264 1.7439C365.364 0.775765 363.138 0.345096 360 0.153514C357.486 0 354.386 0 350.4 0H25.6C21.6138 0 18.5142 0 16 0.153514C12.8623 0.345095 10.6362 0.775764 8.73615 1.7439C5.72556 3.27787 3.27787 5.72556 1.7439 8.73615C0.775764 10.6362 0.345095 12.8623 0.153514 16C0 18.5142 0 21.6138 0 25.6V402Z" fill="url(#paint0_linear_1723_104)" fill-opacity="0.16"/>
<defs>
<linearGradient id="paint0_linear_1723_104" x1="188" y1="0" x2="188" y2="402" gradientUnits="userSpaceOnUse">
<stop stop-color="white"/>
<stop offset="1" stop-color="white" stop-opacity="0"/>
</linearGradient>
</defs>
</svg>
