<svg width="64" height="64" viewBox="0 0 64 64" fill="none" xmlns="http://www.w3.org/2000/svg">
<path opacity="0.4" d="M48 50.2936H45.9733C43.84 50.2936 41.8133 51.1203 40.32 52.6136L35.76 57.1203C33.68 59.1736 30.2933 59.1736 28.2133 57.1203L23.6533 52.6136C22.16 51.1203 20.1067 50.2936 18 50.2936H16C11.5733 50.2936 8 46.747 8 42.3737V13.2803C8 8.90694 11.5733 5.36035 16 5.36035H48C52.4267 5.36035 56 8.90694 56 13.2803V42.3737C56 46.7204 52.4267 50.2936 48 50.2936Z" fill="#B594F5"/>
<path d="M27.6801 38.6935H20.5334C19.3601 38.6935 18.2668 38.1335 17.5734 37.1735C16.9068 36.2668 16.7468 35.1469 17.0668 34.0802C18.0001 31.2269 20.2934 29.6801 22.3201 28.2935C24.4534 26.8535 25.6534 25.9469 25.6534 24.4002C25.6534 23.0136 24.5334 21.8936 23.1468 21.8936C21.7601 21.8936 20.6401 23.0136 20.6401 24.4002C20.6401 25.4936 19.7335 26.4002 18.6401 26.4002C17.5468 26.4002 16.6401 25.4936 16.6401 24.4002C16.6401 20.8269 19.5468 17.8936 23.1468 17.8936C26.7468 17.8936 29.6534 20.8002 29.6534 24.4002C29.6534 28.1602 26.8268 30.0801 24.5601 31.6268C23.1468 32.5868 21.8134 33.4935 21.1468 34.6935H27.6534C28.7468 34.6935 29.6534 35.6002 29.6534 36.6935C29.6534 37.7869 28.7735 38.6935 27.6801 38.6935Z" fill="#B594F5"/>
<path d="M42.7733 38.6938C41.68 38.6938 40.7733 37.7872 40.7733 36.6938V34.8538H35.5467C35.5467 34.8538 35.5467 34.8538 35.52 34.8538C34.2134 34.8538 33.0133 34.1605 32.3467 33.0405C31.68 31.8939 31.68 30.4805 32.3467 29.3605C34.16 26.2405 36.2667 22.6937 38.1867 19.6004C39.04 18.2404 40.6667 17.6272 42.1867 18.0539C43.7067 18.5072 44.7733 19.8938 44.7467 21.4938V30.8805H45.3333C46.4267 30.8805 47.3333 31.7872 47.3333 32.8805C47.3333 33.9739 46.4267 34.8805 45.3333 34.8805H44.7733V36.7205C44.7733 37.8139 43.8933 38.6938 42.7733 38.6938ZM40.7733 23.0405C39.2 25.6005 37.5733 28.3472 36.1066 30.8538H40.7733V23.0405Z" fill="#B594F5"/>
</svg>
