<svg width="18" height="18" viewBox="0 0 18 18" fill="none" xmlns="http://www.w3.org/2000/svg">
<g clip-path="url(#clip0_4945_80545)">
<path d="M17 0H1C0.45 0 0 0.45 0 1V17C0 17.55 0.45 18 1 18H17C17.55 18 18 17.55 18 17V1C18 0.45 17.55 0 17 0ZM12.68 7.73L8.03 12.03L5.35 9.76C4.93 9.4 4.88 8.77 5.24 8.35C5.6 7.93 6.23 7.88 6.65 8.24L7.97 9.37L11.32 6.27C11.72 5.89 12.36 5.92 12.73 6.32C13.11 6.73 13.08 7.36 12.68 7.73Z" fill="white"/>
</g>
<defs>
<clipPath id="clip0_4945_80545">
<rect width="18" height="18" rx="9" fill="white"/>
</clipPath>
</defs>
</svg>
