<svg width="64" height="64" viewBox="0 0 64 64" fill="none" xmlns="http://www.w3.org/2000/svg">
<path opacity="0.4" d="M54.6665 27.173H46.9598C40.6398 27.173 35.4932 22.0263 35.4932 15.7063V7.99967C35.4932 6.53301 34.2932 5.33301 32.8265 5.33301H21.5198C13.3065 5.33301 6.6665 10.6663 6.6665 20.1863V43.813C6.6665 53.333 13.3065 58.6663 21.5198 58.6663H42.4798C50.6932 58.6663 57.3332 53.333 57.3332 43.813V29.8397C57.3332 28.373 56.1332 27.173 54.6665 27.173Z" fill="#B594F5"/>
<path d="M42.1332 5.89364C41.0398 4.80031 39.1465 5.54697 39.1465 7.06697V16.3736C39.1465 20.267 42.4532 23.4936 46.4798 23.4936C49.0132 23.5203 52.5332 23.5203 55.5465 23.5203C57.0665 23.5203 57.8665 21.7336 56.7998 20.667C52.9598 16.8003 46.0798 9.84031 42.1332 5.89364Z" fill="#B594F5"/>
<path d="M36 36.667H20C18.9067 36.667 18 35.7603 18 34.667C18 33.5737 18.9067 32.667 20 32.667H36C37.0933 32.667 38 33.5737 38 34.667C38 35.7603 37.0933 36.667 36 36.667Z" fill="#B594F5"/>
<path d="M30.6667 47.333H20C18.9067 47.333 18 46.4263 18 45.333C18 44.2397 18.9067 43.333 20 43.333H30.6667C31.76 43.333 32.6667 44.2397 32.6667 45.333C32.6667 46.4263 31.76 47.333 30.6667 47.333Z" fill="#B594F5"/>
</svg>
