<svg width="64" height="64" viewBox="0 0 64 64" fill="none" xmlns="http://www.w3.org/2000/svg">
<path opacity="0.4" d="M45.3335 49.1471H34.6668L22.8001 57.0405C21.0401 58.2139 18.6668 56.9605 18.6668 54.8271V49.1471C10.6668 49.1471 5.3335 43.8138 5.3335 35.8138V19.8138C5.3335 11.8138 10.6668 6.48047 18.6668 6.48047H45.3335C53.3335 6.48047 58.6668 11.8138 58.6668 19.8138V35.8138C58.6668 43.8138 53.3335 49.1471 45.3335 49.1471Z" fill="#B594F5"/>
<path d="M31.9998 32.293C30.9065 32.293 29.9998 31.3863 29.9998 30.293V29.7331C29.9998 26.6397 32.2665 25.1197 33.1198 24.533C34.1065 23.8664 34.4264 23.4131 34.4264 22.7197C34.4264 21.3864 33.3332 20.293 31.9998 20.293C30.6665 20.293 29.5732 21.3864 29.5732 22.7197C29.5732 23.8131 28.6666 24.7197 27.5732 24.7197C26.4799 24.7197 25.5732 23.8131 25.5732 22.7197C25.5732 19.1731 28.4532 16.293 31.9998 16.293C35.5465 16.293 38.4264 19.1731 38.4264 22.7197C38.4264 25.7597 36.1865 27.2797 35.3599 27.8397C34.3199 28.533 33.9998 28.9864 33.9998 29.7331V30.293C33.9998 31.413 33.0932 32.293 31.9998 32.293Z" fill="#B594F5"/>
<path d="M32 38.9336C30.88 38.9336 30 38.0269 30 36.9336C30 35.8403 30.9067 34.9336 32 34.9336C33.0933 34.9336 34 35.8403 34 36.9336C34 38.0269 33.12 38.9336 32 38.9336Z" fill="#B594F5"/>
</svg>
