<svg width="21" height="20" viewBox="0 0 21 20" fill="none" xmlns="http://www.w3.org/2000/svg">
<path d="M19.9979 2.91052L18.2221 0.7C18.0517 0.481681 17.8336 0.305144 17.5846 0.183838C17.3356 0.0625318 17.0622 -0.000343723 16.7853 1.41323e-06H4.54636C4.28779 4.31169e-05 4.03212 0.0545207 3.79599 0.15989C3.55986 0.265259 3.34856 0.41916 3.17583 0.611579L1.17163 2.8221C0.412322 3.66481 -0.00542095 4.7604 5.3125e-05 5.89472V8.84208C5.3125e-05 9.03751 0.0776842 9.22493 0.215869 9.36311C0.354053 9.50129 0.541471 9.57892 0.736893 9.57892H1.84215V17.6842C1.84215 18.2704 2.07505 18.8327 2.4896 19.2472C2.90415 19.6618 3.46641 19.8947 4.05267 19.8947H17.3158C17.9021 19.8947 18.4643 19.6618 18.8789 19.2472C19.2934 18.8327 19.5263 18.2704 19.5263 17.6842V9.57892H20.2632C20.4586 9.57892 20.646 9.50129 20.7842 9.36311C20.9224 9.22493 21 9.03751 21 8.84208V5.76578C21 4.72782 20.6466 3.7208 19.9979 2.91052ZM13.219 3.93841C13.4858 4.38389 13.6283 4.8928 13.6316 5.41209V8.10524H7.73688V5.42683C7.74014 4.90754 7.88264 4.39863 8.14951 3.95315L9.62319 1.48842H11.7379L13.219 3.93841ZM1.47373 5.89472C1.47404 5.12993 1.75753 4.39234 2.26952 3.8242L4.27004 1.61368C4.3049 1.57505 4.34755 1.54425 4.39518 1.52329C4.4428 1.50234 4.49433 1.49171 4.54636 1.4921H7.91003L6.88583 3.19789C6.4807 3.87097 6.26554 4.64124 6.2632 5.42683V8.10524H1.47373V5.89472ZM8.1053 18.421V15.1052C8.1053 14.7144 8.26056 14.3395 8.53693 14.0632C8.8133 13.7868 9.18813 13.6315 9.57898 13.6315H11.7895C12.1803 13.6315 12.5552 13.7868 12.8315 14.0632C13.1079 14.3395 13.2632 14.7144 13.2632 15.1052V18.421H8.1053ZM18.0526 17.6842C18.0526 17.8796 17.975 18.067 17.8368 18.2052C17.6986 18.3434 17.5112 18.421 17.3158 18.421H14.7369V15.1052C14.7369 14.3235 14.4263 13.5739 13.8736 13.0211C13.3209 12.4684 12.5712 12.1579 11.7895 12.1579H9.57898C8.79729 12.1579 8.04762 12.4684 7.49488 13.0211C6.94214 13.5739 6.63162 14.3235 6.63162 15.1052V18.421H4.05267C3.85725 18.421 3.66983 18.3434 3.53165 18.2052C3.39347 18.067 3.31583 17.8796 3.31583 17.6842V9.57892H18.0526V17.6842ZM19.5263 8.10524H15.1053V5.42683C15.1063 4.63498 14.891 3.8579 14.4826 3.17947L13.4584 1.47368H16.7742C16.8296 1.47394 16.8841 1.48666 16.9339 1.51089C16.9836 1.53513 17.0273 1.57026 17.0616 1.61368L18.8374 3.8242C19.2818 4.37386 19.5249 5.05895 19.5263 5.76578V8.10524Z" fill="white"/>
</svg>
