<svg width="288" height="292" viewBox="0 0 288 292" fill="none" xmlns="http://www.w3.org/2000/svg">
<g id="author_level_13-s-9d6aaff75601aa3c1631680063e1fdb25733511104c44d211a27806d7da98d2f" clip-path="url(#clip0_1243_387)" filter="url(#filter0_dddddd_1243_387)">
<path id="Vector" d="M159 151.499C159 152.599 158.251 153.999 157.335 154.61L145.665 162.39C144.749 163 143.251 163 142.335 162.39L130.665 154.61C129.749 153.999 129 152.6 129 151.499V140.501C129 139.401 129.749 138.001 130.665 137.39L142.335 129.61C143.251 129 144.749 129 145.665 129.61L157.335 137.39C158.251 138.001 159 139.4 159 140.501V151.499Z" fill="#C94E4B"/>
<path id="Vector_2" d="M149.089 147.283C146.668 144.321 141.803 144.163 139.154 146.891C137.765 148.322 137.123 150.126 138.327 151.879C139.273 153.257 140.407 153.733 142.018 153.327C142.521 153.201 143.038 153.056 143.615 153.056H143.897C144.451 153.114 144.943 153.323 145.405 153.513C145.707 153.637 146.016 153.763 146.34 153.818C147.049 153.947 147.81 153.56 148.395 153.191C150.619 151.786 150.699 149.252 149.089 147.283ZM140.331 142.224C140.772 142.438 141.264 142.565 141.754 142.584C143.913 142.584 144.493 135.748 141.948 136.177C140.705 136.386 139.808 137.861 139.286 138.881C138.583 140.258 138.805 141.485 140.331 142.224ZM139.714 144.419C139.6 143.171 137.509 140.366 136.03 141.403C134.522 142.546 134.702 145.729 136.364 146.709C137.539 147.401 139.595 145.573 139.714 144.419C139.682 144.077 139.629 145.235 139.714 144.419ZM145.688 142.764C146.893 142.943 148.878 142.229 148.933 140.775C148.933 139.401 147.316 135.841 145.509 136.506C143.775 137.062 143.81 142.486 145.688 142.764ZM152.988 143.536C152.921 142.755 152.574 142.028 151.999 141.494C151.202 140.82 150.1 141.776 149.561 142.335C148.535 143.397 147.718 144.619 148.856 145.877C149.41 146.49 150.511 147.37 151.412 147.008C152.598 146.533 153.086 144.668 152.988 143.536Z" fill="white"/>
<path id="Vector_3" d="M144 130.152C144.429 130.152 144.834 130.258 145.11 130.442L156.78 138.222C157.419 138.648 158 139.734 158 140.501V151.499C158 152.266 157.419 153.352 156.781 153.778L145.111 161.558C144.835 161.742 144.43 161.848 144.001 161.848C143.572 161.848 143.167 161.742 142.891 161.558L131.221 153.778C130.581 153.352 130 152.266 130 151.499V140.501C130 139.734 130.581 138.648 131.219 138.222L142.889 130.442C143.166 130.258 143.571 130.152 144 130.152ZM144 129.152C143.397 129.152 142.793 129.305 142.335 129.61L130.665 137.39C129.749 138.001 129 139.4 129 140.501V151.499C129 152.599 129.749 153.999 130.665 154.61L142.335 162.39C142.793 162.695 143.396 162.848 144 162.848C144.604 162.848 145.207 162.695 145.665 162.39L157.335 154.61C158.251 153.999 159 152.6 159 151.499V140.501C159 139.401 158.251 138.001 157.335 137.39L145.665 129.61C145.207 129.305 144.603 129.152 144 129.152Z" fill="#C94E4B"/>
<g id="Group">
<path id="Vector_4" d="M157.767 156.061C158.159 155.564 158.385 154.936 158.385 154.253C158.385 152.252 156.746 150.854 154.399 150.854C153.187 150.854 152.055 151.297 151.318 152.029C150.902 151.307 150.157 150.962 149.407 150.962C148.905 150.962 148.412 151.141 147.899 151.51L146.153 152.786C145.553 153.231 145.252 153.771 145.252 154.397C145.252 155.449 146.065 156.272 147.104 156.272C147.283 156.272 147.464 156.245 147.639 156.194V159.566C147.639 161.028 148.679 161.693 149.646 161.693C150.282 161.693 150.943 161.398 151.326 160.786C152.128 161.442 153.167 161.801 154.386 161.801C156.474 161.801 158.588 160.53 158.588 158.102C158.589 157.324 158.282 156.604 157.767 156.061Z" fill="#C94E4B"/>
<g id="Group_2">
<path id="Vector_5" d="M148.483 152.323C148.867 152.047 149.167 151.963 149.407 151.963C149.839 151.963 150.654 152.143 150.654 153.378V159.567C150.654 160.538 149.97 160.694 149.646 160.694C149.323 160.694 148.639 160.538 148.639 159.567V154.338L147.727 155.046C147.511 155.214 147.284 155.274 147.104 155.274C146.624 155.274 146.252 154.902 146.252 154.399C146.252 154.135 146.371 153.872 146.743 153.596L148.483 152.323ZM153.127 156.173C153.127 155.921 153.247 155.393 154.015 155.393C155.023 155.393 155.334 154.925 155.334 154.434C155.334 153.822 154.818 153.498 154.267 153.498C153.847 153.498 153.559 153.666 153.259 154.026C153.079 154.242 152.852 154.422 152.48 154.422C151.989 154.422 151.592 154.063 151.592 153.571C151.592 153.295 151.689 153.079 151.941 152.803C152.492 152.203 153.427 151.855 154.399 151.855C155.898 151.855 157.385 152.623 157.385 154.254C157.385 155.189 156.785 155.885 155.958 156.101V156.137C156.929 156.365 157.589 157.157 157.589 158.104C157.589 159.963 155.945 160.803 154.387 160.803C153.308 160.803 152.396 160.491 151.748 159.855C151.473 159.579 151.352 159.315 151.352 159.016C151.352 158.5 151.772 158.117 152.263 158.117C152.575 158.117 152.79 158.261 153.151 158.62C153.499 158.968 153.846 159.112 154.291 159.112C154.866 159.112 155.526 158.824 155.526 158.033C155.526 157.433 155.034 156.966 154.014 156.966C153.247 156.964 153.127 156.436 153.127 156.173Z" fill="white"/>
</g>
</g>
</g>
<defs>
<filter id="filter0_dddddd_1243_387" x="0.479996" y="0.479996" width="287.04" height="291.04" filterUnits="userSpaceOnUse" color-interpolation-filters="sRGB">
<feFlood flood-opacity="0" result="BackgroundImageFix"/>
<feColorMatrix in="SourceAlpha" type="matrix" values="0 0 0 0 0 0 0 0 0 0 0 0 0 0 0 0 0 0 127 0" result="hardAlpha"/>
<feOffset/>
<feGaussianBlur stdDeviation="1.53"/>
<feColorMatrix type="matrix" values="0 0 0 0 0.788235 0 0 0 0 0.305882 0 0 0 0 0.294118 0 0 0 1 0"/>
<feBlend mode="normal" in2="BackgroundImageFix" result="effect1_dropShadow_1243_387"/>
<feColorMatrix in="SourceAlpha" type="matrix" values="0 0 0 0 0 0 0 0 0 0 0 0 0 0 0 0 0 0 127 0" result="hardAlpha"/>
<feOffset/>
<feGaussianBlur stdDeviation="3.06"/>
<feColorMatrix type="matrix" values="0 0 0 0 0.788235 0 0 0 0 0.305882 0 0 0 0 0.294118 0 0 0 1 0"/>
<feBlend mode="normal" in2="effect1_dropShadow_1243_387" result="effect2_dropShadow_1243_387"/>
<feColorMatrix in="SourceAlpha" type="matrix" values="0 0 0 0 0 0 0 0 0 0 0 0 0 0 0 0 0 0 127 0" result="hardAlpha"/>
<feOffset/>
<feGaussianBlur stdDeviation="10.71"/>
<feColorMatrix type="matrix" values="0 0 0 0 0.788235 0 0 0 0 0.305882 0 0 0 0 0.294118 0 0 0 1 0"/>
<feBlend mode="normal" in2="effect2_dropShadow_1243_387" result="effect3_dropShadow_1243_387"/>
<feColorMatrix in="SourceAlpha" type="matrix" values="0 0 0 0 0 0 0 0 0 0 0 0 0 0 0 0 0 0 127 0" result="hardAlpha"/>
<feOffset/>
<feGaussianBlur stdDeviation="21.42"/>
<feColorMatrix type="matrix" values="0 0 0 0 0.788235 0 0 0 0 0.305882 0 0 0 0 0.294118 0 0 0 1 0"/>
<feBlend mode="normal" in2="effect3_dropShadow_1243_387" result="effect4_dropShadow_1243_387"/>
<feColorMatrix in="SourceAlpha" type="matrix" values="0 0 0 0 0 0 0 0 0 0 0 0 0 0 0 0 0 0 127 0" result="hardAlpha"/>
<feOffset/>
<feGaussianBlur stdDeviation="36.72"/>
<feColorMatrix type="matrix" values="0 0 0 0 0.788235 0 0 0 0 0.305882 0 0 0 0 0.294118 0 0 0 1 0"/>
<feBlend mode="normal" in2="effect4_dropShadow_1243_387" result="effect5_dropShadow_1243_387"/>
<feColorMatrix in="SourceAlpha" type="matrix" values="0 0 0 0 0 0 0 0 0 0 0 0 0 0 0 0 0 0 127 0" result="hardAlpha"/>
<feOffset/>
<feGaussianBlur stdDeviation="64.26"/>
<feColorMatrix type="matrix" values="0 0 0 0 0.788235 0 0 0 0 0.305882 0 0 0 0 0.294118 0 0 0 1 0"/>
<feBlend mode="normal" in2="effect5_dropShadow_1243_387" result="effect6_dropShadow_1243_387"/>
<feBlend mode="normal" in="SourceGraphic" in2="effect6_dropShadow_1243_387" result="shape"/>
</filter>
<clipPath id="clip0_1243_387">
<rect width="30" height="34" fill="white" transform="translate(129 129)"/>
</clipPath>
</defs>
</svg>
