<svg width="288" height="292" viewBox="0 0 288 292" fill="none" xmlns="http://www.w3.org/2000/svg">
<g id="was_top_monthly_author-s-d2866e865aab0be2c0d48681dc5dea0122a93859783d9e70316cfc32ed4abdb9" clip-path="url(#clip0_1243_395)" filter="url(#filter0_dddddd_1243_395)">
<g id="Group">
<path id="Vector" d="M159 151.3C159 152.4 158.3 153.8 157.3 154.4L145.6 162.2C144.7 162.8 143.2 162.8 142.3 162.2L130.7 154.5C129.8 153.9 129 152.5 129 151.4V140.4C129 139.3 129.7 137.9 130.7 137.3L142.4 129.5C143.3 128.9 144.8 128.9 145.7 129.5L157.4 137.3C158.3 137.9 159.1 139.3 159.1 140.4V151.3H159Z" fill="#8360A8"/>
<path id="Vector_2" d="M144 144.5C148.4 144.5 152 140.9 152 136.5C152 135.3 151.7 134.2 151.3 133.2L149.2 131.8C150.3 133 151 134.7 151 136.5C151 140.4 147.9 143.5 144 143.5C140.1 143.5 137 140.4 137 136.5C137 134.7 137.7 133 138.8 131.8L136.7 133.2C136.3 134.2 136 135.3 136 136.5C136 140.9 139.6 144.5 144 144.5Z" fill="white"/>
<g id="Group_2">
<path id="Vector_3" d="M144 156.3C143.3 156.3 142.7 156.2 142.2 156C141.8 155.8 141.4 155.5 141 155L140.7 154.9L138.3 156H138.2C138 156 137.8 155.9 137.7 155.7C137.6 155.5 137.5 155.2 137.6 155L140.1 148V145.4C140.1 140.2 142.6 135.3 144.2 135.3C145.8 135.3 148.3 140.2 148.3 145.4V148L150.8 155C150.9 155.2 150.8 155.5 150.7 155.7C150.6 155.9 150.4 156 150.2 156H150L147.6 155L147 155.1C146.7 155.6 146.3 156 145.8 156.1C145.3 156.2 144.7 156.3 144 156.3Z" fill="white"/>
<path id="Vector_4" d="M144 135.8C145 135.8 147.6 140.1 147.6 145.4C147.6 146.1 147.6 147.1 147.5 148.1L150 155.2C150 155.3 150 155.5 149.9 155.5L147.4 154.4L146.8 154.6C146.5 155.1 146.2 155.4 145.8 155.5C145.4 155.7 144.8 155.7 144.2 155.7C143.6 155.7 143 155.6 142.6 155.5C142.2 155.4 141.9 155 141.6 154.6L141 154.3L138.5 155.4C138 155.5 138 155.3 138 155.2L140.5 148.1V145.4C140.4 140.1 143 135.8 144 135.8ZM144 134.8C141.7 134.8 139.4 140.9 139.4 145.4V147.9L137 154.8C136.9 155.3 137 155.7 137.2 156C137.4 156.3 137.8 156.5 138.1 156.5H138.3L138.5 156.4L140.7 155.5C141.1 156 141.5 156.4 142 156.6C142.5 156.8 143.2 156.9 143.9 156.9C144.6 156.9 145.3 156.8 145.8 156.6C146.3 156.4 146.7 156.1 147.1 155.6L149.3 156.5L149.5 156.6H149.7C150.1 156.6 150.4 156.4 150.6 156.1C150.8 155.8 150.9 155.3 150.8 155L148.4 148.1V145.6C148.6 140.9 146.3 134.8 144 134.8Z" fill="#8360A8"/>
</g>
<path id="Vector_5" d="M144 146.3C144.828 146.3 145.5 145.628 145.5 144.8C145.5 143.972 144.828 143.3 144 143.3C143.172 143.3 142.5 143.972 142.5 144.8C142.5 145.628 143.172 146.3 144 146.3Z" fill="#8360A8"/>
<path id="Vector_6" d="M140 138.5C140.552 138.5 141 138.052 141 137.5C141 136.948 140.552 136.5 140 136.5C139.448 136.5 139 136.948 139 137.5C139 138.052 139.448 138.5 140 138.5Z" fill="white"/>
<path id="Vector_7" d="M142 134.5C142.552 134.5 143 134.052 143 133.5C143 132.948 142.552 132.5 142 132.5C141.448 132.5 141 132.948 141 133.5C141 134.052 141.448 134.5 142 134.5Z" fill="white"/>
<path id="Vector_8" d="M144 130C144.4 130 144.8 130.1 145.1 130.3L156.8 138.1C157.4 138.5 158 139.6 158 140.4V151.4C158 152.2 157.4 153.3 156.8 153.7L145.1 161.5C144.8 161.7 144.4 161.8 144 161.8C143.6 161.8 143.2 161.7 142.9 161.5L131.2 153.6C130.6 153.2 130 152.1 130 151.3V140.3C130 139.5 130.6 138.4 131.2 138L142.9 130.2C143.2 130.1 143.6 130 144 130ZM144 129C143.4 129 142.8 129.2 142.3 129.5L130.7 137.2C129.7 137.8 129 139.2 129 140.3V151.3C129 152.4 129.7 153.8 130.7 154.4L142.4 162.2C142.9 162.5 143.5 162.7 144.1 162.7C144.7 162.7 145.3 162.5 145.8 162.2L157.5 154.4C158.4 153.8 159.2 152.4 159.2 151.3V140.3C159.2 139.2 158.5 137.8 157.5 137.2L145.7 129.5C145.2 129.2 144.6 129 144 129Z" fill="#8360A8"/>
<path id="Vector_9" d="M157.2 161.8C157 161.8 156.6 161.8 156.2 161.4C156 161.2 155.8 160.9 155.8 160.3V159.4L155.3 160.6C155 161.3 154.5 161.7 153.9 161.7C153.3 161.7 152.8 161.3 152.5 160.6L152 159.6V160.4C152 161.4 151.3 161.8 150.7 161.8C150.1 161.8 149.4 161.4 149.4 160.4V155.2C149.4 154.1 150.2 153.6 150.9 153.6C151.6 153.6 152.2 154 152.5 154.9L153.9 158.1L155.3 154.9C155.7 154 156.2 153.6 156.9 153.6C157.7 153.6 158.4 154.1 158.4 155.2V160.4C158.5 161.4 157.8 161.8 157.2 161.8Z" fill="white"/>
<path id="Vector_10" d="M157 154.1C157.3 154.1 158 154.3 158 155.2V160.4C158 161.2 157.4 161.3 157.2 161.3C156.9 161.3 156.4 161.2 156.4 160.4V157.1L154.9 160.5C154.6 161.2 154.3 161.3 154 161.3C153.7 161.3 153.3 161.2 153.1 160.5L151.7 157.1V160.4C151.7 161.2 151.2 161.3 150.9 161.3C150.6 161.3 150.1 161.2 150.1 160.4V155.2C150.1 154.2 150.8 154.1 151.1 154.1C151.4 154.1 151.9 154.2 152.3 155.1L154.1 159.4L155.9 155.1C156.2 154.2 156.7 154.1 157 154.1ZM157 153.1C156.1 153.1 155.4 153.6 154.9 154.7L154 156.3L153 154.7C152.5 153.6 151.8 153.1 150.9 153.1C149.9 153.1 148.9 153.8 148.9 155.2V160.4C148.9 161.6 149.8 162.3 150.7 162.3C151.3 162.3 151.9 162 152.3 161.4C152.7 162 153.2 162.3 153.9 162.3C154.6 162.3 155.2 162 155.5 161.3C155.6 161.5 155.7 161.6 155.8 161.7C156.1 162 156.6 162.2 157.1 162.2C158 162.2 158.9 161.6 158.9 160.3V155.1C159 153.7 158 153.1 157 153.1Z" fill="#8360A8"/>
<path id="Vector_11" d="M145.5 163V158.3C145.5 157.5 144.8 156.8 144 156.8C143.2 156.8 142.5 157.5 142.5 158.3V163H145.5Z" fill="white"/>
</g>
</g>
<defs>
<filter id="filter0_dddddd_1243_395" x="0.479996" y="0.479996" width="287.04" height="291.04" filterUnits="userSpaceOnUse" color-interpolation-filters="sRGB">
<feFlood flood-opacity="0" result="BackgroundImageFix"/>
<feColorMatrix in="SourceAlpha" type="matrix" values="0 0 0 0 0 0 0 0 0 0 0 0 0 0 0 0 0 0 127 0" result="hardAlpha"/>
<feOffset/>
<feGaussianBlur stdDeviation="1.53"/>
<feColorMatrix type="matrix" values="0 0 0 0 0.513726 0 0 0 0 0.376471 0 0 0 0 0.658824 0 0 0 1 0"/>
<feBlend mode="normal" in2="BackgroundImageFix" result="effect1_dropShadow_1243_395"/>
<feColorMatrix in="SourceAlpha" type="matrix" values="0 0 0 0 0 0 0 0 0 0 0 0 0 0 0 0 0 0 127 0" result="hardAlpha"/>
<feOffset/>
<feGaussianBlur stdDeviation="3.06"/>
<feColorMatrix type="matrix" values="0 0 0 0 0.513726 0 0 0 0 0.376471 0 0 0 0 0.658824 0 0 0 1 0"/>
<feBlend mode="normal" in2="effect1_dropShadow_1243_395" result="effect2_dropShadow_1243_395"/>
<feColorMatrix in="SourceAlpha" type="matrix" values="0 0 0 0 0 0 0 0 0 0 0 0 0 0 0 0 0 0 127 0" result="hardAlpha"/>
<feOffset/>
<feGaussianBlur stdDeviation="10.71"/>
<feColorMatrix type="matrix" values="0 0 0 0 0.513726 0 0 0 0 0.376471 0 0 0 0 0.658824 0 0 0 1 0"/>
<feBlend mode="normal" in2="effect2_dropShadow_1243_395" result="effect3_dropShadow_1243_395"/>
<feColorMatrix in="SourceAlpha" type="matrix" values="0 0 0 0 0 0 0 0 0 0 0 0 0 0 0 0 0 0 127 0" result="hardAlpha"/>
<feOffset/>
<feGaussianBlur stdDeviation="21.42"/>
<feColorMatrix type="matrix" values="0 0 0 0 0.513726 0 0 0 0 0.376471 0 0 0 0 0.658824 0 0 0 1 0"/>
<feBlend mode="normal" in2="effect3_dropShadow_1243_395" result="effect4_dropShadow_1243_395"/>
<feColorMatrix in="SourceAlpha" type="matrix" values="0 0 0 0 0 0 0 0 0 0 0 0 0 0 0 0 0 0 127 0" result="hardAlpha"/>
<feOffset/>
<feGaussianBlur stdDeviation="36.72"/>
<feColorMatrix type="matrix" values="0 0 0 0 0.513726 0 0 0 0 0.376471 0 0 0 0 0.658824 0 0 0 1 0"/>
<feBlend mode="normal" in2="effect4_dropShadow_1243_395" result="effect5_dropShadow_1243_395"/>
<feColorMatrix in="SourceAlpha" type="matrix" values="0 0 0 0 0 0 0 0 0 0 0 0 0 0 0 0 0 0 127 0" result="hardAlpha"/>
<feOffset/>
<feGaussianBlur stdDeviation="64.26"/>
<feColorMatrix type="matrix" values="0 0 0 0 0.513726 0 0 0 0 0.376471 0 0 0 0 0.658824 0 0 0 1 0"/>
<feBlend mode="normal" in2="effect5_dropShadow_1243_395" result="effect6_dropShadow_1243_395"/>
<feBlend mode="normal" in="SourceGraphic" in2="effect6_dropShadow_1243_395" result="shape"/>
</filter>
<clipPath id="clip0_1243_395">
<rect width="30" height="34" fill="white" transform="translate(129 129)"/>
</clipPath>
</defs>
</svg>
