<svg width="288" height="292" viewBox="0 0 288 292" fill="none" xmlns="http://www.w3.org/2000/svg">
<g id="affiliate_level_5-s-b5d9975cfb68f074cf3178959d050438651c839001f6ab8a0353d7e167a7aa41" clip-path="url(#clip0_1243_422)" filter="url(#filter0_dddddd_1243_422)">
<path id="Vector" d="M159 151.499C159 152.599 158.251 153.999 157.335 154.61L145.665 162.39C144.749 163 143.251 163 142.335 162.39L130.665 154.61C129.749 153.999 129 152.6 129 151.499V140.501C129 139.401 129.749 138.001 130.665 137.39L142.335 129.61C143.251 129 144.749 129 145.665 129.61L157.335 137.39C158.251 138.001 159 139.4 159 140.501V151.499Z" fill="#F95858"/>
<path id="Vector_2" d="M144.13 150.368C143.425 151.504 141.945 151.85 140.808 151.144C139.672 150.438 139.326 148.958 140.032 147.822L141.389 145.657C141.84 144.93 142.807 144.704 143.533 145.156C143.999 145.445 144.618 145.3 144.908 144.834C145.197 144.369 145.052 143.749 144.587 143.46C142.928 142.43 140.723 142.946 139.694 144.604L138.336 146.769C137.052 148.837 137.687 151.555 139.755 152.84C140.78 153.476 141.981 153.641 143.083 153.383C144.186 153.126 145.174 152.449 145.826 151.421C146.115 150.955 145.971 150.336 145.505 150.046C145.039 149.757 144.42 149.902 144.13 150.368ZM148.249 139.164C146.181 137.879 143.463 138.515 142.178 140.583C141.889 141.049 142.033 141.668 142.499 141.957C142.965 142.246 143.584 142.102 143.874 141.636C144.579 140.499 146.059 140.154 147.196 140.859C148.332 141.565 148.678 143.045 147.972 144.182L146.615 146.347C146.167 147.088 145.201 147.314 144.47 146.848C144.005 146.559 143.386 146.703 143.096 147.169C142.807 147.635 142.952 148.254 143.417 148.543C144.256 149.064 145.209 149.192 146.1 148.983C146.991 148.775 147.79 148.238 148.31 147.4L149.653 145.238C150.952 143.167 150.317 140.449 148.249 139.164Z" fill="white"/>
<path id="Vector_3" d="M144 130.152C144.429 130.152 144.834 130.258 145.11 130.442L156.78 138.222C157.419 138.648 158 139.734 158 140.501V151.499C158 152.266 157.419 153.352 156.781 153.778L145.111 161.558C144.835 161.742 144.43 161.848 144.001 161.848C143.572 161.848 143.167 161.742 142.891 161.558L131.221 153.778C130.581 153.352 130 152.266 130 151.499V140.501C130 139.734 130.581 138.648 131.219 138.222L142.889 130.442C143.166 130.258 143.571 130.152 144 130.152ZM144 129.152C143.397 129.152 142.793 129.305 142.335 129.61L130.665 137.39C129.749 138.001 129 139.4 129 140.501V151.499C129 152.599 129.749 153.999 130.665 154.61L142.335 162.39C142.793 162.695 143.396 162.848 144 162.848C144.604 162.848 145.207 162.695 145.665 162.39L157.335 154.61C158.251 153.999 159 152.6 159 151.499V140.501C159 139.401 158.251 138.001 157.335 137.39L145.665 129.61C145.207 129.305 144.603 129.152 144 129.152Z" fill="#F95858"/>
<g id="Group">
<path id="Vector_4" d="M155.389 154.765C156.277 154.504 156.688 153.726 156.688 152.993C156.688 152.096 156.071 151.13 154.717 151.13H151.406C150.139 151.13 149.358 151.895 149.316 153.176L149.208 155.831C149.176 156.54 149.447 156.982 149.681 157.226L149.916 157.428C149.291 157.74 148.871 158.374 148.871 159.122C148.871 159.635 149.093 160.164 149.479 160.575C150.246 161.375 151.458 161.848 152.726 161.848C155.242 161.848 157 160.19 157 157.814C157 156.476 156.401 155.403 155.389 154.765Z" fill="#F95858"/>
<path id="Vector_5" d="M150.315 153.209C150.339 152.478 150.675 152.13 151.406 152.13H154.716C155.544 152.13 155.688 152.705 155.688 152.993C155.688 153.281 155.544 153.856 154.716 153.856H152.15L152.078 155.2C152.33 155.14 152.678 155.116 152.929 155.116C154.632 155.116 156 156.027 156 157.814C156 159.878 154.393 160.849 152.726 160.849C151.694 160.849 150.759 160.465 150.207 159.89C150.015 159.686 149.871 159.397 149.871 159.122C149.871 158.606 150.279 158.223 150.807 158.223C151.046 158.223 151.251 158.282 151.622 158.678C151.886 158.954 152.258 159.146 152.702 159.146C153.385 159.146 153.973 158.727 153.973 157.91C153.973 156.903 153.062 156.615 152.234 156.615C151.874 156.615 151.61 156.651 151.406 156.688C151.227 156.724 151.094 156.747 150.951 156.747C150.734 156.747 150.171 156.663 150.207 155.872L150.315 153.209Z" fill="white"/>
</g>
</g>
<defs>
<filter id="filter0_dddddd_1243_422" x="0.479996" y="0.479996" width="287.04" height="291.04" filterUnits="userSpaceOnUse" color-interpolation-filters="sRGB">
<feFlood flood-opacity="0" result="BackgroundImageFix"/>
<feColorMatrix in="SourceAlpha" type="matrix" values="0 0 0 0 0 0 0 0 0 0 0 0 0 0 0 0 0 0 127 0" result="hardAlpha"/>
<feOffset/>
<feGaussianBlur stdDeviation="1.53"/>
<feColorMatrix type="matrix" values="0 0 0 0 0.976471 0 0 0 0 0.345098 0 0 0 0 0.345098 0 0 0 1 0"/>
<feBlend mode="normal" in2="BackgroundImageFix" result="effect1_dropShadow_1243_422"/>
<feColorMatrix in="SourceAlpha" type="matrix" values="0 0 0 0 0 0 0 0 0 0 0 0 0 0 0 0 0 0 127 0" result="hardAlpha"/>
<feOffset/>
<feGaussianBlur stdDeviation="3.06"/>
<feColorMatrix type="matrix" values="0 0 0 0 0.976471 0 0 0 0 0.345098 0 0 0 0 0.345098 0 0 0 1 0"/>
<feBlend mode="normal" in2="effect1_dropShadow_1243_422" result="effect2_dropShadow_1243_422"/>
<feColorMatrix in="SourceAlpha" type="matrix" values="0 0 0 0 0 0 0 0 0 0 0 0 0 0 0 0 0 0 127 0" result="hardAlpha"/>
<feOffset/>
<feGaussianBlur stdDeviation="10.71"/>
<feColorMatrix type="matrix" values="0 0 0 0 0.976471 0 0 0 0 0.345098 0 0 0 0 0.345098 0 0 0 1 0"/>
<feBlend mode="normal" in2="effect2_dropShadow_1243_422" result="effect3_dropShadow_1243_422"/>
<feColorMatrix in="SourceAlpha" type="matrix" values="0 0 0 0 0 0 0 0 0 0 0 0 0 0 0 0 0 0 127 0" result="hardAlpha"/>
<feOffset/>
<feGaussianBlur stdDeviation="21.42"/>
<feColorMatrix type="matrix" values="0 0 0 0 0.976471 0 0 0 0 0.345098 0 0 0 0 0.345098 0 0 0 1 0"/>
<feBlend mode="normal" in2="effect3_dropShadow_1243_422" result="effect4_dropShadow_1243_422"/>
<feColorMatrix in="SourceAlpha" type="matrix" values="0 0 0 0 0 0 0 0 0 0 0 0 0 0 0 0 0 0 127 0" result="hardAlpha"/>
<feOffset/>
<feGaussianBlur stdDeviation="36.72"/>
<feColorMatrix type="matrix" values="0 0 0 0 0.976471 0 0 0 0 0.345098 0 0 0 0 0.345098 0 0 0 1 0"/>
<feBlend mode="normal" in2="effect4_dropShadow_1243_422" result="effect5_dropShadow_1243_422"/>
<feColorMatrix in="SourceAlpha" type="matrix" values="0 0 0 0 0 0 0 0 0 0 0 0 0 0 0 0 0 0 127 0" result="hardAlpha"/>
<feOffset/>
<feGaussianBlur stdDeviation="64.26"/>
<feColorMatrix type="matrix" values="0 0 0 0 0.976471 0 0 0 0 0.345098 0 0 0 0 0.345098 0 0 0 1 0"/>
<feBlend mode="normal" in2="effect5_dropShadow_1243_422" result="effect6_dropShadow_1243_422"/>
<feBlend mode="normal" in="SourceGraphic" in2="effect6_dropShadow_1243_422" result="shape"/>
</filter>
<clipPath id="clip0_1243_422">
<rect width="30" height="34" fill="white" transform="translate(129 129)"/>
</clipPath>
</defs>
</svg>
