<svg width="288" height="292" viewBox="0 0 288 292" fill="none" xmlns="http://www.w3.org/2000/svg">
<g id="collector_level_3-s-af54e8174fd6b35263a5e25eaa63002de4233a5d1b770a3bfadbb74bd3303036" clip-path="url(#clip0_1243_429)" filter="url(#filter0_dddddd_1243_429)">
<path id="Vector" d="M159 151.499C159 152.599 158.251 153.999 157.335 154.61L145.665 162.39C144.749 163 143.251 163 142.335 162.39L130.665 154.61C129.749 153.999 129 152.6 129 151.499V140.501C129 139.401 129.749 138.001 130.665 137.39L142.335 129.61C143.251 129 144.749 129 145.665 129.61L157.335 137.39C158.251 138.001 159 139.4 159 140.501V151.499Z" fill="#C94E4B"/>
<g id="Group">
<path id="Vector_2" d="M157 144V140H154V139H153V136H149V137.5C149 138.328 148.328 139 147.5 139C146.672 139 146 138.328 146 137.5V136H142V137.5C142 138.328 141.328 139 140.5 139C139.672 139 139 138.328 139 137.5V136H135V139H134V140H131V144H132.5C133.328 144 134 144.672 134 145.5C134 146.328 133.328 147 132.5 147H131V151H134V152H135V155H139V153.5C139 152.672 139.672 152 140.5 152C141.328 152 142 152.672 142 153.5V155H146V153.5C146 152.672 146.672 152 147.5 152C148.328 152 149 152.672 149 153.5V155H153V152H154V151H157V147H155.5C154.672 147 154 146.328 154 145.5C154 144.672 154.672 144 155.5 144H157ZM153 151H135V140H153V151ZM137 142H141V143H137V142ZM137 142H138V145H137V142ZM137 144H140V145H137V144ZM140 144H141V147H140V144ZM137 146H141V147H137V146ZM142 143H146V144H142V143ZM142 144H143V146H142V144ZM142 146H146V147H142V146Z" fill="white"/>
</g>
<path id="Vector_3" d="M144 130.152C144.429 130.152 144.834 130.258 145.11 130.442L156.78 138.222C157.419 138.648 158 139.734 158 140.501V151.499C158 152.266 157.419 153.352 156.781 153.778L145.111 161.558C144.835 161.742 144.43 161.848 144.001 161.848C143.572 161.848 143.167 161.742 142.891 161.558L131.221 153.778C130.581 153.352 130 152.266 130 151.499V140.501C130 139.734 130.581 138.648 131.219 138.222L142.889 130.442C143.166 130.258 143.571 130.152 144 130.152ZM144 129.152C143.397 129.152 142.793 129.305 142.335 129.61L130.665 137.39C129.749 138.001 129 139.4 129 140.501V151.499C129 152.599 129.749 153.999 130.665 154.61L142.335 162.39C142.793 162.695 143.396 162.848 144 162.848C144.604 162.848 145.207 162.695 145.665 162.39L157.335 154.61C158.251 153.999 159 152.6 159 151.499V140.501C159 139.401 158.251 138.001 157.335 137.39L145.665 129.61C145.207 129.305 144.603 129.152 144 129.152Z" fill="#C94E4B"/>
<g id="Group_2">
<path id="Vector_4" d="M156.796 154.148C156.796 152.147 155.157 150.75 152.81 150.75C151.541 150.75 150.347 151.224 149.615 152.02C149.329 152.332 149.004 152.777 149.004 153.464C149.004 154.44 149.735 155.216 150.7 155.307C150.591 155.549 150.539 155.811 150.539 156.067C150.539 156.39 150.622 156.723 150.794 157.013L150.675 157.009C149.621 157.009 148.763 157.861 148.763 158.909C148.763 159.479 148.995 160 149.453 160.456C150.281 161.269 151.435 161.696 152.798 161.696C154.886 161.696 157 160.426 157 157.998C157 157.218 156.694 156.498 156.178 155.955C156.57 155.459 156.796 154.831 156.796 154.148Z" fill="#C94E4B"/>
<path id="Vector_5" d="M151.539 156.067C151.539 155.815 151.659 155.287 152.426 155.287C153.434 155.287 153.746 154.82 153.746 154.328C153.746 153.716 153.23 153.392 152.678 153.392C152.258 153.392 151.971 153.56 151.671 153.92C151.491 154.136 151.263 154.316 150.891 154.316C150.399 154.316 150.004 153.956 150.004 153.464C150.004 153.188 150.1 152.972 150.352 152.697C150.903 152.097 151.839 151.75 152.81 151.75C154.31 151.75 155.796 152.517 155.796 154.148C155.796 155.084 155.197 155.779 154.369 155.995V156.031C155.341 156.258 156 157.05 156 157.998C156 159.857 154.357 160.696 152.798 160.696C151.719 160.696 150.807 160.384 150.16 159.749C149.884 159.473 149.764 159.209 149.764 158.909C149.764 158.393 150.184 158.009 150.675 158.009C150.987 158.009 151.203 158.154 151.563 158.513C151.911 158.861 152.258 159.005 152.702 159.005C153.278 159.005 153.937 158.717 153.937 157.925C153.937 157.326 153.446 156.858 152.426 156.858C151.659 156.858 151.539 156.331 151.539 156.067Z" fill="white"/>
</g>
</g>
<defs>
<filter id="filter0_dddddd_1243_429" x="0.479996" y="0.479996" width="287.04" height="291.04" filterUnits="userSpaceOnUse" color-interpolation-filters="sRGB">
<feFlood flood-opacity="0" result="BackgroundImageFix"/>
<feColorMatrix in="SourceAlpha" type="matrix" values="0 0 0 0 0 0 0 0 0 0 0 0 0 0 0 0 0 0 127 0" result="hardAlpha"/>
<feOffset/>
<feGaussianBlur stdDeviation="1.53"/>
<feColorMatrix type="matrix" values="0 0 0 0 0.788235 0 0 0 0 0.305882 0 0 0 0 0.294118 0 0 0 1 0"/>
<feBlend mode="normal" in2="BackgroundImageFix" result="effect1_dropShadow_1243_429"/>
<feColorMatrix in="SourceAlpha" type="matrix" values="0 0 0 0 0 0 0 0 0 0 0 0 0 0 0 0 0 0 127 0" result="hardAlpha"/>
<feOffset/>
<feGaussianBlur stdDeviation="3.06"/>
<feColorMatrix type="matrix" values="0 0 0 0 0.788235 0 0 0 0 0.305882 0 0 0 0 0.294118 0 0 0 1 0"/>
<feBlend mode="normal" in2="effect1_dropShadow_1243_429" result="effect2_dropShadow_1243_429"/>
<feColorMatrix in="SourceAlpha" type="matrix" values="0 0 0 0 0 0 0 0 0 0 0 0 0 0 0 0 0 0 127 0" result="hardAlpha"/>
<feOffset/>
<feGaussianBlur stdDeviation="10.71"/>
<feColorMatrix type="matrix" values="0 0 0 0 0.788235 0 0 0 0 0.305882 0 0 0 0 0.294118 0 0 0 1 0"/>
<feBlend mode="normal" in2="effect2_dropShadow_1243_429" result="effect3_dropShadow_1243_429"/>
<feColorMatrix in="SourceAlpha" type="matrix" values="0 0 0 0 0 0 0 0 0 0 0 0 0 0 0 0 0 0 127 0" result="hardAlpha"/>
<feOffset/>
<feGaussianBlur stdDeviation="21.42"/>
<feColorMatrix type="matrix" values="0 0 0 0 0.788235 0 0 0 0 0.305882 0 0 0 0 0.294118 0 0 0 1 0"/>
<feBlend mode="normal" in2="effect3_dropShadow_1243_429" result="effect4_dropShadow_1243_429"/>
<feColorMatrix in="SourceAlpha" type="matrix" values="0 0 0 0 0 0 0 0 0 0 0 0 0 0 0 0 0 0 127 0" result="hardAlpha"/>
<feOffset/>
<feGaussianBlur stdDeviation="36.72"/>
<feColorMatrix type="matrix" values="0 0 0 0 0.788235 0 0 0 0 0.305882 0 0 0 0 0.294118 0 0 0 1 0"/>
<feBlend mode="normal" in2="effect4_dropShadow_1243_429" result="effect5_dropShadow_1243_429"/>
<feColorMatrix in="SourceAlpha" type="matrix" values="0 0 0 0 0 0 0 0 0 0 0 0 0 0 0 0 0 0 127 0" result="hardAlpha"/>
<feOffset/>
<feGaussianBlur stdDeviation="64.26"/>
<feColorMatrix type="matrix" values="0 0 0 0 0.788235 0 0 0 0 0.305882 0 0 0 0 0.294118 0 0 0 1 0"/>
<feBlend mode="normal" in2="effect5_dropShadow_1243_429" result="effect6_dropShadow_1243_429"/>
<feBlend mode="normal" in="SourceGraphic" in2="effect6_dropShadow_1243_429" result="shape"/>
</filter>
<clipPath id="clip0_1243_429">
<rect width="30" height="34" fill="white" transform="translate(129 129)"/>
</clipPath>
</defs>
</svg>
