<svg xmlns="http://www.w3.org/2000/svg" width="197.221" height="21.968" viewBox="0 0 197.221 21.968">
  <defs>
    <style>
      .cls-1 {
        fill: #3e3e3e;
        fill-rule: evenodd;
      }
    </style>
  </defs>
  <path id="GECKO_copy" data-name="GECKO copy" class="cls-1" d="M868.874,254.87a7.024,7.024,0,0,1-2.49-1.695,7.678,7.678,0,0,1-1.627-2.707,10.661,10.661,0,0,1-.578-3.638,10.487,10.487,0,0,1,.555-3.517,7.5,7.5,0,0,1,1.59-2.67,6.948,6.948,0,0,1,2.5-1.695,8.717,8.717,0,0,1,3.285-.593,10.374,10.374,0,0,1,2.153.2,9.116,9.116,0,0,1,1.575.473,7.188,7.188,0,0,1,1.132.577q0.465,0.3.84,0.51a1.063,1.063,0,0,0,.525.165,0.759,0.759,0,0,0,.66-0.405l0.825-1.32a10.583,10.583,0,0,0-1.485-1.132,9.464,9.464,0,0,0-1.732-.855,11.085,11.085,0,0,0-2.033-.54,14.058,14.058,0,0,0-2.37-.188,12.406,12.406,0,0,0-4.552.795,9.646,9.646,0,0,0-5.67,5.715,12.492,12.492,0,0,0-.773,4.485,12.193,12.193,0,0,0,.788,4.455,10.216,10.216,0,0,0,2.2,3.473,9.879,9.879,0,0,0,3.36,2.25,11.167,11.167,0,0,0,4.29.8,20.018,20.018,0,0,0,2.475-.142,13.583,13.583,0,0,0,2.138-.435,11.5,11.5,0,0,0,1.875-.728,11.921,11.921,0,0,0,1.687-1.02v-8.25h-6.6v1.65a0.539,0.539,0,0,0,.173.405,0.633,0.633,0,0,0,.457.165h3.33v4.74q-0.57.3-1.14,0.533a9.348,9.348,0,0,1-1.215.4,10.146,10.146,0,0,1-1.372.248,14.257,14.257,0,0,1-1.6.082A8.374,8.374,0,0,1,868.874,254.87Zm39.6-18.8v21.5h13.245V255.2h-10.32v-7.335h8.355v-2.28h-8.355v-7.14h10.32v-2.37H908.469Zm55.655,17.28a9.5,9.5,0,0,1-1.132.878,6,6,0,0,1-1.215.607,7.089,7.089,0,0,1-1.418.353,11.943,11.943,0,0,1-1.725.112,7.552,7.552,0,0,1-2.94-.57,6.637,6.637,0,0,1-2.362-1.657,7.918,7.918,0,0,1-1.575-2.663,10.37,10.37,0,0,1-.578-3.585,10.182,10.182,0,0,1,.578-3.525,7.677,7.677,0,0,1,1.612-2.67,7.071,7.071,0,0,1,2.468-1.687,8.181,8.181,0,0,1,3.157-.593,8.976,8.976,0,0,1,1.695.143,7.934,7.934,0,0,1,1.29.352,6.179,6.179,0,0,1,.96.45q0.4,0.24.705,0.45t0.518,0.353a0.757,0.757,0,0,0,.412.142,0.661,0.661,0,0,0,.39-0.1,1.032,1.032,0,0,0,.24-0.248l0.945-1.335a9.79,9.79,0,0,0-7.14-2.73,11.614,11.614,0,0,0-4.387.8,9.9,9.9,0,0,0-3.413,2.257,10.178,10.178,0,0,0-2.212,3.48,12.193,12.193,0,0,0-.788,4.455,12.972,12.972,0,0,0,.735,4.455,10.173,10.173,0,0,0,2.07,3.473,9.238,9.238,0,0,0,3.225,2.25,10.682,10.682,0,0,0,4.215.8,10.922,10.922,0,0,0,4.538-.855,9.194,9.194,0,0,0,3.2-2.385l-1.14-1.245a0.6,0.6,0,0,0-.435-0.195,0.762,0.762,0,0,0-.5.225h0Zm33.54-17.28h-2.895v21.5h2.895v-9.84h1.32a4.147,4.147,0,0,1,.608.038,1.584,1.584,0,0,1,.438.127,1.641,1.641,0,0,1,.33.218q0.135,0.127.3,0.307l7.43,8.535q0.12,0.135.24,0.255a1.179,1.179,0,0,0,.26.195,1.5,1.5,0,0,0,.34.12,2.174,2.174,0,0,0,.48.045h2.52l-8.55-10.185a6.1,6.1,0,0,0-.66-0.675,2.128,2.128,0,0,0-.74-0.405,2.8,2.8,0,0,0,.6-0.39,8.023,8.023,0,0,0,.59-0.585l8.19-9.255h-2.48a1.676,1.676,0,0,0-.78.158,2.2,2.2,0,0,0-.64.532l-7.16,8.1a1.76,1.76,0,0,1-.633.488,2.382,2.382,0,0,1-.908.142h-1.1v-9.42Zm60.006,6.323a10.232,10.232,0,0,0-2.16-3.48,9.728,9.728,0,0,0-3.35-2.273,11.952,11.952,0,0,0-8.65,0,9.728,9.728,0,0,0-3.35,2.273,10.232,10.232,0,0,0-2.16,3.48,13.306,13.306,0,0,0,0,8.865,10.148,10.148,0,0,0,2.16,3.472,9.691,9.691,0,0,0,3.35,2.258,12.063,12.063,0,0,0,8.65,0,9.691,9.691,0,0,0,3.35-2.258,10.148,10.148,0,0,0,2.16-3.472A13.306,13.306,0,0,0,1057.67,242.4Zm-2.76,7.98a7.529,7.529,0,0,1-1.53,2.655,6.561,6.561,0,0,1-2.4,1.665,8.86,8.86,0,0,1-6.29,0,6.561,6.561,0,0,1-2.4-1.665,7.4,7.4,0,0,1-1.54-2.655,11.949,11.949,0,0,1,0-7.1,7.387,7.387,0,0,1,1.54-2.662,6.64,6.64,0,0,1,2.4-1.673,8.746,8.746,0,0,1,6.29,0,6.64,6.64,0,0,1,2.4,1.673,7.517,7.517,0,0,1,1.53,2.662A11.949,11.949,0,0,1,1054.91,250.378Z" transform="translate(-861.219 -235.844)"/>
</svg>
