<svg width="460" height="263" viewBox="0 0 460 263" fill="none" xmlns="http://www.w3.org/2000/svg">
<g clip-path="url(#clip0_2001_442)">
<circle cx="230.696" cy="131.5" r="131.5" fill="#FFEE54"/>
<circle cx="230.696" cy="131.5" r="112" stroke="black"/>
<path d="M140.893 137.122V137.122C136.698 107.554 149.432 78.1296 173.86 60.9498V60.9498" stroke="black"/>
<path d="M320.164 137.122V137.122C324.359 107.554 311.624 78.1296 287.196 60.9498V60.9498" stroke="black"/>
<path d="M230.694 94.0482L202.082 102.624L202.082 136.042C202.082 144.176 210.212 151.742 217.019 156.66C222.439 160.57 227.858 163.47 230.694 164.92C233.53 163.533 238.95 160.633 244.37 156.66C251.177 151.742 259.307 144.113 259.307 136.042L259.307 102.624L230.694 94.0482Z" fill="black"/>
<path d="M238.509 103.128L229.686 103.128L212.859 131.313L212.859 138.312L229.056 138.312L232.963 131.313L222.502 131.313L238.509 103.128Z" fill="#FFEE54"/>
<path d="M243.173 119.522L235.547 119.522L235.547 150.481L243.173 150.481L243.173 119.522Z" fill="#FFEE54"/>
<path d="M266.365 95.5615L231.451 85.0946C230.947 84.9685 230.442 84.9685 229.938 85.0946L195.024 95.5615C193.953 95.8767 193.196 96.8856 193.196 98.0836L193.196 136.483C193.196 141.464 195.213 146.572 199.183 151.679C202.208 155.588 206.431 159.498 211.725 163.281C220.548 169.712 229.245 173.622 229.623 173.748C229.938 173.874 230.316 174 230.694 174C231.073 174 231.451 173.937 231.766 173.748C232.144 173.559 240.841 169.649 249.664 163.281C254.958 159.498 259.117 155.588 262.206 151.679C266.176 146.572 268.193 141.464 268.193 136.483L268.193 98.0836C268.256 96.8856 267.499 95.8767 266.365 95.5615ZM263.025 136.483C263.025 145.311 254.139 153.634 246.702 158.993C240.022 163.848 233.278 167.253 230.694 168.514C228.111 167.253 221.367 163.848 214.687 158.993C207.25 153.571 198.364 145.311 198.364 136.483L198.364 99.9752L230.631 90.265L262.899 99.9752L262.899 136.483L263.025 136.483Z" fill="black"/>
<path d="M145.825 152.673L137.437 153.737L137.215 151.981L140.621 151.549L140.142 147.771L136.735 148.203L136.513 146.448L144.9 145.384L145.123 147.139L141.589 147.587L142.068 151.366L145.602 150.917L145.825 152.673Z" fill="black"/>
<path d="M150.829 166.633C151.674 168.956 150.653 170.98 148.093 171.912L148.087 171.914C145.527 172.847 143.452 171.943 142.608 169.625C141.907 167.698 142.62 165.873 144.249 165.106L144.297 165.082L144.886 166.701L144.8 166.757C143.993 167.263 143.657 168.121 144.018 169.112C144.481 170.384 145.802 170.826 147.464 170.221L147.47 170.219C149.144 169.609 149.882 168.418 149.419 167.146C149.07 166.188 148.275 165.716 147.256 165.845L147.196 165.854L146.607 164.235L146.67 164.218C148.416 163.757 150.129 164.711 150.829 166.633Z" fill="black"/>
<path d="M162.782 187.696L154.074 189.79L152.948 188.042L158.461 180.986L159.467 182.548L158.088 184.195L159.706 186.708L161.776 186.134L162.782 187.696ZM154.902 188.045L158.371 187.08L157.197 185.257L154.883 188.015L154.902 188.045Z" fill="black"/>
<path d="M174.157 198.716C175.969 200.458 175.932 202.755 174.068 204.694L174.06 204.702C172.196 206.641 169.898 206.757 168.095 205.023C166.287 203.285 166.32 200.984 168.18 199.05L168.188 199.041C170.052 197.102 172.345 196.974 174.157 198.716ZM173.118 199.798C172.104 198.823 170.703 199.029 169.489 200.292L169.481 200.3C168.259 201.572 168.133 202.979 169.134 203.942C170.131 204.9 171.533 204.727 172.759 203.451L172.767 203.443C173.993 202.167 174.119 200.76 173.118 199.798Z" fill="black"/>
<path d="M189.467 209.187C191.584 210.464 192.06 212.681 190.653 215.014L190.65 215.019C189.243 217.352 187.061 217.952 184.949 216.678C183.192 215.619 182.602 213.75 183.387 212.13L183.41 212.082L184.885 212.972L184.853 213.069C184.543 213.97 184.82 214.849 185.723 215.393C186.882 216.092 188.188 215.607 189.102 214.092L189.105 214.087C190.025 212.561 189.851 211.17 188.692 210.471C187.819 209.945 186.904 210.077 186.191 210.817L186.151 210.861L184.676 209.972L184.714 209.92C185.783 208.464 187.715 208.131 189.467 209.187Z" fill="black"/>
<path d="M213.519 218.196L211.186 226.323L205.802 224.778L206.205 223.375L209.888 224.433L210.447 222.484L206.972 221.487L207.354 220.157L210.829 221.155L211.416 219.11L207.732 218.053L208.135 216.651L213.519 218.196Z" fill="black"/>
<path d="M227.949 219.475C230.415 219.665 231.836 221.432 231.626 224.148L231.626 224.154C231.416 226.871 229.736 228.387 227.277 228.197C225.232 228.039 223.865 226.635 223.839 224.835L223.838 224.782L225.555 224.914L225.571 225.016C225.698 225.96 226.34 226.62 227.392 226.702C228.742 226.806 229.69 225.786 229.826 224.021L229.826 224.015C229.963 222.239 229.183 221.075 227.834 220.97C226.817 220.892 226.06 221.421 225.755 222.403L225.739 222.46L224.021 222.328L224.032 222.264C224.334 220.483 225.91 219.318 227.949 219.475Z" fill="black"/>
<path d="M249.974 217.681L251.12 226.058L247.66 226.531C245.779 226.788 244.528 225.942 244.297 224.258L244.296 224.247C244.145 223.144 244.606 222.146 245.485 221.653L243.269 218.597L245.255 218.326L247.231 221.149L248.636 220.956L248.221 217.92L249.974 217.681ZM248.818 222.286L247.303 222.493C246.432 222.612 245.977 223.177 246.09 224.001L246.091 224.013C246.201 224.814 246.822 225.25 247.687 225.131L249.179 224.927L248.818 222.286Z" fill="black"/>
<path d="M265.882 212.257L268.689 220.232L263.405 222.092L262.921 220.716L266.535 219.443L265.862 217.531L262.452 218.731L261.993 217.427L265.403 216.227L264.697 214.22L261.082 215.493L260.598 214.116L265.882 212.257Z" fill="black"/>
<path d="M286.903 199.391L291.549 206.455L289.841 207.579L284.495 203.823L284.465 203.842L285.797 210.238L284.089 211.362L279.442 204.298L280.759 203.432L283.902 208.21L283.946 208.181L282.707 202.151L283.638 201.539L288.689 205.061L288.729 205.035L285.586 200.257L286.903 199.391Z" fill="black"/>
<path d="M303.679 180.143L310.176 185.555L308.867 187.126L302.661 185.083L302.638 185.11L305.769 190.844L304.46 192.416L297.964 187.004L298.973 185.793L303.367 189.453L303.4 189.413L300.465 184.001L301.178 183.146L307.034 185.05L307.064 185.014L302.67 181.354L303.679 180.143Z" fill="black"/>
<path d="M310.751 164.789C311.801 162.505 313.982 161.785 316.426 162.908L316.436 162.913C318.88 164.036 319.745 166.168 318.7 168.441C317.653 170.72 315.469 171.445 313.031 170.324L313.02 170.319C310.576 169.196 309.701 167.073 310.751 164.789ZM312.114 165.415C311.527 166.693 312.182 167.948 313.773 168.68L313.784 168.684C315.387 169.421 316.757 169.077 317.337 167.815C317.914 166.559 317.291 165.292 315.683 164.553L315.672 164.548C314.064 163.809 312.694 164.153 312.114 165.415Z" fill="black"/>
<path d="M315.609 146.889C316.119 144.469 318.056 143.291 320.722 143.853L320.728 143.854C323.394 144.416 324.677 146.28 324.168 148.694C323.745 150.7 322.175 151.872 320.387 151.663L320.334 151.658L320.689 149.972L320.792 149.97C321.744 149.967 322.483 149.416 322.701 148.384C322.98 147.06 322.093 145.986 320.361 145.621L320.355 145.62C318.612 145.253 317.356 145.874 317.076 147.198C316.866 148.196 317.292 149.016 318.225 149.447L318.28 149.47L317.925 151.156L317.863 151.137C316.136 150.605 315.187 148.89 315.609 146.889Z" fill="black"/>
<path d="M277.38 60.4872L279.282 57.9656L280.122 51.9655L281.647 53.1155L280.99 57.1404L281.023 57.1651L284.707 55.4227L286.237 56.5763L280.694 59.031L278.793 61.5526L277.38 60.4872Z" fill="black"/>
<path d="M261.558 52.4121L265.186 44.7748L270.187 47.1504L269.561 48.4683L266.158 46.8519L265.185 48.9001L268.292 50.3758L267.691 51.6407L264.585 50.1651L263.157 53.1713L261.558 52.4121Z" fill="black"/>
<path d="M253.445 49.911L256.04 41.8637L257.724 42.4067L255.13 50.4539L253.445 49.911Z" fill="black"/>
<path d="M239.469 47.0874L240.985 38.7694L244.329 39.3788C246.081 39.6982 247.045 41.0413 246.733 42.7533L246.731 42.7648C246.419 44.4769 245.043 45.3934 243.291 45.074L241.688 44.7819L241.21 47.4047L239.469 47.0874ZM243.651 40.6787L242.475 40.4644L241.936 43.4215L243.112 43.6359C244.109 43.8176 244.794 43.3945 244.966 42.4491L244.968 42.4376C245.141 41.4922 244.648 40.8605 243.651 40.6787Z" fill="black"/>
<path d="M223.612 47.1329C221.099 47.1892 219.497 45.543 219.437 42.8542L219.436 42.8425C219.376 40.1537 220.915 38.4431 223.416 38.3871C225.923 38.3309 227.531 39.977 227.591 42.6599L227.591 42.6716C227.651 45.3604 226.125 47.0766 223.612 47.1329ZM223.578 45.6333C224.984 45.6018 225.826 44.4635 225.787 42.712L225.786 42.7003C225.747 40.9371 224.838 39.8556 223.449 39.8867C222.067 39.9176 221.201 41.033 221.241 42.8021L221.241 42.8138C221.281 44.5829 222.19 45.6644 223.578 45.6333Z" fill="black"/>
<path d="M200.188 51.8492L198.052 43.6685L199.764 43.2213L200.632 46.5435L204.317 45.5812L203.449 42.259L205.161 41.8119L207.298 49.9926L205.585 50.4397L204.685 46.9928L201 47.9552L201.9 51.402L200.188 51.8492Z" fill="black"/>
<path d="M189.198 57.4074C187.395 58.2962 185.827 58.0439 185.049 56.6901L185.002 56.6086L186.5 55.87L186.539 55.9226C186.929 56.462 187.735 56.5215 188.603 56.0939C189.48 55.6611 189.843 55.0054 189.558 54.4273L189.555 54.4221C189.301 53.9071 188.801 53.8336 187.764 54.103L186.888 54.3392C185.243 54.7782 184.133 54.4367 183.571 53.2963L183.568 53.291C182.884 51.9037 183.642 50.3932 185.324 49.564C187.079 48.6985 188.589 49.0449 189.318 50.3381L189.373 50.4354L187.875 51.1739L187.839 51.1135C187.467 50.5585 186.742 50.4654 185.959 50.8515C185.147 51.2584 184.842 51.8726 185.109 52.4138L185.111 52.4191C185.347 52.8973 185.873 52.9841 186.831 52.7273L187.716 52.4938C189.458 52.0265 190.492 52.3204 191.08 53.5134L191.083 53.5186C191.8 54.9743 191.111 56.4641 189.198 57.4074Z" fill="black"/>
</g>
<defs>
<clipPath id="clip0_2001_442">
<rect width="460" height="263" fill="white"/>
</clipPath>
</defs>
</svg>
