<svg width="460" height="368" viewBox="0 0 460 368" fill="none" xmlns="http://www.w3.org/2000/svg">
<rect width="460" height="368" rx="10" fill="white"/>
<path d="M35.6406 291V271.271H43.5703C47.7266 271.271 50.502 273.951 50.502 278.012V278.039C50.502 282.1 47.7266 284.779 43.5703 284.779H39.7695V291H35.6406ZM42.5586 274.539H39.7695V281.553H42.5586C44.9238 281.553 46.3184 280.295 46.3184 278.053V278.025C46.3184 275.783 44.9238 274.539 42.5586 274.539ZM58.7871 291.301C54.3027 291.301 51.582 288.389 51.582 283.699V283.686C51.582 279.023 54.3301 276.043 58.623 276.043C62.916 276.043 65.6094 278.955 65.6094 283.385V284.615H55.5195C55.5605 286.953 56.832 288.32 58.8691 288.32C60.5098 288.32 61.5078 287.418 61.7949 286.598L61.8223 286.516H65.4863L65.4453 286.666C64.9941 288.826 62.9707 291.301 58.7871 291.301ZM58.6914 279.023C57.0508 279.023 55.8203 280.117 55.5605 282.1H61.7812C61.5352 280.076 60.3457 279.023 58.6914 279.023ZM67.6738 291V276.344H71.666V278.9H71.748C72.1855 277.096 73.375 276.043 75.084 276.043C75.5215 276.043 75.9316 276.111 76.2324 276.193V279.707C75.9043 279.57 75.3574 279.488 74.7832 279.488C72.8145 279.488 71.666 280.664 71.666 282.797V291H67.6738ZM79.0215 291V279.352H77.0254V276.344H79.0215V275.168C79.0215 272.297 80.3887 270.971 83.8477 270.971C84.5859 270.971 85.3926 271.039 85.8574 271.135V273.773C85.584 273.719 85.2012 273.705 84.832 273.705C83.5059 273.705 82.918 274.266 82.918 275.318V276.344H85.8301V279.352H83.0137V291H79.0215ZM93.5684 291.301C89.084 291.301 86.3633 288.389 86.3633 283.699V283.686C86.3633 279.023 89.1113 276.043 93.4043 276.043C97.6973 276.043 100.391 278.955 100.391 283.385V284.615H90.3008C90.3418 286.953 91.6133 288.32 93.6504 288.32C95.291 288.32 96.2891 287.418 96.5762 286.598L96.6035 286.516H100.268L100.227 286.666C99.7754 288.826 97.752 291.301 93.5684 291.301ZM93.4727 279.023C91.832 279.023 90.6016 280.117 90.3418 282.1H96.5625C96.3164 280.076 95.127 279.023 93.4727 279.023ZM109.154 291.301C104.684 291.301 101.922 288.389 101.922 283.658V283.645C101.922 278.955 104.725 276.043 109.113 276.043C113.092 276.043 115.621 278.49 115.771 281.662V281.758H112.066L112.039 281.635C111.793 280.24 110.822 279.174 109.168 279.174C107.213 279.174 105.982 280.855 105.982 283.658V283.672C105.982 286.543 107.213 288.17 109.182 288.17C110.781 288.17 111.779 287.186 112.053 285.709L112.066 285.586H115.785V285.668C115.594 288.867 113.064 291.301 109.154 291.301ZM123.537 291.301C120.283 291.301 118.752 290.043 118.752 286.898V279.352H116.715V276.344H118.752V272.762H122.785V276.344H125.465V279.352H122.785V286.461C122.785 287.828 123.4 288.293 124.604 288.293C124.959 288.293 125.219 288.252 125.465 288.225V291.15C125.014 291.219 124.371 291.301 123.537 291.301ZM138.645 291.301C134.953 291.301 132.684 288.43 132.684 283.672V283.658C132.684 278.887 134.953 276.043 138.645 276.043C140.723 276.043 142.363 277.109 143.156 278.887H143.238V271.271H147.23V291H143.238V288.498H143.156C142.377 290.234 140.764 291.301 138.645 291.301ZM139.984 287.992C141.926 287.992 143.252 286.324 143.252 283.672V283.658C143.252 281.02 141.912 279.352 139.984 279.352C138.002 279.352 136.744 280.979 136.744 283.658V283.672C136.744 286.338 137.988 287.992 139.984 287.992ZM156.568 291.301C152.084 291.301 149.363 288.389 149.363 283.699V283.686C149.363 279.023 152.111 276.043 156.404 276.043C160.697 276.043 163.391 278.955 163.391 283.385V284.615H153.301C153.342 286.953 154.613 288.32 156.65 288.32C158.291 288.32 159.289 287.418 159.576 286.598L159.604 286.516H163.268L163.227 286.666C162.775 288.826 160.752 291.301 156.568 291.301ZM156.473 279.023C154.832 279.023 153.602 280.117 153.342 282.1H159.562C159.316 280.076 158.127 279.023 156.473 279.023ZM171.484 291.301C167.424 291.301 165.168 289.428 164.854 286.652L164.84 286.529H168.736L168.764 286.652C169.023 287.801 169.885 288.471 171.484 288.471C172.988 288.471 173.904 287.883 173.904 286.939V286.926C173.904 286.146 173.412 285.695 171.977 285.381L169.488 284.861C166.645 284.26 165.209 282.838 165.209 280.65V280.637C165.209 277.848 167.615 276.043 171.348 276.043C175.244 276.043 177.418 278.107 177.514 280.678V280.814H173.836L173.822 280.705C173.686 279.652 172.824 278.859 171.348 278.859C169.967 278.859 169.105 279.475 169.105 280.418V280.432C169.105 281.184 169.611 281.676 171.088 281.99L173.576 282.523C176.639 283.166 177.896 284.369 177.896 286.529V286.543C177.896 289.414 175.258 291.301 171.484 291.301ZM181.943 274.457C180.74 274.457 179.811 273.514 179.811 272.379C179.811 271.244 180.74 270.301 181.943 270.301C183.146 270.301 184.076 271.244 184.076 272.379C184.076 273.514 183.146 274.457 181.943 274.457ZM179.947 291V276.344H183.939V291H179.947ZM193.469 296.086C189.436 296.086 186.893 294.268 186.51 291.916L186.496 291.793H190.379L190.42 291.889C190.734 292.613 191.801 293.242 193.469 293.242C195.533 293.242 196.627 292.176 196.627 290.535V288.293H196.545C195.779 289.824 194.139 290.795 192.02 290.795C188.355 290.795 186.086 288.061 186.086 283.508V283.494C186.086 278.818 188.383 276.043 192.088 276.043C194.152 276.043 195.752 277.137 196.545 278.846H196.627V276.344H200.619V290.59C200.619 293.857 197.871 296.086 193.469 296.086ZM193.4 287.869C195.355 287.869 196.641 286.229 196.641 283.604V283.59C196.641 280.979 195.342 279.352 193.4 279.352C191.418 279.352 190.146 280.965 190.146 283.59V283.604C190.146 286.242 191.404 287.869 193.4 287.869ZM203.244 291V276.344H207.236V278.75H207.318C208.07 277.068 209.574 276.043 211.789 276.043C215.016 276.043 216.848 278.107 216.848 281.539V291H212.855V282.359C212.855 280.445 211.953 279.352 210.162 279.352C208.371 279.352 207.236 280.664 207.236 282.578V291H203.244ZM231.436 291.355C227.252 291.355 224.559 289.182 224.559 285.846V285.832C224.559 283.631 225.721 281.908 228.318 280.5L229.043 280.104C227.279 278.094 226.65 276.945 226.65 275.619V275.605C226.65 272.953 229.016 271.012 232.27 271.012C235.469 271.012 237.738 272.857 237.738 275.523V275.537C237.738 277.506 236.521 279.133 233.678 280.678L237.479 284.656C237.957 283.535 238.203 282.195 238.203 280.555V279.926H241.525V280.719C241.525 283.316 240.938 285.436 239.83 287.131L243.467 290.932V291H239.064L237.643 289.455C236.016 290.658 233.938 291.355 231.436 291.355ZM230.068 275.783C230.068 276.686 230.615 277.41 231.9 278.805C233.637 277.861 234.416 276.959 234.416 275.783V275.77C234.416 274.525 233.527 273.664 232.256 273.664C230.998 273.664 230.068 274.553 230.068 275.77V275.783ZM228.291 285.518C228.291 287.295 229.727 288.457 231.846 288.457C233.309 288.457 234.58 287.965 235.564 287.199L230.957 282.195L230.52 282.441C228.906 283.371 228.291 284.328 228.291 285.504V285.518ZM258.752 291.342C253.693 291.342 250.48 288.416 250.48 284.027V271.271H254.609V283.658C254.609 286.215 256.1 287.842 258.752 287.842C261.404 287.842 262.881 286.215 262.881 283.658V271.271H267.01V284.027C267.01 288.402 263.838 291.342 258.752 291.342ZM275.719 291.301C271.658 291.301 269.402 289.428 269.088 286.652L269.074 286.529H272.971L272.998 286.652C273.258 287.801 274.119 288.471 275.719 288.471C277.223 288.471 278.139 287.883 278.139 286.939V286.926C278.139 286.146 277.646 285.695 276.211 285.381L273.723 284.861C270.879 284.26 269.443 282.838 269.443 280.65V280.637C269.443 277.848 271.85 276.043 275.582 276.043C279.479 276.043 281.652 278.107 281.748 280.678V280.814H278.07L278.057 280.705C277.92 279.652 277.059 278.859 275.582 278.859C274.201 278.859 273.34 279.475 273.34 280.418V280.432C273.34 281.184 273.846 281.676 275.322 281.99L277.811 282.523C280.873 283.166 282.131 284.369 282.131 286.529V286.543C282.131 289.414 279.492 291.301 275.719 291.301ZM290.771 291.301C286.287 291.301 283.566 288.389 283.566 283.699V283.686C283.566 279.023 286.314 276.043 290.607 276.043C294.9 276.043 297.594 278.955 297.594 283.385V284.615H287.504C287.545 286.953 288.816 288.32 290.854 288.32C292.494 288.32 293.492 287.418 293.779 286.598L293.807 286.516H297.471L297.43 286.666C296.979 288.826 294.955 291.301 290.771 291.301ZM290.676 279.023C289.035 279.023 287.805 280.117 287.545 282.1H293.766C293.52 280.076 292.33 279.023 290.676 279.023ZM299.658 291V276.344H303.65V278.9H303.732C304.17 277.096 305.359 276.043 307.068 276.043C307.506 276.043 307.916 276.111 308.217 276.193V279.707C307.889 279.57 307.342 279.488 306.768 279.488C304.799 279.488 303.65 280.664 303.65 282.797V291H299.658ZM41.9707 323.301C37.4863 323.301 34.7656 320.389 34.7656 315.699V315.686C34.7656 311.023 37.5137 308.043 41.8066 308.043C46.0996 308.043 48.793 310.955 48.793 315.385V316.615H38.7031C38.7441 318.953 40.0156 320.32 42.0527 320.32C43.6934 320.32 44.6914 319.418 44.9785 318.598L45.0059 318.516H48.6699L48.6289 318.666C48.1777 320.826 46.1543 323.301 41.9707 323.301ZM41.875 311.023C40.2344 311.023 39.0039 312.117 38.7441 314.1H44.9648C44.7188 312.076 43.5293 311.023 41.875 311.023ZM49.6406 323L54.2344 315.699L49.668 308.344H54.166L56.8047 313.293H56.8867L59.4844 308.344H63.832L59.252 315.59L63.791 323H59.457L56.668 317.914H56.5859L53.8379 323H49.6406ZM65.4316 327.785V308.344H69.4238V310.9H69.5195C70.3125 309.123 71.9121 308.043 73.9902 308.043C77.709 308.043 79.9785 310.887 79.9785 315.658V315.672C79.9785 320.43 77.709 323.301 74.0449 323.301C71.9531 323.301 70.2988 322.234 69.5059 320.498H69.4238V327.785H65.4316ZM72.6777 319.992C74.6602 319.992 75.918 318.338 75.918 315.672V315.658C75.918 312.979 74.6602 311.352 72.6777 311.352C70.7363 311.352 69.4102 313.02 69.4102 315.672V315.686C69.4102 318.324 70.7363 319.992 72.6777 319.992ZM88.7285 323.301C84.2441 323.301 81.5234 320.389 81.5234 315.699V315.686C81.5234 311.023 84.2715 308.043 88.5645 308.043C92.8574 308.043 95.5508 310.955 95.5508 315.385V316.615H85.4609C85.502 318.953 86.7734 320.32 88.8105 320.32C90.4512 320.32 91.4492 319.418 91.7363 318.598L91.7637 318.516H95.4277L95.3867 318.666C94.9355 320.826 92.9121 323.301 88.7285 323.301ZM88.6328 311.023C86.9922 311.023 85.7617 312.117 85.502 314.1H91.7227C91.4766 312.076 90.2871 311.023 88.6328 311.023ZM97.6152 323V308.344H101.607V310.9H101.689C102.127 309.096 103.316 308.043 105.025 308.043C105.463 308.043 105.873 308.111 106.174 308.193V311.707C105.846 311.57 105.299 311.488 104.725 311.488C102.756 311.488 101.607 312.664 101.607 314.797V323H97.6152ZM109.893 306.457C108.689 306.457 107.76 305.514 107.76 304.379C107.76 303.244 108.689 302.301 109.893 302.301C111.096 302.301 112.025 303.244 112.025 304.379C112.025 305.514 111.096 306.457 109.893 306.457ZM107.896 323V308.344H111.889V323H107.896ZM121.24 323.301C116.756 323.301 114.035 320.389 114.035 315.699V315.686C114.035 311.023 116.783 308.043 121.076 308.043C125.369 308.043 128.062 310.955 128.062 315.385V316.615H117.973C118.014 318.953 119.285 320.32 121.322 320.32C122.963 320.32 123.961 319.418 124.248 318.598L124.275 318.516H127.939L127.898 318.666C127.447 320.826 125.424 323.301 121.24 323.301ZM121.145 311.023C119.504 311.023 118.273 312.117 118.014 314.1H124.234C123.988 312.076 122.799 311.023 121.145 311.023ZM130.127 323V308.344H134.119V310.75H134.201C134.953 309.068 136.457 308.043 138.672 308.043C141.898 308.043 143.73 310.107 143.73 313.539V323H139.738V314.359C139.738 312.445 138.836 311.352 137.045 311.352C135.254 311.352 134.119 312.664 134.119 314.578V323H130.127ZM152.959 323.301C148.488 323.301 145.727 320.389 145.727 315.658V315.645C145.727 310.955 148.529 308.043 152.918 308.043C156.896 308.043 159.426 310.49 159.576 313.662V313.758H155.871L155.844 313.635C155.598 312.24 154.627 311.174 152.973 311.174C151.018 311.174 149.787 312.855 149.787 315.658V315.672C149.787 318.543 151.018 320.17 152.986 320.17C154.586 320.17 155.584 319.186 155.857 317.709L155.871 317.586H159.59V317.668C159.398 320.867 156.869 323.301 152.959 323.301ZM168.189 323.301C163.705 323.301 160.984 320.389 160.984 315.699V315.686C160.984 311.023 163.732 308.043 168.025 308.043C172.318 308.043 175.012 310.955 175.012 315.385V316.615H164.922C164.963 318.953 166.234 320.32 168.271 320.32C169.912 320.32 170.91 319.418 171.197 318.598L171.225 318.516H174.889L174.848 318.666C174.396 320.826 172.373 323.301 168.189 323.301ZM168.094 311.023C166.453 311.023 165.223 312.117 164.963 314.1H171.184C170.938 312.076 169.748 311.023 168.094 311.023Z" fill="black"/>
<path d="M36 173.68L115.008 127.938L115.008 42.0001L36 87.7415L36 173.68Z" fill="url(#paint0_linear_8001_743)"/>
<path fill-rule="evenodd" clip-rule="evenodd" d="M115.008 119.622L115.008 122.394L36 168.135L36 165.363L115.008 119.622ZM115.008 116.85L36 162.591L36 159.819L115.008 114.077L115.008 116.85ZM36 154.274L36 157.047L115.008 111.305L115.008 108.533L36 154.274ZM36 151.502L36 148.73L115.008 102.989L115.008 105.761L36 151.502ZM36 143.186L36 145.958L115.008 100.216L115.008 97.4442L36 143.186ZM36 140.413L36 137.641L115.008 91.8998L115.008 94.672L36 140.413ZM36 132.097L36 134.869L115.008 89.1276L115.008 86.3554L36 132.097ZM36 129.325L36 126.552L115.008 80.811L115.008 83.5832L36 129.325ZM36 121.008L36 123.78L115.008 78.0388L115.008 75.2666L36 121.008ZM36 118.236L36 115.464L115.008 69.7222L115.008 72.4944L36 118.236ZM36 109.919L36 112.691L115.008 66.95L115.008 64.1777L36 109.919ZM36 107.147L36 104.375L115.008 58.6333L115.008 61.4055L36 107.147ZM36 98.8303L36 101.603L115.008 55.8611L115.008 53.0889L36 98.8303ZM36 96.0581L36 93.2859L115.008 47.5445L115.008 50.3167L36 96.0581ZM36 87.7415L36 90.5137L115.008 44.7723L115.008 42.0001L36 87.7415ZM115.008 127.938L115.008 125.166L36 170.908L36 173.68L115.008 127.938Z" fill="url(#paint1_linear_8001_743)"/>
<path d="M115.008 127.939L194.016 173.68L194.016 87.7415L115.008 42.0002L115.008 127.939Z" fill="url(#paint2_linear_8001_743)"/>
<path fill-rule="evenodd" clip-rule="evenodd" d="M194.016 165.363L194.016 168.135L115.008 122.394L115.008 119.622L194.016 165.363ZM194.016 162.591L115.008 116.85L115.008 114.078L194.016 159.819L194.016 162.591ZM115.008 108.533L115.008 111.305L194.016 157.047L194.016 154.274L115.008 108.533ZM115.008 105.761L115.008 102.989L194.016 148.73L194.016 151.502L115.008 105.761ZM115.008 97.4443L115.008 100.217L194.016 145.958L194.016 143.186L115.008 97.4443ZM115.008 94.6721L115.008 91.8999L194.016 137.641L194.016 140.413L115.008 94.6721ZM115.008 86.3555L115.008 89.1277L194.016 134.869L194.016 132.097L115.008 86.3555ZM115.008 83.5833L115.008 80.8111L194.016 126.552L194.016 129.325L115.008 83.5833ZM115.008 75.2667L115.008 78.0389L194.016 123.78L194.016 121.008L115.008 75.2667ZM115.008 72.4945L115.008 69.7223L194.016 115.464L194.016 118.236L115.008 72.4945ZM115.008 64.1779L115.008 66.9501L194.016 112.691L194.016 109.919L115.008 64.1779ZM115.008 61.4057L115.008 58.6335L194.016 104.375L194.016 107.147L115.008 61.4057ZM115.008 53.089L115.008 55.8613L194.016 101.603L194.016 98.8304L115.008 53.089ZM115.008 50.3168L115.008 47.5446L194.016 93.286L194.016 96.0582L115.008 50.3168ZM115.008 42.0002L115.008 44.7724L194.016 90.5138L194.016 87.7415L115.008 42.0002ZM194.016 173.68L194.016 170.908L115.008 125.166L115.008 127.939L194.016 173.68Z" fill="url(#paint3_linear_8001_743)"/>
<path d="M36 87.7411L115.008 133.482L115.008 219.421L36 173.679L36 87.7411Z" fill="url(#paint4_linear_8001_743)"/>
<path fill-rule="evenodd" clip-rule="evenodd" d="M115.008 141.799L115.008 139.027L36 93.2855L36 96.0577L115.008 141.799ZM115.008 144.571L36 98.8299L36 101.602L115.008 147.343L115.008 144.571ZM36 107.147L36 104.374L115.008 150.116L115.008 152.888L36 107.147ZM36 109.919L36 112.691L115.008 158.432L115.008 155.66L36 109.919ZM36 118.235L36 115.463L115.008 161.204L115.008 163.977L36 118.235ZM36 121.008L36 123.78L115.008 169.521L115.008 166.749L36 121.008ZM36 129.324L36 126.552L115.008 172.293L115.008 175.066L36 129.324ZM36 132.096L36 134.869L115.008 180.61L115.008 177.838L36 132.096ZM36 140.413L36 137.641L115.008 183.382L115.008 186.154L36 140.413ZM36 143.185L36 145.957L115.008 191.699L115.008 188.927L36 143.185ZM36 151.502L36 148.73L115.008 194.471L115.008 197.243L36 151.502ZM36 154.274L36 157.046L115.008 202.788L115.008 200.015L36 154.274ZM36 162.591L36 159.818L115.008 205.56L115.008 208.332L36 162.591ZM36 165.363L36 168.135L115.008 213.876L115.008 211.104L36 165.363ZM36 173.679L36 170.907L115.008 216.649L115.008 219.421L36 173.679ZM115.008 133.482L115.008 136.255L36 90.5133L36 87.7411L115.008 133.482Z" fill="url(#paint5_linear_8001_743)"/>
<path d="M115.008 133.482L194.016 87.741L194.016 173.679L115.008 219.421L115.008 133.482Z" fill="url(#paint6_linear_8001_743)"/>
<path fill-rule="evenodd" clip-rule="evenodd" d="M194.016 96.0576L194.016 93.2854L115.008 139.027L115.008 141.799L194.016 96.0576ZM194.016 98.8298L115.008 144.571L115.008 147.343L194.016 101.602L194.016 98.8298ZM115.008 152.888L115.008 150.116L194.016 104.374L194.016 107.146L115.008 152.888ZM115.008 155.66L115.008 158.432L194.016 112.691L194.016 109.919L115.008 155.66ZM115.008 163.977L115.008 161.204L194.016 115.463L194.016 118.235L115.008 163.977ZM115.008 166.749L115.008 169.521L194.016 123.78L194.016 121.007L115.008 166.749ZM115.008 175.065L115.008 172.293L194.016 126.552L194.016 129.324L115.008 175.065ZM115.008 177.838L115.008 180.61L194.016 134.868L194.016 132.096L115.008 177.838ZM115.008 186.154L115.008 183.382L194.016 137.641L194.016 140.413L115.008 186.154ZM115.008 188.926L115.008 191.699L194.016 145.957L194.016 143.185L115.008 188.926ZM115.008 197.243L115.008 194.471L194.016 148.73L194.016 151.502L115.008 197.243ZM115.008 200.015L115.008 202.787L194.016 157.046L194.016 154.274L115.008 200.015ZM115.008 208.332L115.008 205.56L194.016 159.818L194.016 162.591L115.008 208.332ZM115.008 211.104L115.008 213.876L194.016 168.135L194.016 165.363L115.008 211.104ZM115.008 219.421L115.008 216.648L194.016 170.907L194.016 173.679L115.008 219.421ZM194.016 87.741L194.016 90.5132L115.008 136.255L115.008 133.482L194.016 87.741Z" fill="url(#paint7_linear_8001_743)"/>
<path d="M255.086 137V91.4531H254.852L240.477 101.219V90.75L255.047 80.6328H266.766V137H255.086ZM279.422 137V128.914L299.344 110.281C306.609 103.484 308.133 100.711 308.133 96.8047V96.7266C308.094 92.1172 304.578 88.8359 299.578 88.8359C293.797 88.8359 289.891 92.625 289.734 97.7031L289.695 98.0547H278.758V97.7422C278.758 87.1172 287.586 79.6562 299.5 79.6562C311.414 79.6562 319.617 86.4531 319.617 96.0625V96.1406C319.617 102.977 316.375 107.43 306.648 116.375L294.852 127.156V127.625H320.398V137H279.422ZM349.734 137.977C335.438 137.977 326.766 126.766 326.766 108.836V108.758C326.766 90.8281 335.438 79.6562 349.734 79.6562C364.031 79.6562 372.703 90.8281 372.703 108.758V108.836C372.703 126.766 364.031 137.977 349.734 137.977ZM349.734 128.523C356.766 128.523 360.789 121.219 360.789 108.836V108.758C360.789 96.375 356.766 89.1094 349.734 89.1094C342.703 89.1094 338.68 96.375 338.68 108.758V108.836C338.68 121.219 342.703 128.523 349.734 128.523Z" fill="black"/>
<path d="M240.82 162V152.136H244.895C247.109 152.136 248.422 153.312 248.422 155.294V155.308C248.422 156.606 247.731 157.687 246.638 158.117L248.716 162H246.378L244.539 158.425H242.885V162H240.82ZM242.885 156.859H244.669C245.694 156.859 246.31 156.278 246.31 155.308V155.294C246.31 154.351 245.66 153.749 244.642 153.749H242.885V156.859ZM249.789 162V152.136H256.324V153.838H251.854V156.203H256.071V157.816H251.854V160.298H256.324V162H249.789ZM257.186 162L260.631 152.136H263.058L266.496 162H264.329L263.584 159.607H260.098L259.353 162H257.186ZM261.82 154.05L260.576 158.062H263.105L261.861 154.05H261.82ZM267.508 162V152.136H271.274C274.228 152.136 275.978 153.893 275.978 157.017V157.03C275.978 160.161 274.234 162 271.274 162H267.508ZM269.572 160.291H271.028C272.874 160.291 273.872 159.17 273.872 157.037V157.023C273.872 154.966 272.84 153.838 271.028 153.838H269.572V160.291ZM279.525 162V158.315L276.094 152.136H278.322L280.537 156.347H280.585L282.793 152.136H285.028L281.59 158.315V162H279.525ZM243.179 179V170.838H240.328V169.136H248.101V170.838H245.243V179H243.179ZM253.146 179.171C250.213 179.171 248.388 177.209 248.388 174.071V174.058C248.388 170.92 250.227 168.965 253.146 168.965C256.071 168.965 257.903 170.927 257.903 174.058V174.071C257.903 177.209 256.078 179.171 253.146 179.171ZM253.146 177.421C254.786 177.421 255.798 176.115 255.798 174.071V174.058C255.798 172 254.766 170.715 253.146 170.715C251.532 170.715 250.493 171.993 250.493 174.058V174.071C250.493 176.136 251.525 177.421 253.146 177.421ZM266.147 179.171C263.618 179.171 262.012 177.708 262.012 175.514V169.136H264.076V175.329C264.076 176.607 264.821 177.421 266.147 177.421C267.474 177.421 268.212 176.607 268.212 175.329V169.136H270.276V175.514C270.276 177.701 268.69 179.171 266.147 179.171ZM275.526 179.171C273.182 179.171 271.671 178.098 271.555 176.279L271.548 176.17H273.496L273.51 176.245C273.64 177.011 274.453 177.489 275.581 177.489C276.723 177.489 277.44 176.99 277.44 176.238V176.231C277.44 175.562 276.955 175.227 275.731 174.974L274.692 174.769C272.744 174.379 271.76 173.449 271.76 171.966V171.959C271.76 170.154 273.332 168.965 275.52 168.965C277.803 168.965 279.204 170.106 279.3 171.836L279.307 171.966H277.358L277.352 171.884C277.249 171.111 276.538 170.64 275.52 170.64C274.46 170.646 273.824 171.132 273.824 171.836V171.843C273.824 172.465 274.33 172.827 275.465 173.053L276.511 173.265C278.575 173.675 279.505 174.516 279.505 176.067V176.074C279.505 177.968 278.015 179.171 275.526 179.171ZM280.77 179V169.136H287.305V170.838H282.834V173.203H287.052V174.816H282.834V177.298H287.305V179H280.77ZM295.173 179.171C292.828 179.171 291.317 178.098 291.201 176.279L291.194 176.17H293.143L293.156 176.245C293.286 177.011 294.1 177.489 295.228 177.489C296.369 177.489 297.087 176.99 297.087 176.238V176.231C297.087 175.562 296.602 175.227 295.378 174.974L294.339 174.769C292.391 174.379 291.406 173.449 291.406 171.966V171.959C291.406 170.154 292.979 168.965 295.166 168.965C297.449 168.965 298.851 170.106 298.946 171.836L298.953 171.966H297.005L296.998 171.884C296.896 171.111 296.185 170.64 295.166 170.64C294.106 170.646 293.471 171.132 293.471 171.836V171.843C293.471 172.465 293.977 172.827 295.111 173.053L296.157 173.265C298.222 173.675 299.151 174.516 299.151 176.067V176.074C299.151 177.968 297.661 179.171 295.173 179.171ZM300.416 179V169.136H306.951V170.838H302.48V173.203H306.698V174.816H302.48V177.298H306.951V179H300.416ZM312.83 179.171C309.945 179.171 308.134 177.243 308.134 174.064V174.058C308.134 170.879 309.952 168.965 312.83 168.965C315.223 168.965 316.938 170.476 317.13 172.567L317.137 172.629H315.127L315.1 172.513C314.867 171.426 314.061 170.715 312.83 170.715C311.251 170.715 310.239 171.986 310.239 174.051V174.058C310.239 176.136 311.251 177.421 312.83 177.421C314.02 177.421 314.854 176.737 315.12 175.568L315.134 175.5H317.144L317.137 175.575C316.945 177.674 315.216 179.171 312.83 179.171ZM320.466 179V170.838H317.615V169.136H325.388V170.838H322.53V179H320.466ZM326.529 179V169.136H328.594V179H326.529ZM334.685 179.171C331.752 179.171 329.927 177.209 329.927 174.071V174.058C329.927 170.92 331.766 168.965 334.685 168.965C337.61 168.965 339.442 170.927 339.442 174.058V174.071C339.442 177.209 337.617 179.171 334.685 179.171ZM334.685 177.421C336.325 177.421 337.337 176.115 337.337 174.071V174.058C337.337 172 336.305 170.715 334.685 170.715C333.071 170.715 332.032 171.993 332.032 174.058V174.071C332.032 176.136 333.064 177.421 334.685 177.421ZM340.775 179V169.136H342.58L347.037 175.548H347.078V169.136H349.136V179H347.345L342.874 172.54H342.833V179H340.775Z" fill="black"/>
<rect x="240" y="192" width="143" height="3" fill="url(#paint8_linear_8001_743)"/>
<path d="M393.344 74.0352V69.0547H401.449V61.5352H406.43V69.0547H414.555V74.0352H406.43V81.5352H401.449V74.0352H393.344Z" fill="black"/>
<defs>
<linearGradient id="paint0_linear_8001_743" x1="75.5039" y1="150.872" x2="38.2369" y2="86.3238" gradientUnits="userSpaceOnUse">
<stop stop-color="#353535"/>
<stop offset="1" stop-color="white"/>
</linearGradient>
<linearGradient id="paint1_linear_8001_743" x1="101.84" y1="148.037" x2="29.8332" y2="77.3357" gradientUnits="userSpaceOnUse">
<stop stop-color="#181818"/>
<stop offset="1" stop-color="#181818" stop-opacity="0"/>
</linearGradient>
<linearGradient id="paint2_linear_8001_743" x1="121.938" y1="132.097" x2="164.986" y2="77.9426" gradientUnits="userSpaceOnUse">
<stop stop-color="#5F5C5B"/>
<stop offset="1" stop-color="white"/>
</linearGradient>
<linearGradient id="paint3_linear_8001_743" x1="116.394" y1="134.176" x2="186.016" y2="80.8101" gradientUnits="userSpaceOnUse">
<stop stop-color="#181818"/>
<stop offset="1" stop-color="#181818" stop-opacity="0"/>
</linearGradient>
<linearGradient id="paint4_linear_8001_743" x1="54.1504" y1="96.4514" x2="27.409" y2="203.795" gradientUnits="userSpaceOnUse">
<stop stop-color="white"/>
<stop offset="1" stop-color="#5F5F5F"/>
</linearGradient>
<linearGradient id="paint5_linear_8001_743" x1="55.2181" y1="100.722" x2="28.9104" y2="181.424" gradientUnits="userSpaceOnUse">
<stop stop-color="#282828"/>
<stop offset="1" stop-color="#181818"/>
</linearGradient>
<linearGradient id="paint6_linear_8001_743" x1="127.82" y1="131.684" x2="192.451" y2="145.618" gradientUnits="userSpaceOnUse">
<stop stop-color="white"/>
<stop offset="1" stop-color="#4E4E4E"/>
</linearGradient>
<linearGradient id="paint7_linear_8001_743" x1="123.549" y1="134.887" x2="210.511" y2="141.267" gradientUnits="userSpaceOnUse">
<stop stop-color="#1C1C1C"/>
<stop offset="1" stop-color="#181818"/>
</linearGradient>
<linearGradient id="paint8_linear_8001_743" x1="240" y1="195" x2="383" y2="195" gradientUnits="userSpaceOnUse">
<stop/>
<stop offset="1" stop-opacity="0"/>
</linearGradient>
</defs>
</svg>
