<svg width="460" height="368" viewBox="0 0 460 368" fill="none" xmlns="http://www.w3.org/2000/svg">
<rect width="460" height="368" rx="10" fill="#1933D5"/>
<path d="M178.027 249V229.271H182.799L188.404 243.449H188.486L194.092 229.271H198.863V249H195.186V235.656H195.062L189.744 249H187.146L181.814 235.656H181.705V249H178.027ZM205.863 249.232C202.924 249.232 200.941 247.387 200.941 244.803V244.775C200.941 242.109 203.006 240.551 206.643 240.318L210.266 240.1V239.197C210.266 237.898 209.418 237.092 207.859 237.092C206.369 237.092 205.467 237.789 205.275 238.732L205.248 238.855H201.598L201.611 238.691C201.83 235.984 204.154 234.043 208.023 234.043C211.811 234.043 214.258 235.998 214.258 238.951V249H210.266V246.812H210.184C209.35 248.316 207.791 249.232 205.863 249.232ZM204.893 244.598C204.893 245.678 205.781 246.32 207.162 246.32C208.953 246.32 210.266 245.172 210.266 243.641V242.588L207.244 242.779C205.699 242.875 204.893 243.531 204.893 244.57V244.598ZM222.27 249.301C218.578 249.301 216.309 246.43 216.309 241.672V241.658C216.309 236.887 218.578 234.043 222.27 234.043C224.348 234.043 225.988 235.109 226.781 236.887H226.863V229.271H230.855V249H226.863V246.498H226.781C226.002 248.234 224.389 249.301 222.27 249.301ZM223.609 245.992C225.551 245.992 226.877 244.324 226.877 241.672V241.658C226.877 239.02 225.537 237.352 223.609 237.352C221.627 237.352 220.369 238.979 220.369 241.658V241.672C220.369 244.338 221.613 245.992 223.609 245.992ZM240.193 249.301C235.709 249.301 232.988 246.389 232.988 241.699V241.686C232.988 237.023 235.736 234.043 240.029 234.043C244.322 234.043 247.016 236.955 247.016 241.385V242.615H236.926C236.967 244.953 238.238 246.32 240.275 246.32C241.916 246.32 242.914 245.418 243.201 244.598L243.229 244.516H246.893L246.852 244.666C246.4 246.826 244.377 249.301 240.193 249.301ZM240.098 237.023C238.457 237.023 237.227 238.117 236.967 240.1H243.188C242.941 238.076 241.752 237.023 240.098 237.023ZM263.312 249.301C261.207 249.301 259.594 248.234 258.801 246.498H258.719V249H254.727V229.271H258.719V236.887H258.801C259.607 235.109 261.234 234.043 263.326 234.043C267.004 234.043 269.287 236.887 269.287 241.658V241.672C269.287 246.43 267.004 249.301 263.312 249.301ZM261.986 245.992C263.969 245.992 265.227 244.338 265.227 241.672V241.658C265.227 238.979 263.969 237.352 261.986 237.352C260.059 237.352 258.719 239.02 258.719 241.658V241.672C258.719 244.324 260.045 245.992 261.986 245.992ZM273.115 253.826C272.336 253.826 271.543 253.73 271.078 253.648V250.682C271.365 250.736 271.83 250.818 272.418 250.818C273.607 250.818 274.264 250.477 274.619 249.479L274.797 249L269.615 234.344H274.004L277.094 245.801H277.203L280.307 234.344H284.518L279.486 249.26C278.338 252.719 276.369 253.826 273.115 253.826ZM115.123 281V261.271H128.193V264.676H119.252V269.406H127.688V272.633H119.252V277.596H128.193V281H115.123ZM130.832 281V266.344H134.824V268.75H134.906C135.658 267.068 137.162 266.043 139.377 266.043C142.604 266.043 144.436 268.107 144.436 271.539V281H140.443V272.359C140.443 270.445 139.541 269.352 137.75 269.352C135.959 269.352 134.824 270.664 134.824 272.578V281H130.832ZM150.752 281L145.68 266.344H149.945L153.008 277.473H153.09L156.111 266.344H160.281L155.25 281H150.752ZM165.682 281.232C162.742 281.232 160.76 279.387 160.76 276.803V276.775C160.76 274.109 162.824 272.551 166.461 272.318L170.084 272.1V271.197C170.084 269.898 169.236 269.092 167.678 269.092C166.188 269.092 165.285 269.789 165.094 270.732L165.066 270.855H161.416L161.43 270.691C161.648 267.984 163.973 266.043 167.842 266.043C171.629 266.043 174.076 267.998 174.076 270.951V281H170.084V278.812H170.002C169.168 280.316 167.609 281.232 165.682 281.232ZM164.711 276.598C164.711 277.678 165.6 278.32 166.98 278.32C168.771 278.32 170.084 277.172 170.084 275.641V274.588L167.062 274.779C165.518 274.875 164.711 275.531 164.711 276.57V276.598ZM182.484 281.301C179.23 281.301 177.699 280.043 177.699 276.898V269.352H175.662V266.344H177.699V262.762H181.732V266.344H184.412V269.352H181.732V276.461C181.732 277.828 182.348 278.293 183.551 278.293C183.906 278.293 184.166 278.252 184.412 278.225V281.15C183.961 281.219 183.318 281.301 182.484 281.301ZM193.121 281.301C188.664 281.301 185.861 278.443 185.861 273.672V273.645C185.861 268.928 188.732 266.043 193.107 266.043C197.496 266.043 200.381 268.9 200.381 273.645V273.672C200.381 278.457 197.551 281.301 193.121 281.301ZM193.135 278.17C195.076 278.17 196.32 276.529 196.32 273.672V273.645C196.32 270.814 195.049 269.174 193.107 269.174C191.18 269.174 189.922 270.814 189.922 273.645V273.672C189.922 276.543 191.166 278.17 193.135 278.17ZM208.338 281V261.271H216.268C220.424 261.271 223.199 263.951 223.199 268.012V268.039C223.199 272.1 220.424 274.779 216.268 274.779H212.467V281H208.338ZM215.256 264.539H212.467V271.553H215.256C217.621 271.553 219.016 270.295 219.016 268.053V268.025C219.016 265.783 217.621 264.539 215.256 264.539ZM231.539 281.301C227.082 281.301 224.279 278.443 224.279 273.672V273.645C224.279 268.928 227.15 266.043 231.525 266.043C235.914 266.043 238.799 268.9 238.799 273.645V273.672C238.799 278.457 235.969 281.301 231.539 281.301ZM231.553 278.17C233.494 278.17 234.738 276.529 234.738 273.672V273.645C234.738 270.814 233.467 269.174 231.525 269.174C229.598 269.174 228.34 270.814 228.34 273.645V273.672C228.34 276.543 229.584 278.17 231.553 278.17ZM243.584 281L239.688 266.344H243.707L245.922 277.213H246.004L248.602 266.344H252.43L255.041 277.213H255.123L257.352 266.344H261.289L257.406 281H253.154L250.502 270.637H250.42L247.781 281H243.584ZM269.301 281.301C264.816 281.301 262.096 278.389 262.096 273.699V273.686C262.096 269.023 264.844 266.043 269.137 266.043C273.43 266.043 276.123 268.955 276.123 273.385V274.615H266.033C266.074 276.953 267.346 278.32 269.383 278.32C271.023 278.32 272.021 277.418 272.309 276.598L272.336 276.516H276L275.959 276.666C275.508 278.826 273.484 281.301 269.301 281.301ZM269.205 269.023C267.564 269.023 266.334 270.117 266.074 272.1H272.295C272.049 270.076 270.859 269.023 269.205 269.023ZM278.188 281V266.344H282.18V268.9H282.262C282.699 267.096 283.889 266.043 285.598 266.043C286.035 266.043 286.445 266.111 286.746 266.193V269.707C286.418 269.57 285.871 269.488 285.297 269.488C283.328 269.488 282.18 270.664 282.18 272.797V281H278.188ZM294.279 281V261.271H307.35V264.676H298.408V269.406H306.844V272.633H298.408V277.596H307.35V281H294.279ZM310.084 281V261.271H314.076V281H310.084ZM318.848 264.457C317.645 264.457 316.715 263.514 316.715 262.379C316.715 261.244 317.645 260.301 318.848 260.301C320.051 260.301 320.98 261.244 320.98 262.379C320.98 263.514 320.051 264.457 318.848 264.457ZM316.852 281V266.344H320.844V281H316.852ZM329.348 281.301C326.094 281.301 324.562 280.043 324.562 276.898V269.352H322.525V266.344H324.562V262.762H328.596V266.344H331.275V269.352H328.596V276.461C328.596 277.828 329.211 278.293 330.414 278.293C330.77 278.293 331.029 278.252 331.275 278.225V281.15C330.824 281.219 330.182 281.301 329.348 281.301ZM339.93 281.301C335.445 281.301 332.725 278.389 332.725 273.699V273.686C332.725 269.023 335.473 266.043 339.766 266.043C344.059 266.043 346.752 268.955 346.752 273.385V274.615H336.662C336.703 276.953 337.975 278.32 340.012 278.32C341.652 278.32 342.65 277.418 342.938 276.598L342.965 276.516H346.629L346.588 276.666C346.137 278.826 344.113 281.301 339.93 281.301ZM339.834 269.023C338.193 269.023 336.963 270.117 336.703 272.1H342.924C342.678 270.076 341.488 269.023 339.834 269.023Z" fill="white"/>
<path d="M151.461 71.6091L231 25.6875L310.539 71.6091V163.452L231 209.374L151.461 163.452V71.6091Z" stroke="url(#paint0_linear_5132_127)" stroke-width="2.92284"/>
<path d="M161.586 77.4549L231 37.379L300.414 77.4549V157.607L231 197.683L161.586 157.607V77.4549Z" stroke="url(#paint1_linear_5132_127)" stroke-width="2.92284"/>
<path d="M171.711 83.3006L231 49.0703L290.289 83.3006V151.761L231 185.991L171.711 151.761V83.3006Z" stroke="url(#paint2_linear_5132_127)" stroke-width="2.92284"/>
<path d="M181.836 89.1463L231 60.7617L280.164 89.1463V145.916L231 174.3L181.836 145.916V89.1463Z" stroke="url(#paint3_linear_5132_127)" stroke-width="2.92284"/>
<path d="M191.962 94.992L231 72.453L270.039 94.992V140.07L231 162.609L191.962 140.07V94.992Z" stroke="url(#paint4_linear_5132_127)" stroke-width="2.92284"/>
<path d="M231 82.4568L261.375 99.9939V135.068L231 152.605L200.625 135.068V99.9939L231 82.4568Z" fill="url(#paint5_radial_5132_127)"/>
<path d="M242.277 99.281C241.192 98.6879 238.12 99.0529 234.46 100.194C227.999 104.665 222.532 111.235 222.171 121.774C222.08 122.047 221.448 121.728 221.357 121.682C219.595 118.306 218.918 114.748 220.363 109.638C220.634 109.181 219.731 108.634 219.595 108.771C219.279 109.09 217.924 110.55 217.065 112.101C212.682 119.812 215.529 129.621 223.21 133.955C230.891 138.29 240.56 135.506 244.852 127.75C249.732 118.762 245.168 100.924 242.277 99.281Z" fill="white"/>
<rect x="139.5" y="303.5" width="183" height="36" rx="18" stroke="white"/>
<path d="M248.8 326.171C246.749 326.171 245.354 324.947 245.225 323.313L245.218 323.225H246.872L246.879 323.272C247.022 324.1 247.774 324.735 248.813 324.735C249.989 324.735 250.803 323.929 250.803 322.773V322.76C250.803 321.632 249.976 320.825 248.82 320.825C248.26 320.825 247.774 320.996 247.398 321.311C247.214 321.461 247.05 321.652 246.934 321.871H245.396L245.867 316.136H251.924V317.578H247.275L247.002 320.552H247.036C247.467 319.889 248.28 319.499 249.271 319.499C251.151 319.499 252.505 320.859 252.505 322.732V322.746C252.505 324.776 250.98 326.171 248.8 326.171ZM254.549 326.109C253.995 326.109 253.558 325.672 253.558 325.118C253.558 324.571 253.995 324.134 254.549 324.134C255.103 324.134 255.533 324.571 255.533 325.118C255.533 325.672 255.103 326.109 254.549 326.109ZM260.496 326.171C258.076 326.171 256.62 324.209 256.62 321.071V321.058C256.62 317.92 258.076 315.965 260.496 315.965C262.909 315.965 264.372 317.92 264.372 321.058V321.071C264.372 324.209 262.909 326.171 260.496 326.171ZM260.496 324.729C261.822 324.729 262.595 323.348 262.595 321.071V321.058C262.595 318.781 261.822 317.414 260.496 317.414C259.163 317.414 258.397 318.781 258.397 321.058V321.071C258.397 323.348 259.163 324.729 260.496 324.729ZM268.631 326V316.136H272.568C274.674 316.136 275.959 317.305 275.959 319.212V319.226C275.959 320.552 275.248 321.625 274.1 322.042L276.253 326H274.243L272.302 322.309H270.395V326H268.631ZM270.395 320.914H272.384C273.498 320.914 274.154 320.299 274.154 319.239V319.226C274.154 318.193 273.457 317.564 272.35 317.564H270.395V320.914ZM279.172 326.123C277.723 326.123 276.745 325.228 276.745 323.936V323.922C276.745 322.637 277.743 321.864 279.5 321.755L281.394 321.639V321.14C281.394 320.408 280.915 319.964 280.054 319.964C279.247 319.964 278.755 320.34 278.646 320.873L278.632 320.935H277.053L277.06 320.853C277.162 319.567 278.276 318.604 280.115 318.604C281.927 318.604 283.096 319.561 283.096 321.017V326H281.394V324.886H281.353C280.936 325.645 280.129 326.123 279.172 326.123ZM278.44 323.867C278.44 324.462 278.933 324.824 279.678 324.824C280.655 324.824 281.394 324.175 281.394 323.313V322.767L279.739 322.869C278.898 322.924 278.44 323.286 278.44 323.86V323.867ZM287.163 326.144C285.646 326.144 284.928 325.528 284.928 324.038V320.066H283.902V318.754H284.928V316.915H286.657V318.754H288.004V320.066H286.657V323.895C286.657 324.605 286.972 324.831 287.594 324.831C287.758 324.831 287.888 324.811 288.004 324.804V326.082C287.806 326.109 287.505 326.144 287.163 326.144ZM290.075 317.715C289.542 317.715 289.125 317.291 289.125 316.785C289.125 316.266 289.542 315.849 290.075 315.849C290.608 315.849 291.019 316.266 291.019 316.785C291.019 317.291 290.608 317.715 290.075 317.715ZM289.221 326V318.754H290.923V326H289.221ZM292.372 326V318.754H294.074V319.889H294.108C294.484 319.109 295.223 318.604 296.323 318.604C297.916 318.604 298.825 319.629 298.825 321.311V326H297.123V321.652C297.123 320.62 296.645 320.039 295.674 320.039C294.696 320.039 294.074 320.75 294.074 321.796V326H292.372ZM303.46 328.536C301.539 328.536 300.329 327.661 300.124 326.526L300.11 326.465H301.785L301.806 326.52C301.99 326.937 302.571 327.251 303.46 327.251C304.567 327.251 305.176 326.663 305.176 325.74V324.694H305.142C304.738 325.467 303.918 325.959 302.879 325.959C301.061 325.959 299.892 324.564 299.892 322.309V322.302C299.892 320.012 301.074 318.604 302.906 318.604C303.932 318.604 304.725 319.15 305.135 319.984H305.176V318.754H306.878V325.795C306.878 327.436 305.559 328.536 303.46 328.536ZM303.412 324.646C304.472 324.646 305.183 323.751 305.183 322.343V322.336C305.183 320.935 304.465 320.039 303.412 320.039C302.318 320.039 301.628 320.921 301.628 322.329V322.336C301.628 323.765 302.318 324.646 303.412 324.646Z" fill="white"/>
<path d="M195.263 325.355L192.328 326.899C191.695 327.231 190.956 326.695 191.076 325.99L191.637 322.721L189.262 320.404C188.749 319.906 189.032 319.037 189.739 318.933L193.022 318.457L194.49 315.481C194.806 314.84 195.72 314.84 196.037 315.481L197.504 318.457L200.787 318.933C201.494 319.036 201.777 319.905 201.265 320.404L198.89 322.721L199.45 325.99C199.57 326.695 198.831 327.232 198.199 326.899L195.263 325.355Z" fill="white"/>
<path d="M161.263 325.355L158.328 326.899C157.695 327.231 156.956 326.695 157.076 325.99L157.637 322.721L155.262 320.404C154.749 319.906 155.032 319.037 155.739 318.933L159.022 318.457L160.49 315.481C160.806 314.84 161.72 314.84 162.037 315.481L163.504 318.457L166.787 318.933C167.494 319.036 167.777 319.905 167.265 320.404L164.89 322.721L165.45 325.99C165.57 326.695 164.831 327.232 164.199 326.899L161.263 325.355Z" fill="white"/>
<path d="M212.263 325.355L209.328 326.899C208.695 327.231 207.956 326.695 208.076 325.99L208.637 322.721L206.262 320.404C205.749 319.906 206.032 319.037 206.739 318.933L210.022 318.457L211.49 315.481C211.806 314.84 212.72 314.84 213.037 315.481L214.504 318.457L217.787 318.933C218.494 319.036 218.777 319.905 218.265 320.404L215.89 322.721L216.45 325.99C216.57 326.695 215.831 327.232 215.199 326.899L212.263 325.355Z" fill="white"/>
<path d="M178.263 325.355L175.328 326.899C174.695 327.231 173.956 326.695 174.076 325.99L174.637 322.721L172.262 320.404C171.749 319.906 172.032 319.037 172.739 318.933L176.022 318.457L177.49 315.481C177.806 314.84 178.72 314.84 179.037 315.481L180.504 318.457L183.787 318.933C184.494 319.036 184.777 319.905 184.265 320.404L181.89 322.721L182.45 325.99C182.57 326.695 181.831 327.232 181.199 326.899L178.263 325.355Z" fill="white"/>
<path d="M229.263 325.355L226.328 326.899C225.695 327.231 224.956 326.695 225.076 325.99L225.637 322.721L223.262 320.404C222.749 319.906 223.032 319.037 223.739 318.933L227.022 318.457L228.49 315.481C228.806 314.84 229.72 314.84 230.037 315.481L231.504 318.457L234.787 318.933C235.494 319.036 235.777 319.905 235.265 320.404L232.89 322.721L233.45 325.99C233.57 326.695 232.831 327.232 232.199 326.899L229.263 325.355Z" fill="white"/>
<defs>
<linearGradient id="paint0_linear_5132_127" x1="200.31" y1="24" x2="270.458" y2="211.061" gradientUnits="userSpaceOnUse">
<stop stop-color="white"/>
<stop offset="1" stop-color="white" stop-opacity="0"/>
</linearGradient>
<linearGradient id="paint1_linear_5132_127" x1="204.147" y1="35.6915" x2="265.526" y2="199.37" gradientUnits="userSpaceOnUse">
<stop stop-color="white"/>
<stop offset="1" stop-color="white" stop-opacity="0"/>
</linearGradient>
<linearGradient id="paint2_linear_5132_127" x1="207.983" y1="47.3828" x2="260.594" y2="187.679" gradientUnits="userSpaceOnUse">
<stop stop-color="white"/>
<stop offset="1" stop-color="white" stop-opacity="0"/>
</linearGradient>
<linearGradient id="paint3_linear_5132_127" x1="211.819" y1="59.0742" x2="255.661" y2="175.988" gradientUnits="userSpaceOnUse">
<stop stop-color="white"/>
<stop offset="1" stop-color="white" stop-opacity="0"/>
</linearGradient>
<linearGradient id="paint4_linear_5132_127" x1="215.655" y1="70.7655" x2="250.729" y2="164.296" gradientUnits="userSpaceOnUse">
<stop stop-color="white"/>
<stop offset="1" stop-color="white" stop-opacity="0"/>
</linearGradient>
<radialGradient id="paint5_radial_5132_127" cx="0" cy="0" r="1" gradientUnits="userSpaceOnUse" gradientTransform="translate(231 117.531) rotate(90) scale(35.074 35.074)">
<stop stop-color="white" stop-opacity="0.9"/>
<stop offset="1" stop-color="white" stop-opacity="0"/>
</radialGradient>
</defs>
</svg>
