<svg width="48" height="48" viewBox="0 0 48 48" fill="none" xmlns="http://www.w3.org/2000/svg">
<path d="M21.4555 12.7051C23.5127 12.7251 25.5083 12.7251 27.5023 12.7251H43.7106C45.1731 12.7118 46.619 12.7451 48 12.7118C47.9833 11.519 47.7818 10.4395 47.5236 9.35825C47.2421 8.29871 46.6557 6.9976 46.2826 6.41951C45.4813 5.01178 44.4852 3.86728 43.3191 2.89269C42.4445 2.18966 41.7699 1.74818 40.5605 1.15011C38.5799 0.26882 36.6892 -0.0660364 34.7969 0.0105974C27.0659 0.00559952 19.3982 0.00559952 11.7305 0.00559952C9.85481 0.0539121 7.08291 1.13511 5.93351 1.97142C4.62086 2.78774 3.54308 3.8073 2.62189 4.98679C1.98389 5.90307 1.56244 6.43451 0.934438 7.9272C0.169834 9.83471 -0.0866991 11.6856 0.0249096 13.5348C0.00991743 21.0782 0.00991743 28.56 0.00991743 36.0418C0.0465651 38.0176 1.08603 40.7798 1.92559 41.9459C2.85511 43.4636 4.05282 44.6764 5.45209 45.6877C6.17338 46.1774 7.01794 46.6906 8.53049 47.2703C9.90145 47.7168 11.2524 47.965 12.6034 47.9567C12.78 48.0033 12.7067 47.8684 12.7283 47.8267V19.0841C12.685 17.7563 12.67 16.2536 13.4446 15.1174C14.1376 14.1329 14.644 13.5015 16.1232 12.965C17.9639 12.5352 19.7097 12.8218 21.4555 12.7051ZM47.935 17.5414C39.2862 17.5864 30.7456 17.5864 22.2051 17.5864C20.5742 17.758 19.6331 18.3994 19.03 19.0541C18.3537 19.6955 17.7024 20.7467 17.5908 22.366C17.5925 25.2131 17.5925 28.0402 17.5925 30.8674V47.95H30.3109C30.3725 44.2916 30.3725 40.6965 30.3725 37.1013C30.4408 35.8552 30.1859 34.6691 30.674 33.4846C31.2254 32.1868 31.97 31.4688 33.0095 30.874C35.0651 29.9477 37.2056 30.5708 39.2845 30.3276C42.1764 30.3676 45.0032 30.3676 47.8301 30.3676C48.0067 30.4192 47.9334 30.2843 47.955 30.2426V20.7034C47.935 19.6188 47.9767 18.5393 47.935 17.5414ZM39.6593 35.1688C37.2889 35.6086 36.5826 36.5199 35.7064 37.8444C34.7769 39.7502 35.3416 41.9076 35.14 43.8884C35.1833 45.2995 35.15 46.6839 35.185 48C36.7309 47.97 38.1634 47.6968 39.5977 47.1937C41.1069 46.5939 41.8515 46.1425 42.7211 45.5194C44.4085 44.2583 45.7178 42.7589 46.6774 40.7914C47.5103 39.0622 48.0366 36.9331 47.9384 35.1339C45.1048 35.1688 42.3813 35.1688 39.6593 35.1688Z" fill="#544179"/>
</svg>
