<svg width="19" height="18" viewBox="0 0 19 18" fill="none" xmlns="http://www.w3.org/2000/svg">
<g clip-path="url(#clip0_5062_81613)">
<path d="M17.75 0H1.75C1.2 0 0.75 0.45 0.75 1V17C0.75 17.55 1.2 18 1.75 18H17.75C18.3 18 18.75 17.55 18.75 17V1C18.75 0.45 18.3 0 17.75 0ZM13.43 7.73L8.78 12.03L6.1 9.76C5.68 9.4 5.63 8.77 5.99 8.35C6.35 7.93 6.98 7.88 7.4 8.24L8.72 9.37L12.07 6.27C12.47 5.89 13.11 5.92 13.48 6.32C13.86 6.73 13.83 7.36 13.43 7.73Z" fill="#D4A373"/>
</g>
<defs>
<clipPath id="clip0_5062_81613">
<rect x="0.75" width="18" height="18" rx="9" fill="white"/>
</clipPath>
</defs>
</svg>
