<svg width="50" height="50" viewBox="0 0 50 50" fill="none" xmlns="http://www.w3.org/2000/svg">
<path d="M48.3332 27.3332V17.9998C48.3332 6.33317 43.6665 1.6665 31.9998 1.6665H17.9998C6.33317 1.6665 1.6665 6.33317 1.6665 17.9998V31.9998C1.6665 43.6665 6.33317 48.3332 17.9998 48.3332H27.3332" stroke="#544179" stroke-width="3" stroke-linecap="round" stroke-linejoin="round"/>
<path opacity="0.4" d="M14.103 30.81L19.6564 23.5999C20.4497 22.5733 21.9197 22.3866 22.9464 23.18L27.2164 26.54C28.2431 27.3333 29.713 27.1466 30.5064 26.1433L35.8964 19.1899" stroke="#544179" stroke-width="3" stroke-linecap="round" stroke-linejoin="round"/>
<path d="M42.453 33.9134L43.1064 35.2433C43.433 35.8967 44.2497 36.5034 44.973 36.6434L45.8597 36.7833C48.5197 37.2267 49.1497 39.1867 47.2363 41.1233L46.4197 41.94C45.883 42.5 45.5797 43.5733 45.743 44.32L45.8597 44.81C46.583 48.03 44.8797 49.2667 42.0797 47.5867L41.473 47.2367C40.7497 46.8167 39.583 46.8167 38.8597 47.2367L38.253 47.5867C35.4297 49.29 33.7263 48.03 34.473 44.81L34.5896 44.32C34.753 43.5733 34.4497 42.5 33.913 41.94L33.0963 41.1233C31.183 39.1867 31.813 37.2267 34.473 36.7833L35.3597 36.6434C36.0597 36.5267 36.8996 35.8967 37.2263 35.2433L37.8796 33.9134C39.1396 31.37 41.193 31.37 42.453 33.9134Z" stroke="#544179" stroke-width="3" stroke-linecap="round" stroke-linejoin="round"/>
</svg>
