<svg xmlns="http://www.w3.org/2000/svg" width="1240" height="1252" fill="none" style="background:0 0"><g filter="url(#filter0_f_1390_2298)" style="animation-delay:1s"><path fill="url(#paint0_linear_1390_2298)" d="m885.857 160.25 138.283 750.825c2.85 15.489 17.99 25.516 33.36 22.102 15.37-3.414 24.84-18.906 20.87-34.146L885.857 160.25Z"/></g><g filter="url(#filter1_f_1390_2298)" style="animation-delay:3s"><path fill="url(#paint1_linear_1390_2298)" d="M353.786 160.25 215.507 911.075c-2.852 15.489-17.99 25.516-33.364 22.102-15.375-3.414-24.845-18.906-20.874-34.146L353.786 160.25Z"/></g><g filter="url(#filter2_f_1390_2298)" style="animation-delay:5s"><path fill="url(#paint2_linear_1390_2298)" d="m620 163 28.095 900.01c.495 15.86-12.227 28.99-28.095 28.99-15.868 0-28.59-13.13-28.095-28.99L620 163Z"/></g><defs><linearGradient id="paint0_linear_1390_2298" x1="857.643" x2="1057.5" y1="178" y2="933.177" gradientUnits="userSpaceOnUse"><stop stop-color="red"/><stop offset="1" stop-color="red" stop-opacity=".95"/></linearGradient><linearGradient id="paint1_linear_1390_2298" x1="382" x2="182.143" y1="178" y2="933.177" gradientUnits="userSpaceOnUse"><stop stop-color="red"/><stop offset="1" stop-color="red" stop-opacity=".95"/></linearGradient><linearGradient id="paint2_linear_1390_2298" x1="651.578" x2="608.641" y1="176.155" y2="1091.47" gradientUnits="userSpaceOnUse"><stop stop-color="red"/><stop offset="1" stop-color="red" stop-opacity=".95"/></linearGradient><filter id="filter0_f_1390_2298" width="513.422" height="1093.6" x="725.857" y=".25" color-interpolation-filters="sRGB" filterUnits="userSpaceOnUse"><feFlood flood-opacity="0" result="BackgroundImageFix"/><feBlend in="SourceGraphic" in2="BackgroundImageFix" result="shape"/><feGaussianBlur result="effect1_foregroundBlur_1390_2298" stdDeviation="80"/></filter><filter id="filter1_f_1390_2298" width="513.422" height="1093.6" x=".364" y=".25" color-interpolation-filters="sRGB" filterUnits="userSpaceOnUse"><feFlood flood-opacity="0" result="BackgroundImageFix"/><feBlend in="SourceGraphic" in2="BackgroundImageFix" result="shape"/><feGaussianBlur result="effect1_foregroundBlur_1390_2298" stdDeviation="80"/></filter><filter id="filter2_f_1390_2298" width="376.218" height="1249" x="431.891" y="3" color-interpolation-filters="sRGB" filterUnits="userSpaceOnUse"><feFlood flood-opacity="0" result="BackgroundImageFix"/><feBlend in="SourceGraphic" in2="BackgroundImageFix" result="shape"/><feGaussianBlur result="effect1_foregroundBlur_1390_2298" stdDeviation="80"/></filter><style>@keyframes line-eff{0%,to{opacity:0;transform:rotate(0) scale(.4) translate3d(0,0,0)}50%{opacity:1;transform:rotate(0) scale(1) translate3d(0,0,300px)}}g{animation:line-eff 3s infinite;transform-origin:50% 100%}</style></defs></svg>