<svg xmlns="http://www.w3.org/2000/svg" width="1920" height="942" fill="none"><path stroke="url(#a)" stroke-miterlimit="10" stroke-opacity=".16" d="m-59.456 72.907-120.046 8.466 9.509 9.503 126.681-9.449m-16.144-8.52 16.145 8.52m-16.145-8.52 108.87-7.674m-92.726 16.194L70.89 72.88l-21.474-7.647m0 0-19.316-6.882-103.98 6.964 14.425 7.62 108.87-7.702Zm98.899-6.992-99.172 6.991 21.499 7.674 103.492-7.728m-25.819-6.937 25.819 6.937m-25.819-6.937 90.705-6.39 29.286 6.308-94.172 7.019M-4.543 101.884-25.17 90.988l-134.062 10.65 12.35 12.344 142.338-12.098Zm0 0-142.367 12.098 14.234 14.228 151.737-13.873-23.604-12.453Zm0-.003-20.626-10.897 120.073-9.53 27.102 9.667-126.549 10.76Zm0 0 23.604 12.454 133.734-12.208-30.789-10.978L-4.543 101.88Zm207.306-29.002L94.603 81.48l27.101 9.668 113.243-9.613m-32.184-8.657 32.184 8.657m-32.184-8.657 97.945-7.784 36.144 7.784-101.905 8.657m0 0-113.243 9.64 30.762 10.979 118.79-10.842m-36.309-9.777 36.309 9.777m-36.309-9.777 101.932-8.657 40.572 8.739-106.195 9.695m21.637-50.523-80.621 5.38 26.554 5.708 83.301-5.872m-29.234-5.216 29.234 5.216m-29.234-5.216 74.531-4.997 31.445 4.806-76.742 5.407m-.056-.026L238.8 51.879l29.286 6.281 86.113-6.418m-32.128-5.762 32.128 5.762m-32.128-5.762 76.742-5.407 34.425 5.244-79.039 5.925m-.027-.002-86.112 6.418 32.456 6.991 89.09-7.1m-35.434-6.309 35.434 6.309m-35.434-6.309 79.04-5.925 37.81 5.79-81.416 6.444m-.054.003-89.092 7.073 36.146 7.784 92.233-7.838m-39.287-7.019 39.287 7.019m-39.287-7.019 81.388-6.473 41.717 6.364-83.818 7.128M505.8 40.408l-72.78 5.435 37.811 5.762 74.666-5.926M505.8 40.41l39.697 5.27M505.8 40.41l67.263-5.026 41.172 4.834-68.738 5.462m-.083-.026-74.666 5.953 41.746 6.364 76.55-6.527m-43.63-5.79 43.63 5.79m-43.63-5.79 68.712-5.461 45.105 5.298-70.187 5.953m-276.618 50.932-124.798 12.344 40.788 14.556 131.33-14.173m-47.32-12.727 47.32 12.727m-47.32-12.727 110.703-10.951 52.101 11.197-115.484 12.481m-.083-.056-131.327 14.201 47.728 17.041 138.405-16.495m-54.806-14.747 54.806 14.747m-54.806-14.747 115.458-12.454 59.803 12.835-120.455 14.366m0 0 64.256 17.287 125.593-16.714-69.368-14.911-120.481 14.338Zm174.605-78.324-76.553 6.5 46.308 7.073 78.437-7.183m-48.192-6.39 48.192 6.39m-48.192-6.39 70.184-5.981 49.614 5.844-71.606 6.527m-.083-.028-78.463 7.183 51.689 7.865 80.267-7.92m-53.493-7.128 53.493 7.128m-53.493-7.128 71.58-6.527M690.676 64.96l72.893-7.237-54.806-6.418m0 0 54.832 6.417 66.444-6.554m-121.276.137 65.568-6.009M690.65 64.958l-80.267 7.947 58.029 8.849 82.014-8.876m-59.776-7.92 59.776 7.92m-59.776-7.92 72.889-7.209 60.927 7.128-74.04 8.001m-589.38 116.368L-44.24 216.555l35.954 35.913 224.875-33.919m-55.543-29.303 55.543 29.303m-55.543-29.303 171.87-22.858 68.194 24.333-184.521 27.828m-.056.028L-8.369 252.496l46.226 46.208L286.2 255.336m-69.667-36.759 69.667 36.759m-69.667-36.759 184.521-27.856 83.791 29.905-198.645 34.71m268.667-87.803-154.194 23.268 83.764 29.931 162.609-28.402m-92.179-24.797 92.179 24.797m-92.179-24.797 130.7-19.718 96.96 20.838-135.481 23.677m-.219-.081-162.582 28.374 105.375 37.633 170.723-35.502m-113.516-30.505 113.516 30.505m-113.516-30.505 135.482-23.65 117.341 25.207-139.307 28.948m-47.29-106.917-109.199 14.501 81.441 17.506 112.259-16.932m-84.501-15.075 84.501 15.075m-84.501-15.075 95.784-12.753 86.141 13.136-97.424 14.692m182.609-27.526-86.796-11.525-84.72 11.252 86.14 13.163 85.376-12.89Zm0 0-85.403 12.89 100.239 15.266 85.211-14.884-100.047-13.272Zm-.001-.004-86.795-11.525 75.459-10.05 86.764 10.187-75.428 11.388Zm0 0 100.048 13.273 74.56-13-99.2-11.66-75.408 11.387Zm-182.635 27.557-112.286 16.932 96.958 20.837 114.692-20.045m-99.364-17.724 99.364 17.724m-99.364-17.724 97.425-14.721 100.236 15.294-98.297 17.151m257.629-45.061-74.56 13.027 116.53 15.485 72.45-15.075m-114.42-13.437 114.42 13.437m-114.42-13.437 65.79-11.47 111.93 11.744-63.3 13.163m-72.32 15.076-83.74 17.424 141.12 21.52 80.15-20.674m-137.53-18.27 137.53 18.27m-137.53-18.27 72.45-15.047 133.52 15.676-68.44 17.641m2.6 76.876-109.2 37.196 240.12 51.615 95.51-48.365m-226.43-40.446 226.43 40.446m-226.43-40.446 88.54-30.177 213.13 32.498-75.24 38.125m-.6-.136-95.57 48.338 327.22 70.35 65.62-65.598m-297.27-53.09 297.27 53.09m-297.27-53.09 75.27-38.098 271.81 41.429-49.81 49.759M1498.4 172.204l-73.24 24.961 213.18 32.499 60.84-30.806m-200.78-26.654 200.78 26.654m-200.78-26.654 61.61-21 189.36 22.23-50.19 25.424M669.039 15.638l-52.482 3.496 36.855 3.495 53.248-3.741m-37.621-3.25 37.621 3.25m-37.621-3.25 49.259-3.305 38.222 3.031-49.86 3.524m-29.041 16.275-63.467 5.025 45.079 5.298 64.557-5.49m-46.169-4.833 46.169 4.834m-46.169-4.834 58.792-4.67 46.991 4.45-59.614 5.053m67.101-13.844-54.614 4.342 46.992 4.452 55.184-4.67m-47.562-4.124 47.562 4.124m-47.562-4.124 50.842-4.041 47.946 3.796-51.226 4.369m-41.06-11.661-41.09-3.25 46.772-3.304 41.499 3.031-47.181 3.523Zm0 0 44.313 3.522 47.509-3.768-44.668-3.278-47.154 3.524Zm91.331-6.8-41.773-2.84 41.445-2.922m.328 5.762 41.61-3.113m-41.61 3.113 44.833 3.03 41.69-3.304-44.943-2.84-41.58 3.114Zm-.328-5.762 41.938 2.649m-41.938-2.65 39.096-2.758 41.989 2.486-39.147 2.922M723.845 39.999l-64.558 5.49 49.585 5.816 65.595-5.98m-50.622-5.326 50.622 5.325M723.845 40l59.584-5.053 51.335 4.861-60.297 5.517m-.136-.029 55.708 5.872m-55.708-5.872 60.297-5.489 56.253 5.326-60.842 6.035m116.656-11.55-56.551-4.888 51.497-4.698 56.634 4.48m-51.58 5.106 51.58-5.107m-51.58 5.107-55.951 5.544 61.962 5.872 56.034-6.063m-62.045-5.353 62.045 5.353m-10.465-10.46 61.905 4.916-51.44 5.544m-178.73 6.2-66.442 6.554 60.898 7.155 67.15-7.264M830.01 51.17l61.606 6.445M830.01 51.17l60.87-6.036 61.962 5.872-61.226 6.609m116.964-12.647-56.01 6.036 68.55 6.5 55.81-6.637m-68.35-5.899 68.35 5.9m-68.35-5.9 51.47-5.571 67.94 5.38-51.06 6.09m-78.791-16.331-56.633-4.506 47.781-4.37m8.852 8.876 47.731-4.725m-47.731 4.725 61.911 4.889 47.43-5.134m-118.193-8.63 56.583 4.15m-56.583-4.15 44.503-4.042 56.37 3.796-44.29 4.396m0 0 61.61 4.48m-32.27-16.469-41.5 3.796 56.36 3.824 41.2-4.097m-56.06-3.523 56.06 3.523m-56.06-3.523 38.82-3.55 55.65 3.278m-38.41 3.795 38.41-3.795m0 0-38.43 3.796 60.7 3.823 37.84-4.069-60.11-3.55Zm-62.2 16.74-61.61-4.477 44.26-4.397 61.22 4.15-43.87 4.725Zm84.33-9.122-40.68 4.397 66.72 4.506 39.91-4.752m-65.95-4.15 65.95 4.15m-65.95-4.15 37.84-4.097 65.13 3.851-37.02 4.396m-221.32 43.505-67.615 8.985 86.765 10.187 67.1-10.132m-86.25-9.04 86.25 9.04m-86.25-9.04 60.95-8.11 85.38 8.11m-60.08 9.04 60.08-9.04m-60.08 9.04 97.84 10.295 58.46-10.213-96.22-9.121m-.11 0-85.38-8.083 55.22-7.347 84.31 7.265-54.15 8.165Zm0 0 96.25 9.148 52.32-9.148m-148.57 0 54.12-8.166m0 0 94.45 8.166m-94.45-8.166 49.01-7.374 92.51 7.32-47.07 8.22m-.25-.029-52.31 9.15 109.28 10.35L1437.48 82m-106.5-9.204L1437.48 82m-106.5-9.204 47.1-8.22 103.71 8.22L1437.48 82m-107.23-31.432-81.64-5.953-45.98 6.117 83.03 6.554 44.59-6.718Zm0 0-44.62 6.718 92.54 7.346 42.59-7.455-90.51-6.609Zm0-.001-81.64-5.954 42.16-5.626 80.21 5.435-40.73 6.145Zm0 0 90.51 6.608 38.74-6.772-88.55-5.981-40.7 6.145Zm-72.43-21.247-39.94 4.752 73 4.943 38.85-5.162m-71.91-4.533 71.91 4.533m-71.91-4.533 36.99-4.396 70.81 4.15-35.89 4.78m41.17 10.594-80.19-5.434 38.85-5.162 78.71 4.943m-37.37 5.653 37.37-5.653m-37.37 5.653 88.54 5.98 35.38-6.171-86.55-5.462m0 .003-78.71-4.943 35.87-4.78 77.24 4.534-34.4 5.189Zm0 0 86.55 5.461 32.4-5.653-84.58-4.997-34.37 5.189Zm53.14 78.625-59.15 15.238 157.75 18.516 52.51-17.888m-151.11-15.866 151.11 15.866m-151.11-15.866 51.61-13.301 144.8 13.737-45.3 15.43m-174.91-51.261-49.55 10.295 125.2 11.88 45.47-11.716m-121.12-10.46 121.12 10.46m-121.12-10.46 44.29-9.23 117.12 9.285-40.29 10.405m138.51 11.962L1558.4 92.433l40.32-10.378 133.24 10.542m-34.72 11.852 34.72-11.852m-34.72 11.852-39.5 13.464 169.49 16.058 30.87-15.649m-160.86-13.873 160.86 13.873m-126.14-25.725 153 12.125-26.86 13.6m-.44-.026-30.87 15.621 200.94 19.062 18.44-18.406m-188.51-16.277 188.51 16.277m-188.51-16.277 26.91-13.6 177.42 14.038-15.82 15.839m-283.55-52.437-128-9.34-36.03 9.286 133.26 10.541 30.77-10.487Zm0 0 145.83 10.651 20.9-10.569-139.28-9.422-27.45 9.34Zm-66.45-25.205-29.23 7.538 123.13 8.33 24.65-8.385m-118.55-7.483 118.55 7.483m-118.55-7.483 26.56-6.827 114.25 6.718-22.26 7.592m0 0-24.67 8.412 139.3 9.422 18.63-9.45-133.26-8.384ZM-179.529 81.397-188 72.931l114.118-7.619 14.426 7.62-120.073 8.465ZM49.169 65.262 29.853 58.38l95.213-6.364 23.275 6.254-99.172 6.992Zm99.172-6.995-23.275-6.254 87.425-5.844 26.581 5.707-90.731 6.39Zm-307.572 43.399-10.792-10.787 126.685-9.45 18.196 9.586-134.089 10.651Zm134.088-10.653-18.195-9.586 114.198-8.52 24.07 8.575-120.073 9.531ZM94.63 81.51l-24.041-8.603 103.489-7.728 28.742 7.728-108.19 8.603Zm108.19-8.604-28.742-7.729 94.202-7.019 32.483 6.965-97.943 7.783Zm195.885-32.307-31.445-4.78 69.149-4.642 33.249 4.424-70.953 4.998Zm34.342 5.242-34.396-5.243 70.924-4.998 36.252 4.806-72.78 5.435ZM469.657 35.6l-33.249-4.424 64.283-4.288 34.724 4.07-65.758 4.642Zm36.169 4.81-36.252-4.806 65.761-4.643 37.754 4.425-67.263 5.025ZM-116.065 144.76l-16.611-16.577 151.71-13.874 27.267 14.393-162.366 16.058ZM46.301 128.7l-27.267-14.393L152.74 102.1l35.271 12.59L46.301 128.7Zm141.383-13.981-35.244-12.59L271.2 91.287l41.256 11.087-124.772 12.345Zm124.771-12.346L271.2 91.285l106.168-9.695 45.788 9.832-110.701 10.951Zm-408.959 61.993-19.615-19.608L46.245 128.7l31.856 16.823-174.605 18.843Zm23.55 23.489-23.55-23.541L78.074 145.47l37.702 19.882-188.73 22.503Zm151.055-42.331-31.856-16.823 141.711-14.01 40.788 14.556-150.643 16.277Zm37.675 19.826-37.702-19.882 150.617-16.276 47.728 17.041-160.643 19.117Zm261.4-83.732-40.543-8.712 92.233-7.838 43.821 7.838-95.511 8.712Zm45.708 9.831-45.788-9.858 95.482-8.712 49.177 8.766-98.871 9.804Zm49.803-18.541-43.822-7.838 83.848-7.128 46.308 7.073-86.334 7.893Zm49.067 8.736-49.176-8.766 86.334-7.893 51.689 7.893-88.847 8.766Zm-46.826 21.004-52.1-11.197 98.9-9.777 55.542 9.913-102.342 11.061Zm59.694 12.806-59.803-12.836 102.342-11.06 63.274 11.306-105.813 12.59Zm42.648-23.868-55.542-9.913 88.847-8.794 58.026 8.848-91.331 9.859Zm63.165 11.28L577.161 91.56l91.331-9.86 65.624 9.996-93.681 11.17Zm93.489-11.144-65.651-9.995 82.017-8.876 67.153 8.93-83.519 9.941Zm83.52-9.938-67.154-8.93 74.01-7.974 68.082 7.974-74.938 8.93ZM-44.24 216.637l-28.767-28.757 188.756-22.503 45.351 23.95-205.34 27.31Zm205.34-27.309-45.351-23.951 160.643-19.144 56.607 20.21L161.1 189.328Zm171.544-22.83-56.607-20.209 138.432-16.495 64.256 17.287-146.081 19.417Zm68.082 24.304-68.192-24.36 146.055-19.418 76.305 20.51-154.168 23.268Zm154.167-23.266-76.304-20.51 125.59-16.713 81.444 17.505-130.73 19.718ZM99.437 360.123 37.83 298.539l248.233-43.313 89.883 47.41-276.51 57.487Zm276.509-57.485-89.882-47.41 198.619-34.683 105.372 37.605-214.109 44.488Zm228.071-172.247-69.395-14.911 105.84-12.617 72.754 13-109.199 14.528Zm109.198-14.526-72.753-13 93.681-11.142 74.859 11.388-95.787 12.754Zm95.595-12.698-74.859-11.416 83.519-9.968 76.06 10.105-84.72 11.279Zm84.72-11.281L817.47 81.78l74.939-8.93 76.58 8.985-75.459 10.05Zm5.765 101.976-117.314-25.206 114.665-20.046 118.484 21.165-115.835 24.087Zm115.835-24.088-118.484-21.165 98.297-17.151 117.997 17.997-97.81 20.319Zm97.62-20.265-117.999-17.998 85.209-14.883 116.53 15.484-83.74 17.397ZM185.715 446.48 99.41 360.235l276.592-57.514 120.538 63.632-310.825 80.127Zm129.171 128.954-129.334-129.23 310.712-80.072 169.88 89.63-351.258 119.672Zm181.653-209.082L376.002 302.72l214.136-44.515 136.628 48.775-230.227 59.372Zm169.605 89.412-169.88-89.63 230.174-59.317 184.057 65.68-244.351 83.267Zm60.185-148.648L589.7 258.314l170.752-35.503 143.379 38.534-177.502 45.771Zm183.729 65.57-184.055-65.735 177.473-45.716 186.544 50.141-179.962 61.31Zm-6.227-111.342L760.452 222.81l139.307-28.949 144.991 31.134-140.919 36.349Zm186.189 50.031-186.544-50.141 140.914-36.322 183.57 39.435-137.94 47.028ZM530.279 790.934 314.75 575.487l351.284-119.699 257.521 135.921-393.276 199.225ZM959.891 1220 529.732 790.117 922.845 591.22l436.035 230.085L959.891 1220Zm-36.336-628.29-257.52-135.921 244.407-83.267 261.538 93.345L923.555 591.71Zm435.325 229.594L922.846 591.219l248.424-125.68 400.57 142.94-212.96 212.825Zm-187.31-355.162-261.592-93.426 179.982-61.338 252.91 68.001-171.3 86.763Zm400.02 142.799-400.73-143.103 171.3-86.681 361.99 97.305-132.56 132.479Zm-228.72-229.565-252.91-68.001 137.97-47 240.09 51.588-125.15 63.413Zm361.28 97.084-361.99-97.305 125.21-63.358 327.16 70.295-90.38 90.368Zm-659.76-251.385-144.985-31.161 115.865-24.087 143.81 25.671-114.69 29.577Zm183.21 39.384-183.56-39.49 114.66-29.55 178.1 31.816-109.2 37.224Zm-68.52-68.958-143.81-25.672 97.81-20.345 141.08 21.52-95.08 24.497Zm177.72 31.733-178.1-31.816 95.1-24.497 171.52 26.163-88.52 30.15Zm88.38-30.095-171.54-26.163 80.16-20.646 164.63 21.848-73.25 24.961Zm73.25-24.96-164.63-21.847 68.46-17.643 157.78 18.516-61.61 20.974Zm411.23 98.859-271.9-41.456 60.87-30.806 250.09 33.181-39.06 39.081Zm39.06-39.078-250.09-33.182 50.22-25.425 231.34 27.146-31.47 31.461ZM535.444 30.958l-34.724-4.07 59.939-4.014 35.927 3.769-61.142 4.314Zm37.646 4.425-37.729-4.424 61.143-4.315 38.905 4.07-62.319 4.67Zm23.497-8.737-35.928-3.769 56.034-3.741 36.855 3.495-56.961 4.015Zm38.822 4.068-38.905-4.07 56.962-4.014 39.833 3.77-57.89 4.314Zm57.781-4.316-39.834-3.768 53.222-3.742 40.569 3.496-53.957 4.014Zm53.957-4.017-40.57-3.495 49.86-3.523 41.09 3.25-50.38 3.768ZM614.235 40.216l-41.145-4.834 62.292-4.67 42.317 4.451-63.464 5.053Zm63.464-5.054-42.317-4.452 57.917-4.315 43.195 4.097-58.795 4.67Zm58.659-4.642-43.195-4.096 53.958-4.042 43.848 3.796-54.611 4.342Zm54.611-4.338-43.848-3.796 50.406-3.769 44.313 3.523-50.871 4.042Zm-34.588-10.79-38.219-3.031 46.335-3.113 38.657 2.84-46.773 3.304Zm46.773-3.301-38.657-2.84 43.63-2.923 39.014 2.65-43.987 3.113Zm41.418 3.003-41.498-3.032 43.985-3.086 41.772 2.813-44.259 3.305Zm2.486-6.12-39.014-2.622 41.199-2.759 39.233 2.458-41.418 2.923Zm41.418-2.922-39.233-2.458L888.175 1l39.395 2.294-39.094 2.758Zm1.065 19.88-47.947-3.795 47.509-3.796 48.139 3.523-47.701 4.069Zm-.328-7.561-44.668-3.277 44.26-3.305 44.833 3.032-44.425 3.55Zm48.029 3.494-48.139-3.523 44.425-3.523 48.245 3.277-44.531 3.769Zm44.452-3.77-48.249-3.276 41.691-3.305 48.224 3.032-41.666 3.55Zm-6.449-6.552-44.942-2.84L969.48 5.78l44.92 2.649-39.155 3.113Zm48.115 3.004-48.224-3.032 39.154-3.113 48.13 2.84-39.06 3.305ZM834.628 39.834l-51.335-4.86 55.188-4.698 51.77 4.479-55.623 5.08Zm56.143 5.325-56.252-5.353 55.625-5.08 56.551 4.889-55.924 5.544Zm-.521-10.403-51.769-4.479 51.252-4.37 52.018 4.124-51.501 4.725Zm2.132 38.095-68.055-8.002 67.154-7.237 68.493 7.182-67.592 8.057Zm67.591-8.055-68.492-7.182 61.198-6.609 68.571 6.5-61.277 7.291ZM941.615 30.06l-52.018-4.124 47.701-4.069 52.128 3.824-47.811 4.37Zm47.811-4.37-52.128-3.824 44.532-3.769 52.07 3.523-44.474 4.07Zm44.394-4.068-52.073-3.523 41.663-3.523 51.94 3.25-41.53 3.796Zm41.53-3.797-51.94-3.25 39.04-3.332 51.69 3.059-38.79 3.523Zm52.51 26.979-67.95-5.38 47.43-5.135 67.4 4.916-46.88 5.599Zm46.88-5.597-67.4-4.916 43.88-4.751 66.71 4.533-43.19 5.134Zm-23.47-9.64-61.22-4.123 41.2-4.096 60.7 3.823-40.68 4.397Zm-182.255 52.27-76.577-8.984L960 64.796l76.63 8.057-67.615 8.985Zm67.615-8.983L960 64.797l61.28-7.291 76.31 7.237-60.96 8.11Zm60.82-8.087-76.28-7.237 55.82-6.663 75.7 6.554-55.24 7.346Zm55.24-7.347-75.7-6.554 51.03-6.09 74.94 5.953-50.27 6.691Zm84.12 7.241-84.31-7.264 50.3-6.691 82.99 6.581-48.98 7.374Zm-82.04 38.968-99.18-11.634 67.1-10.132 97.84 10.296-65.76 11.47Zm177.47.245-111.93-11.743 58.47-10.214 109.25 10.35-55.79 11.607Zm-129.42-53.141-74.94-5.926 46.89-5.599 74.01 5.407-45.96 6.118Zm45.96-6.119-74.01-5.407 43.19-5.134 73 4.943-42.18 5.598Zm232.88 28.209-103.74-8.22 42.62-7.456 100.95 7.373-39.83 8.303Zm39.83-8.301-100.95-7.374 38.74-6.745 98.22 6.636-36.01 7.483Zm35.95-7.453-98.21-6.664 35.38-6.172 95.56 6.036-32.73 6.8Zm32.73-6.802-95.56-6.036 32.42-5.653 93.03 5.462-29.89 6.227Zm-187.58 82.447-133.52-15.676 63.31-13.163 129.36 13.6-59.15 15.239Zm59.15-15.237-129.36-13.6 55.78-11.58 125.19 11.853-51.61 13.327Zm196.02.407-144.82-13.737 45.46-11.716 138.84 12.017-39.48 13.436Zm91.55 55.522-189.33-22.23 52.51-17.888 178.92 18.789-42.1 21.329Zm230.83 27.063-231.32-27.146 42.13-21.302 215.09 22.586-25.9 25.862Zm-188.73-48.391-178.92-18.789 45.3-15.43 169.47 16.058-35.85 18.161Zm214.63 22.531-215.09-22.585 35.87-18.134 200.91 19.035-21.69 21.684Zm-407.15-92.5-117.13-9.285 39.84-8.275 113.29 8.275-36 9.285Zm36-9.287-113.29-8.275 36.03-7.483 109.64 7.401-32.38 8.357Zm127.73 9.313-128-9.34 32.35-8.356 123.13 8.329-27.48 9.367Zm-95.41-17.642-109.63-7.428 32.73-6.8 106.14 6.69-29.24 7.538Zm29.24-7.536-106.14-6.69 29.86-6.2L1723 50.103l-26.55 6.854Zm188.4 47.793-153.02-12.125 30.79-10.487 145.83 10.65-23.6 11.962Zm177.06 14.011-177.47-14.037 23.63-11.962 167.61 12.235-13.77 13.764Zm13.77-13.765-167.61-12.234 20.93-10.57 158.76 10.733-12.08 12.071Zm12.1-12.045-158.81-10.733 18.66-9.45 150.84 9.504-10.69 10.678Zm-139.8-20.154-133.26-8.384 22.26-7.592 127.7 7.51-16.7 8.466Zm150.48 9.477-150.83-9.504 16.72-8.466L2108 72.77l-9.54 9.504Z"/><defs><linearGradient id="a" x1="960" x2="960" y1="1" y2="1220" gradientUnits="userSpaceOnUse"><stop stop-color="#fff" stop-opacity="0"/><stop offset=".401" stop-color="#fff"/><stop offset=".589" stop-color="#fff" stop-opacity="0"/></linearGradient></defs></svg>