<svg fill="#fff" clip-rule="evenodd" fill-rule="evenodd" height="16" stroke-linejoin="round" stroke-miterlimit="2" viewBox="0 0 24 24" width="16" xmlns="http://www.w3.org/2000/svg"><g id="Icon"><path d="m17 22.75h-10c-.729 0-1.429-.29-1.945-.805-.515-.516-.805-1.216-.805-1.945v-16c0-.729.29-1.429.805-1.945.516-.515 1.216-.805 1.945-.805h10c.729 0 1.429.29 1.945.805.515.516.805 1.216.805 1.945v16c0 .729-.29 1.429-.805 1.945-.516.515-1.216.805-1.945.805zm-1.5-19.75h-7v1.5c0 .265.105.52.293.707.187.188.442.293.707.293h5c.265 0 .52-.105.707-.293.188-.187.293-.442.293-.707z"/></g></svg>