<svg id="Capa_1" enable-background="new 0 0 510.718 510.718" height="16" viewBox="0 0 510.718 510.718" width="16" xmlns="http://www.w3.org/2000/svg"><g><path d="m372.897 265.249h-87.78c-13.64 0-26.15-6.04-34.52-16.11l-19.46 32.89h39.87c28.308 0 49.545 25.801 44.18 53.55l-2.18 11.26c5.31.35 10.65.52 16 .52 35.73 0 86.78-14.49 119.1-29.43l-40.69-68.79c-8.37 10.07-20.88 16.11-34.52 16.11z"/><path d="m307.267 376.509-6.44 33.25c9.29 1.06 18.69 1.6 28.18 1.6 46.86 0 110.14-23.2 146.95-46.35l-12.51-21.15c-34.87 16.62-92.08 33.5-134.44 33.5-7.28 0-14.53-.29-21.74-.85z"/><path d="m508.477 419.989-17.25-29.16c-41.38 25.8-109.64 50.53-162.22 50.53-11.41 0-22.72-.69-33.89-2.07-13.014 67.22-12.049 62.422-12.51 64.18 87.418 14.937 174.759-14.817 223.64-64.89 4.741-4.625 6.074-12.418 2.23-18.59z"/><path d="m218.887 94.649c.358 2.861-2.774-5.621 52.32 131.2 2.28 5.68 7.79 9.4 13.91 9.4h87.78c6.12 0 11.63-3.72 13.91-9.4 51.107-126.919 51.371-127.557 51.41-127.66 1.371-3.526 1.332-7.228.23-10.35-2.536-7.845-15.777-18.833-24.22-23.47v-46.01c0-8.28-6.71-15-15-15-8.28 0-15 6.72-15 15v37.72c-22.134-.776-42.408 9.126-55.22 25.14-12.91-16.137-33.24-25.91-55.22-25.14v-37.72c0-8.28-6.72-15-15-15-8.29 0-15 6.72-15 15v46.01c-9.183 5.044-21.852 16.145-24.22 23.47-.783 2.218-.979 4.714-.68 6.81z"/><path d="m.277 329.879 32 165.33c1.37 7.05 7.54 12.15 14.73 12.15h25.87c-.128-30.701-.706 39.215.02-195.33h-57.89c-9.417 0-16.519 8.591-14.73 17.85z"/><path d="m102.887 507.359h80.25l.28-64h-80.81z"/><path d="m102.587 413.359h80.84l-.32-101.33h-80.2z"/><path d="m271.007 312.029h-57.89c.745 240.516.163 160.718.02 195.33h25.87c7.19 0 13.36-5.1 14.73-12.15l32-165.33c1.786-9.244-5.299-17.85-14.73-17.85z"/><path d="m192.828 241.988c-44.308-44.266-120.291-12.52-120.291 49.841l.36 20.2h30.01l-.37-20.2c0-22.315 18.154-40.47 40.47-40.47 22.365 0 40.47 18.096 40.47 40.47l-.37 20.2h30.01c.333-18.671 4.084-45.67-20.289-70.041z"/></g></svg>