<svg id="Capa_1" enable-background="new 0 0 512 512" height="16" viewBox="0 0 512 512" width="16" xmlns="http://www.w3.org/2000/svg"><g><path d="m464 168.998h-17c-26.51 0-48 21.49-48 48v39c0 13.807-11.193 25-25 25h-236c-13.807 0-25-11.193-25-25v-39c0-26.51-21.49-48-48-48h-17c-26.51 0-48 21.49-48 48v55c0 57.523 35.982 106.636 86.663 126.079l-13.086 45.801c-2.276 7.965 2.336 16.268 10.302 18.543 7.983 2.282 16.273-2.356 18.543-10.302l13.285-46.499c6.302.902 12.741 1.378 19.292 1.378h242c6.551 0 12.99-.476 19.292-1.378l13.285 46.499c1.882 6.589 7.888 10.883 14.416 10.883 9.982 0 17.162-9.563 14.43-19.125l-13.086-45.801c50.682-19.443 86.664-68.555 86.664-126.078v-55c0-26.51-21.49-48-48-48z"/><path d="m143 216.998v34h226v-34c0-43.009 34.991-78 78-78h15.869c-2.609-50.068-44.162-90-94.869-90h-224c-50.706 0-92.26 39.932-94.869 90h15.869c43.009 0 78 34.99 78 78zm193-87.998c8.284 0 15 6.716 15 15s-6.716 15-15 15-15-6.716-15-15 6.716-15 15-15zm-80 0c8.284 0 15 6.716 15 15s-6.716 15-15 15-15-6.716-15-15 6.716-15 15-15zm-80 0c8.284 0 15 6.716 15 15s-6.716 15-15 15-15-6.716-15-15 6.716-15 15-15z"/></g></svg>