<svg id="Capa_1" enable-background="new 0 0 512 512" height="16" viewBox="0 0 512 512" width="16" xmlns="http://www.w3.org/2000/svg" fill="#fff" ><g><path d="m152 210h-152v257c0 24.813 20.187 45 45 45h122.041c-9.438-12.544-15.041-28.129-15.041-45zm-62 125c0 8.284-6.716 15-15 15s-15-6.716-15-15v-80c0-8.284 6.716-15 15-15s15 6.716 15 15z"/><path d="m310 72v-27c0-24.813-20.187-45-45-45h-220c-24.813 0-45 20.187-45 45v135h152v-33c0-41.355 33.645-75 75-75zm-220 63c0 8.284-6.716 15-15 15s-15-6.716-15-15v-40c0-8.284 6.716-15 15-15s15 6.716 15 15z"/><path d="m467 102h-240c-24.813 0-45 20.187-45 45v55h330v-55c0-24.813-20.187-45-45-45zm-90 65c-8.284 0-15-6.716-15-15s6.716-15 15-15 15 6.716 15 15-6.716 15-15 15zm60 0c-8.284 0-15-6.716-15-15s6.716-15 15-15 15 6.716 15 15-6.716 15-15 15z"/><circle cx="347" cy="357" r="65"/><path d="m182 467c0 24.813 20.187 45 45 45h240c24.813 0 45-20.187 45-45v-235h-330zm165-205c52.383 0 95 42.617 95 95s-42.617 95-95 95-95-42.617-95-95 42.617-95 95-95z"/></g></svg>