<svg id="Capa_1" enable-background="new 0 0 512 512" height="16" viewBox="0 0 512 512" width="16" xmlns="http://www.w3.org/2000/svg" fill="#fff"><g><path d="m161 136.493-80-48v335.014l80-48z"/><path d="m181.984 95.021-48.381-81.643-40.717 47.261 79.231 47.538z"/><path d="m172.117 403.823-79.231 47.538 40.717 47.261 48.381-81.643z"/><path d="m330.016 416.979 48.381 81.643 40.717-47.261-79.231-47.538z"/><path d="m351 375.507 80 48v-335.014l-80 48z"/><path d="m208.547 431-48 81h190.906l-48-81z"/><path d="m191 133v246l16.5 22h97l16.5-22v-246l-16.5-22h-97z"/><path d="m303.453 81 48-81h-190.906l48 81z"/><path d="m339.883 108.177 79.231-47.538-40.717-47.261-48.381 81.643z"/><path d="m40 271c8.284 0 15-6.716 15-15s-6.716-15-15-15h-25c-8.284 0-15 6.716-15 15s6.716 15 15 15z"/><path d="m34.606 141.394c-5.857-5.858-15.355-5.858-21.213 0s-5.858 15.355 0 21.213l16 16c2.929 2.929 6.768 4.393 10.607 4.393s7.678-1.464 10.606-4.394c5.858-5.858 5.858-15.355 0-21.213z"/><path d="m29.394 333.394-16 16c-5.858 5.858-5.858 15.355 0 21.213 2.928 2.929 6.767 4.393 10.606 4.393s7.678-1.464 10.606-4.394l16-16c5.858-5.858 5.858-15.355 0-21.213-5.857-5.858-15.355-5.858-21.212.001z"/><path d="m497 241h-25c-8.284 0-15 6.716-15 15s6.716 15 15 15h25c8.284 0 15-6.716 15-15s-6.716-15-15-15z"/><path d="m472 183c3.839 0 7.678-1.464 10.606-4.394l16-16c5.858-5.858 5.858-15.355 0-21.213-5.857-5.858-15.355-5.858-21.213 0l-16 16c-5.858 5.858-5.858 15.355 0 21.213 2.929 2.93 6.768 4.394 10.607 4.394z"/><path d="m482.606 333.394c-5.857-5.858-15.355-5.858-21.213 0s-5.858 15.355 0 21.213l16 16c2.929 2.929 6.768 4.393 10.607 4.393s7.678-1.464 10.606-4.394c5.858-5.858 5.858-15.355 0-21.213z"/></g></svg>