<svg id="Capa_1" enable-background="new 0 0 512 512" height="16" viewBox="0 0 512 512" width="16" xmlns="http://www.w3.org/2000/svg" fill="#ff" ><g><path d="m109.21 168.518c6.8 2.35 10.97 9.19 9.95 16.31l-29.68 206.78c22.45 8.8 44.64 15.86 66.67 21.19 0-74.625 57.497-122.92 119.67-122.92 32.03 0 62.14 12.41 84.8 34.94 20.91 20.81 33.16 47.93 34.93 77.03 21.3-7.07 42.76-15.76 64.46-26.07l-25.06-172.54c-1.16-7.94-8.14-13.93-16.25-13.93h-146c-8.42 0-15.124-6.932-15-15.23 1.741-115.117-32.85-149.644-77.026-169.21-5.115-2.266-10.816 1.71-10.491 7.295l1.657 28.454c.62 7.16-2.59 14.17-8.47 18.4-2.464 1.773 3.785-.719-99.35 35.96-17.545 6.254-24.796 26.906-15.14 41.89 11.171 17.248 25.579 19.668 60.33 31.651z"/><path d="m0 397.449v49.181c0 3.47 2.021 6.611 5.163 8.084 150.983 70.756 350.361 70.755 501.668-.012 3.145-1.471 5.169-4.614 5.169-8.087v-48.92c0-6.702-7.126-10.998-13.056-7.874-160.935 84.772-314.518 89.083-485.933-.27-5.923-3.087-13.011 1.218-13.011 7.898z"/></g></svg>