<svg id="Layer_1" height="512" viewBox="0 0 91 91" width="512" xmlns="http://www.w3.org/2000/svg" data-name="Layer 1"><path d="m45.31 90a1.5 1.5 0 0 1 -1.5-1.5v-12.56a1.5 1.5 0 0 1 3 0v12.6a1.5 1.5 0 0 1 -1.5 1.46z"/><path d="m45.31 90a1.51 1.51 0 0 1 -1-.37l-8-7a1.5 1.5 0 0 1 2-2.26l8 7a1.51 1.51 0 0 1 .14 2.12 1.49 1.49 0 0 1 -1.14.51z"/><path d="m45.31 90a1.49 1.49 0 0 1 -1.13-.51 1.51 1.51 0 0 1 .14-2.12l8-7a1.5 1.5 0 0 1 2 2.26l-8 7a1.51 1.51 0 0 1 -1.01.37z"/><path d="m45.31 17a1.5 1.5 0 0 1 -1.5-1.5v-12.61a1.5 1.5 0 0 1 3 0v12.6a1.5 1.5 0 0 1 -1.5 1.51z"/><path d="m37.28 11.41a1.5 1.5 0 0 1 -1-2.63l8-7a1.5 1.5 0 1 1 2.02 2.22l-8 7a1.56 1.56 0 0 1 -1.02.41z"/><path d="m53.33 11.41a1.51 1.51 0 0 1 -1-.37l-8-7a1.5 1.5 0 0 1 2-2.26l8 7a1.5 1.5 0 0 1 -1 2.63z"/><path d="m50.24 69.55h-9.86a13.64 13.64 0 0 1 -13.63-13.62v-20.43a13.64 13.64 0 0 1 13.63-13.62h9.86a13.64 13.64 0 0 1 13.62 13.62v20.43a13.64 13.64 0 0 1 -13.62 13.62zm-9.86-44.67a10.64 10.64 0 0 0 -10.63 10.62v20.43a10.64 10.64 0 0 0 10.63 10.62h9.86a10.63 10.63 0 0 0 10.62-10.62v-20.43a10.63 10.63 0 0 0 -10.62-10.62z"/><path d="m45.31 42.58a1.5 1.5 0 0 1 -1.5-1.5v-6.71a1.5 1.5 0 0 1 3 0v6.71a1.5 1.5 0 0 1 -1.5 1.5z"/></svg>