<svg id="Layer_1" enable-background="new 0 0 512 512" viewBox="0 0 512 512" xmlns="http://www.w3.org/2000/svg"><g id="Layer_2_00000032629504574287469190000011259536146287226770_"><g id="Layer_1_copy_3"><g id="_30"><path d="m36.4 0h439.2c20.1 0 36.4 16.3 36.4 36.4v71.2c0 20.1-16.3 36.4-36.4 36.4h-439.2c-20.1 0-36.4-16.3-36.4-36.4v-71.2c0-20.1 16.3-36.4 36.4-36.4z"/><path d="m36.4 368h71.2c20.1 0 36.4 16.3 36.4 36.4v71.2c0 20.1-16.3 36.4-36.4 36.4h-71.2c-20.1 0-36.4-16.3-36.4-36.4v-71.2c0-20.1 16.3-36.4 36.4-36.4z"/><path d="m404.4 368h71.2c20.1 0 36.4 16.3 36.4 36.4v71.2c0 20.1-16.3 36.4-36.4 36.4h-71.2c-20.1 0-36.4-16.3-36.4-36.4v-71.2c0-20.1 16.3-36.4 36.4-36.4z"/><path d="m36.4 184h71.2c20.1 0 36.4 16.3 36.4 36.4v71.2c0 20.1-16.3 36.4-36.4 36.4h-71.2c-20.1 0-36.4-16.3-36.4-36.4v-71.2c0-20.1 16.3-36.4 36.4-36.4z"/><path d="m220.4 184h71.2c20.1 0 36.4 16.3 36.4 36.4v71.2c0 20.1-16.3 36.4-36.4 36.4h-71.2c-20.1 0-36.4-16.3-36.4-36.4v-71.2c0-20.1 16.3-36.4 36.4-36.4z"/><path d="m404.4 184h71.2c20.1 0 36.4 16.3 36.4 36.4v71.2c0 20.1-16.3 36.4-36.4 36.4h-71.2c-20.1 0-36.4-16.3-36.4-36.4v-71.2c0-20.1 16.3-36.4 36.4-36.4z"/><path d="m220.4 368h71.2c20.1 0 36.4 16.3 36.4 36.4v71.2c0 20.1-16.3 36.4-36.4 36.4h-71.2c-20.1 0-36.4-16.3-36.4-36.4v-71.2c0-20.1 16.3-36.4 36.4-36.4z"/></g></g></g></svg>