<svg clip-rule="evenodd" fill-rule="evenodd" height="512" stroke-linejoin="round" stroke-miterlimit="2" viewBox="0 0 32 32" width="512" xmlns="http://www.w3.org/2000/svg"><path d="m20.552 22.448-3.394 1.204c-.231.082-.488.024-.661-.149s-.231-.43-.149-.661l1.204-3.394c.007-.019.017-.036.032-.05l8.979-8.98c.443-.443 1.162-.443 1.605 0l1.414 1.414c.443.443.443 1.162 0 1.605l-8.98 8.979c-.014.015-.031.025-.05.032zm3.448-.601v3.153c0 .796-.316 1.559-.879 2.121-.562.563-1.325.879-2.121.879h-16c-.796 0-1.559-.316-2.121-.879-.563-.562-.879-1.325-.879-2.121v-14h21.153l-6.984 6.984c-.224.224-.396.496-.502.796l-1.204 3.393c-.34.958-.098 2.025.62 2.744.719.718 1.786.96 2.744.62l3.393-1.204c.3-.106 2.78-2.486 2.78-2.486zm-17 1.153h3.169c.552 0 1-.448 1-1s-.448-1-1-1h-3.169c-.552 0-1 .448-1 1s.448 1 1 1zm0-4h5.169c.552 0 1-.448 1-1s-.448-1-1-1h-5.169c-.552 0-1 .448-1 1s.448 1 1 1zm0-4h9.169c.552 0 1-.448 1-1s-.448-1-1-1h-9.169c-.552 0-1 .448-1 1s.448 1 1 1zm-5-6v-2c0-.796.316-1.559.879-2.121.562-.563 1.325-.879 2.121-.879h16c.796 0 1.559.316 2.121.879.563.562.879 1.325.879 2.121v2z"/></svg>