<svg enable-background="new 0 0 548.25 548.25" height="16" viewBox="0 0 548.25 548.25" width="16" xmlns="http://www.w3.org/2000/svg" fill="#ffF"><g><g id="Icon_00000115480656455809876520000009748704238352922530_" clip-rule="evenodd" fill-rule="evenodd"><path d="m548.25 82.875v280.5c0 18.59-7.395 36.44-20.528 49.598-13.158 13.132-31.008 20.527-49.597 20.527h-408c-18.59 0-36.439-7.395-49.598-20.527-13.132-13.159-20.527-31.008-20.527-49.598v-280.5c0-18.59 7.395-36.439 20.528-49.598 13.158-13.132 31.008-20.527 49.597-20.527h408c18.59 0 36.44 7.395 49.597 20.528 13.133 13.158 20.528 31.008 20.528 49.597z"/><path d="m439.875 497.25c10.557 0 19.125 8.568 19.125 19.125s-8.568 19.125-19.125 19.125h-331.5c-10.557 0-19.125-8.568-19.125-19.125s8.568-19.125 19.125-19.125z"/><path d="m344.25 459v57.375c0 10.557-8.568 19.125-19.125 19.125h-102c-10.557 0-19.125-8.568-19.125-19.125v-57.375z"/></g></g></svg>